<svg width="112" height="112" viewBox="0 0 112 112" fill="none" xmlns="http://www.w3.org/2000/svg">
<g opacity="0.7">
<path d="M0.742169 0.759804C0.20241 1.35075 0 9.73669 0.13494 31.6583L0.337349 61.7688L27.6627 61.9095L54.988 62.0503L55.1904 64.6392C55.3253 66.3276 55.1229 67.2563 54.6506 67.2563C54.3133 67.2563 52.8964 66.7497 51.547 66.1307C50.1976 65.5116 48.8482 65.005 48.5108 65.005C47.0265 65.005 48.241 65.8211 51.6145 67.1156C54.4482 68.1568 55.3253 68.6915 55.3253 69.2824C55.3253 69.7045 55.1904 70.0704 54.988 70.0704C54.853 70.0704 53.4361 69.5075 51.8843 68.804C50.3325 68.1005 48.8482 67.5377 48.5108 67.5377C47.094 67.5377 48.106 68.2131 51.6145 69.6482C55.0554 71.0271 55.3253 71.2523 55.3253 72.4342C55.3253 73.7005 55.2578 73.7568 52.4916 74.2633C49.1181 74.8824 47.0265 75.7829 46.0819 76.9648L45.4072 77.809L23.6145 77.8935C8.90602 77.9216 1.48434 78.0623 0.877108 78.2593C0.13494 78.5126 0 81.6362 0 94.8623V111.128L1.48434 111.55C2.83373 111.944 9.1759 112 56.4723 112C103.971 112 109.976 111.944 110.92 111.55C111.865 111.184 112 109.242 112 94.9467C111.933 86.0543 111.798 78.597 111.595 78.3719C111.258 78.006 107.952 77.9497 89.0602 77.9497H66.9301L66.1205 76.9648C65.1759 75.7548 62.8145 74.798 59.306 74.1226C56.8771 73.6724 56.6747 73.5598 56.6747 72.5186C56.6747 71.5055 57.0795 71.2241 60.7229 69.7327C62.9494 68.8322 64.7711 67.8754 64.7711 67.6221C64.7711 67.2844 63.6916 67.594 61.1952 68.607C59.2386 69.4231 57.2819 70.0704 56.8096 70.0704C54.988 70.0704 56.8096 68.7759 60.7904 67.2563C64.4337 65.8492 65.7157 65.005 64.2313 65.005C63.9614 65.005 62.612 65.4553 61.3301 66.0181C56.9446 67.9317 56.7422 67.8754 56.8771 65.0894C57.012 63.7106 57.2819 62.4724 57.5518 62.3035C57.8892 62.0784 65.8506 61.9658 84.4048 61.9377C98.9108 61.9095 110.988 61.8533 111.258 61.7688C112.067 61.5719 112 0.759804 111.19 0.365829C110.651 0.0844269 99.4506 0 56 0H1.48434L0.742169 0.759804ZM109.841 31.1518L109.976 61.3467H56H2.0241V31.5176C2.0241 15.1116 2.22651 1.49146 2.42892 1.26633C2.76627 0.900505 9.37831 0.844223 56.2699 0.900505L109.639 0.984924L109.841 31.1518ZM59.7108 75.2482C62.4096 75.7266 64.7711 77.1618 64.7711 78.3156C64.7711 79.2724 63.8265 80.0884 61.5325 81.1015C60.0482 81.7769 59.2386 81.8894 56 81.8894C52.7614 81.8894 51.9518 81.7769 50.4675 81.1015C49.5229 80.6794 48.3759 79.8915 47.9036 79.3286C47.1614 78.4563 47.2289 78.1749 48.3759 77.0774C50.4675 75.1075 54.853 74.404 59.7108 75.2482ZM45.6096 79.2724C46.959 81.6643 52.2217 83.2402 57.7542 82.8744C61.3976 82.6492 65.4458 81.1578 66.5253 79.6382L67.2 78.6533L87.0361 78.5688C97.9663 78.5407 107.614 78.5688 108.492 78.6533L109.976 78.794L109.841 94.9186L109.639 111.015H56H2.36145L2.22651 95.1437C2.09157 83.803 2.22651 79.1598 2.76627 78.8784C3.37349 78.597 7.75904 78.5126 24.3566 78.5126H45.2048L45.6096 79.2724Z" fill="url(#paint0_linear_662_1370)"/>
<path d="M16.3509 6.62116C16.1755 6.87306 16 12.0509 16 18.1803C16 26.4369 16.1755 29.3756 16.7019 29.6275C17.6962 30.1033 45.3038 30.1033 46.2981 29.6275C46.8245 29.3756 47 26.4369 47 18.1803C47 12.0509 46.8245 6.87306 46.6491 6.62116C46.3566 6.22933 44.4264 6.17335 31.5 6.17335C18.5736 6.17335 16.6434 6.22933 16.3509 6.62116ZM45.3038 17.9284C45.2453 23.8619 45.0113 28.7879 44.7189 28.9278C44.4849 29.0398 38.2849 29.0957 30.9736 29.0678L17.6962 28.9838V18.2083C17.7547 12.2748 17.7547 7.34886 17.7547 7.20892C17.7547 7.09696 23.9547 7.04099 31.5585 7.06898L45.3623 7.15294L45.3038 17.9284Z" fill="url(#paint1_linear_662_1370)"/>
<path d="M53.9761 6.38523C53.9761 6.76738 56.3418 6.82617 71.9761 6.82617C87.6104 6.82617 89.9761 6.76738 89.9761 6.38523C89.9761 6.00307 87.6104 5.94428 71.9761 5.94428C56.3418 5.94428 53.9761 6.00307 53.9761 6.38523Z" fill="url(#paint2_linear_662_1370)"/>
<path d="M54.0701 12.3537C53.9144 12.5238 53.9663 12.7279 54.1219 12.8299C54.2776 12.932 62.372 13 72.1787 13C85.0468 13 89.9761 12.8639 89.9761 12.5918C89.9761 12.1496 54.4852 11.9115 54.0701 12.3537Z" fill="url(#paint3_linear_662_1370)"/>
<path d="M53.9814 16.0836C54.3987 16.697 89.554 16.6532 89.9713 16.0836C90.1799 15.8207 83.5557 15.6455 71.9763 15.6455C59.7189 15.6455 53.7727 15.7769 53.9814 16.0836Z" fill="url(#paint4_linear_662_1370)"/>
<path d="M53.9761 19.6535C53.9761 20.0311 56.9198 20.0998 71.8969 20.0311C84.1885 19.9625 89.8178 19.8251 89.9728 19.5505C90.1277 19.2758 84.8599 19.1728 72.0519 19.1728C56.9715 19.1728 53.9761 19.2415 53.9761 19.6535Z" fill="url(#paint5_linear_662_1370)"/>
<path d="M53.9761 25.7876C53.9761 26.1697 56.3418 26.2285 71.9761 26.2285C87.6104 26.2285 89.9761 26.1697 89.9761 25.7876C89.9761 25.4054 87.6104 25.3466 71.9761 25.3466C56.3418 25.3466 53.9761 25.4054 53.9761 25.7876Z" fill="url(#paint6_linear_662_1370)"/>
<path d="M53.9761 29.3354C53.9761 29.7354 56.1936 29.7969 71.8707 29.7354C85.5882 29.6738 89.7653 29.5508 89.9716 29.2431C90.1263 28.9663 86.3102 28.874 72.077 28.874C56.2451 28.874 53.9761 28.9355 53.9761 29.3354Z" fill="url(#paint7_linear_662_1370)"/>
<path d="M16.1206 36.0259C16.1206 36.408 20.6154 36.4668 53.1206 36.4668C85.6258 36.4668 90.1206 36.408 90.1206 36.0259C90.1206 35.6437 85.6258 35.5849 53.1206 35.5849C20.6154 35.5849 16.1206 35.6437 16.1206 36.0259Z" fill="url(#paint8_linear_662_1370)"/>
<path d="M16.1206 39.4915C16.1206 39.8708 35.0865 40.0983 56.4095 39.9466C62.1651 39.9087 72.0865 39.8708 78.4999 39.8708C85.8999 39.8708 90.1206 39.7191 90.1206 39.4915C90.1206 39.226 77.4036 39.1123 53.1206 39.1123C28.8376 39.1123 16.1206 39.226 16.1206 39.4915Z" fill="url(#paint9_linear_662_1370)"/>
<path d="M16.1253 43.0478C16.2883 43.464 20.4735 43.4937 52.7045 43.5234C82.0004 43.5234 89.1206 43.4343 89.1206 43.137C89.1206 42.8397 81.8917 42.7208 52.5414 42.6613C19.9299 42.6019 15.9622 42.6613 16.1253 43.0478Z" fill="url(#paint10_linear_662_1370)"/>
<path d="M16.1217 45.7435C16.2305 45.9888 16.8288 46.1992 17.4815 46.1641C18.1343 46.1641 34.6155 46.1291 54.0883 46.094C77.4775 46.059 89.3352 45.9187 89.1177 45.6733C88.5737 45.1124 15.7953 45.1825 16.1217 45.7435Z" fill="url(#paint11_linear_662_1370)"/>
<path d="M16.1206 49.2822C16.1206 49.6884 20.5121 49.7509 53.0095 49.6572C81.8839 49.6259 89.8984 49.5009 90.118 49.1884C90.2827 48.9072 82.6524 48.8134 53.2291 48.8134C20.6219 48.8134 16.1206 48.8759 16.1206 49.2822Z" fill="url(#paint12_linear_662_1370)"/>
<path d="M19.9769 51.2994C17.7978 51.3895 16 51.6146 16 51.7947C16 51.9748 32.4522 52.0648 52.5 52.0198C72.6022 51.9748 89 51.7947 89 51.5696C89 51.2094 28.0396 50.9843 19.9769 51.2994Z" fill="url(#paint13_linear_662_1370)"/>
<path d="M16 55.1176C16 55.4998 20.4783 55.5586 52.8093 55.5586C73.9446 55.5586 89.7824 55.441 89.9462 55.294C90.11 55.147 89.8916 54.9413 89.4001 54.8531C88.9086 54.7649 72.1969 54.6767 52.2631 54.6767C20.3691 54.6767 16 54.7355 16 55.1176Z" fill="url(#paint14_linear_662_1370)"/>
<path d="M66.7281 92.5543C65.6486 93.0046 64.7715 93.5674 64.7715 93.8207C64.7715 94.4679 67.9426 95.5654 70.8438 95.9312C74.0823 96.3252 74.6896 96.9443 72.5305 97.5352C71.2486 97.9011 70.6414 97.9011 69.3594 97.6197C68.4823 97.4227 67.6052 97.1694 67.4028 97.0006C66.7956 96.6347 64.7715 96.9724 64.7715 97.4508C64.7715 98.0136 68.4149 98.7734 71.0462 98.7734C73.4751 98.7734 74.9594 98.3513 76.3088 97.3101C77.3209 96.5222 75.2968 95.4247 71.8558 94.9182C68.145 94.3835 66.998 93.877 68.145 93.3141C69.2245 92.7513 70.439 92.7513 72.5305 93.3141C74.2173 93.7644 75.5667 93.6518 75.5667 93.0609C75.5667 92.5825 72.0582 91.7383 70.1691 91.7383C69.3594 91.7383 67.8076 92.1041 66.7281 92.5543Z" fill="url(#paint15_linear_662_1370)"/>
<path d="M42.4386 92.7792C41.2242 94.0456 37.7832 98.3229 37.7832 98.5481C37.7832 98.6888 38.3904 98.7732 39.0651 98.7732C39.8748 98.7732 40.482 98.5199 40.7519 98.0697C41.1567 97.4506 41.494 97.3662 44.5302 97.3662C47.3639 97.3662 48.0386 97.4787 48.9832 98.0697C50.2651 98.8858 53.0989 99.0827 52.2892 98.2667C52.0193 98.0134 50.8049 96.6345 49.5904 95.1993C46.8916 92.0476 46.8242 92.0194 44.8001 92.0194C43.6531 92.0194 42.9109 92.2446 42.4386 92.7792ZM46.5543 94.6928C47.5663 95.9591 47.0266 96.5219 44.935 96.5219C42.641 96.5219 42.3037 96.1843 43.1808 94.8335C44.0579 93.4265 45.5422 93.3702 46.5543 94.6928Z" fill="url(#paint16_linear_662_1370)"/>
<path d="M51.5474 92.3293C50.9401 92.7514 52.4245 93.1172 53.9763 92.9484C55.8654 92.7514 56.2703 93.3705 56.3377 96.1002C56.3377 98.2389 56.5401 98.6328 57.4847 98.7172C58.4968 98.8017 58.6992 98.464 58.8341 95.9032L59.0365 93.0047H61.0606C62.41 93.0047 63.1522 92.8358 63.2871 92.4981C63.4895 92.076 62.8823 92.0198 57.7546 92.0198C54.3136 92.0198 51.8173 92.1323 51.5474 92.3293Z" fill="url(#paint17_linear_662_1370)"/>
</g>
<defs>
<linearGradient id="paint0_linear_662_1370" x1="5" y1="4.40944" x2="93.0089" y2="120.757" gradientUnits="userSpaceOnUse">
<stop stop-color="#40BD9E"/>
<stop offset="1" stop-color="#6599CD"/>
</linearGradient>
<linearGradient id="paint1_linear_662_1370" x1="17.3839" y1="7.11079" x2="34.2763" y2="36.1847" gradientUnits="userSpaceOnUse">
<stop stop-color="#40BD9E"/>
<stop offset="1" stop-color="#6599CD"/>
</linearGradient>
<linearGradient id="paint2_linear_662_1370" x1="55.5832" y1="5.979" x2="55.6099" y2="7.41882" gradientUnits="userSpaceOnUse">
<stop stop-color="#40BD9E"/>
<stop offset="1" stop-color="#6599CD"/>
</linearGradient>
<linearGradient id="paint3_linear_662_1370" x1="55.5832" y1="12.1528" x2="55.6099" y2="13.5927" gradientUnits="userSpaceOnUse">
<stop stop-color="#40BD9E"/>
<stop offset="1" stop-color="#6599CD"/>
</linearGradient>
<linearGradient id="paint4_linear_662_1370" x1="55.5832" y1="15.6802" x2="55.6099" y2="17.12" gradientUnits="userSpaceOnUse">
<stop stop-color="#40BD9E"/>
<stop offset="1" stop-color="#6599CD"/>
</linearGradient>
<linearGradient id="paint5_linear_662_1370" x1="55.5832" y1="19.2075" x2="55.6099" y2="20.6473" gradientUnits="userSpaceOnUse">
<stop stop-color="#40BD9E"/>
<stop offset="1" stop-color="#6599CD"/>
</linearGradient>
<linearGradient id="paint6_linear_662_1370" x1="55.5832" y1="25.3813" x2="55.6099" y2="26.8212" gradientUnits="userSpaceOnUse">
<stop stop-color="#40BD9E"/>
<stop offset="1" stop-color="#6599CD"/>
</linearGradient>
<linearGradient id="paint7_linear_662_1370" x1="55.5832" y1="28.9087" x2="55.6099" y2="30.3485" gradientUnits="userSpaceOnUse">
<stop stop-color="#40BD9E"/>
<stop offset="1" stop-color="#6599CD"/>
</linearGradient>
<linearGradient id="paint8_linear_662_1370" x1="19.4242" y1="35.6196" x2="19.4372" y2="37.0598" gradientUnits="userSpaceOnUse">
<stop stop-color="#40BD9E"/>
<stop offset="1" stop-color="#6599CD"/>
</linearGradient>
<linearGradient id="paint9_linear_662_1370" x1="19.4242" y1="39.147" x2="19.4372" y2="40.5872" gradientUnits="userSpaceOnUse">
<stop stop-color="#40BD9E"/>
<stop offset="1" stop-color="#6599CD"/>
</linearGradient>
<linearGradient id="paint10_linear_662_1370" x1="19.3795" y1="42.6763" x2="19.3927" y2="44.1165" gradientUnits="userSpaceOnUse">
<stop stop-color="#40BD9E"/>
<stop offset="1" stop-color="#6599CD"/>
</linearGradient>
<linearGradient id="paint11_linear_662_1370" x1="19.3795" y1="45.3208" x2="19.3927" y2="46.761" gradientUnits="userSpaceOnUse">
<stop stop-color="#40BD9E"/>
<stop offset="1" stop-color="#6599CD"/>
</linearGradient>
<linearGradient id="paint12_linear_662_1370" x1="19.4242" y1="48.8481" x2="19.4372" y2="50.2883" gradientUnits="userSpaceOnUse">
<stop stop-color="#40BD9E"/>
<stop offset="1" stop-color="#6599CD"/>
</linearGradient>
<linearGradient id="paint13_linear_662_1370" x1="19.2589" y1="51.1841" x2="19.2721" y2="52.6243" gradientUnits="userSpaceOnUse">
<stop stop-color="#40BD9E"/>
<stop offset="1" stop-color="#6599CD"/>
</linearGradient>
<linearGradient id="paint14_linear_662_1370" x1="19.3036" y1="54.7114" x2="19.3166" y2="56.1516" gradientUnits="userSpaceOnUse">
<stop stop-color="#40BD9E"/>
<stop offset="1" stop-color="#6599CD"/>
</linearGradient>
<linearGradient id="paint15_linear_662_1370" x1="65.2982" y1="92.0152" x2="69.6046" y2="101.563" gradientUnits="userSpaceOnUse">
<stop stop-color="#40BD9E"/>
<stop offset="1" stop-color="#6599CD"/>
</linearGradient>
<linearGradient id="paint16_linear_662_1370" x1="38.4372" y1="92.2859" x2="41.8812" y2="102.138" gradientUnits="userSpaceOnUse">
<stop stop-color="#40BD9E"/>
<stop offset="1" stop-color="#6599CD"/>
</linearGradient>
<linearGradient id="paint17_linear_662_1370" x1="51.94" y1="92.2839" x2="55.8908" y2="101.558" gradientUnits="userSpaceOnUse">
<stop stop-color="#40BD9E"/>
<stop offset="1" stop-color="#6599CD"/>
</linearGradient>
</defs>
</svg>
