 <svg
      className=''
      width="764"
      height="989"
      viewBox="0 0 764 989"
      fill="currentColor"
      xmlns="http://www.w3.org/2000/svg"
    >
      <path
        d="M238.107 943.837C233.542 941.181 227.346 947.49 229.955 952.139C233.216 957.452 241.694 956.456 241.694 951.143C241.694 948.486 240.063 945.166 238.107 943.837Z"
        fill="white"
      />
      <path
        d="M231.912 960.774C228.325 963.098 220.825 985.68 223.108 987.672C224.086 988.668 227.021 982.359 229.629 974.057C232.564 965.755 233.542 959.778 231.912 960.774Z"
        fill="currentColor"
      />
      <path
        d="M213.328 940.184C206.481 937.196 199.633 934.871 198.329 935.203C194.09 936.531 160.505 924.909 161.483 922.916C162.135 921.92 158.874 920.924 154.309 920.924C149.418 920.592 141.918 919.596 137.679 917.935C132.788 916.275 130.832 916.275 132.136 918.599C133.114 920.26 141.266 923.58 150.396 925.905C165.07 929.558 167.678 931.55 177.134 947.822C189.525 968.743 193.438 970.735 205.177 963.762C213.328 959.113 210.068 959.445 198.003 964.426C195.068 965.422 191.808 963.098 189.199 958.781C187.243 954.464 182.678 948.154 179.417 944.501C173.547 938.524 171.265 932.547 174.526 932.547C175.504 932.547 179.417 933.875 183.982 935.535C198.981 941.513 225.393 948.818 225.393 947.158C225.393 946.162 219.85 943.173 213.328 940.184Z"
        fill="currentColor"
      />
      <path
        d="M218.866 957.453C216.257 955.792 215.279 956.124 216.909 958.449C218.866 962.102 200.279 974.388 195.062 973.06C193.758 972.728 195.062 976.049 197.997 980.698C204.192 990.328 206.475 991.324 203.54 983.687C202.236 979.702 204.844 975.053 212.344 969.075C220.17 962.434 222.126 959.445 218.866 957.453Z"
        fill="currentColor"
      />
      <path
        d="M193.439 979.037C191.808 979.037 188.547 981.362 186.265 984.018C183.982 986.675 183.656 988.999 185.613 988.999C187.243 988.999 190.504 986.675 192.786 984.018C195.069 981.362 195.395 979.037 193.439 979.037Z"
        fill="currentColor"
      />
      <path
        d="M177.459 974.389C170.611 977.377 163.111 980.366 161.155 981.362C158.872 982.358 156.916 984.351 156.916 986.011C156.916 987.672 164.416 985.347 173.22 980.698C192.458 970.736 195.067 966.751 177.459 974.389Z"
        fill="currentColor"
      />
      <path
        d="M153.008 900.003C149.421 894.026 145.508 889.709 144.856 890.705C143.878 891.369 147.138 898.011 151.703 904.984C161.812 919.596 162.79 915.943 153.008 900.003Z"
        fill="currentColor"
      />
      <path
        d="M141.59 874.766C138.003 871.113 134.09 872.773 134.09 877.754C134.09 880.411 135.394 882.736 137.025 882.736C141.263 882.736 144.198 877.422 141.59 874.766Z"
        fill="currentColor"
      />
      <path
        d="M131.807 885.06C130.829 883.732 126.916 885.392 123.003 888.713C104.743 902.992 94.309 912.955 95.6133 914.283C96.2654 914.947 101.157 911.626 106.374 906.645C111.917 901.664 119.091 895.355 122.351 892.698C128.221 888.049 128.221 888.381 125.938 896.019C123.33 905.317 124.96 904.653 130.177 894.026C132.134 890.042 133.112 886.057 131.807 885.06Z"
        fill="currentColor"
      />
      <path
        d="M122.678 83.0945C118.113 78.4454 114.2 76.785 112.896 79.1096C111.918 80.77 112.896 83.4266 115.831 84.4228C118.439 85.419 119.744 88.4077 118.765 91.0643C117.787 93.7209 119.092 95.7134 122.026 95.7134C130.504 95.7134 130.83 91.0643 122.678 83.0945Z"
        fill="currentColor"
      />
      <path
        d="M120.724 907.309C115.181 903.988 108.985 911.626 113.55 916.275C117.463 920.26 124.311 917.604 124.311 912.622C124.311 910.962 122.68 908.638 120.724 907.309Z"
        fill="currentColor"
      />
      <path
        d="M115.506 753.889C112.245 754.554 109.963 757.21 110.615 759.535C111.267 762.191 109.311 766.508 107.028 769.497C104.419 772.486 93.659 789.754 83.2246 808.018C72.7903 826.282 62.3559 842.886 59.7473 844.878C54.2041 848.863 57.4648 857.165 63.3341 855.173C65.6166 854.509 78.6596 858.162 93.0068 863.475C107.028 868.788 119.419 872.441 120.071 871.445C121.701 870.116 91.7025 857.829 77.3553 854.177C73.1163 853.18 68.5513 850.524 67.8992 848.199C65.9427 843.55 108.984 769.829 116.158 765.844C123.006 761.859 122.353 752.561 115.506 753.889Z"
        fill="currentColor"
      />
      <path
        d="M101.483 948.154C87.1359 979.038 82.5709 992.321 87.788 987.339C91.3749 983.687 114.526 927.898 114.2 923.581C114.2 922.252 108.331 933.211 101.483 948.154Z"
        fill="currentColor"
      />
      <path
        d="M85.1796 0.0755428C68.876 0.40762 59.0938 1.73593 59.0938 4.06046C59.0938 6.385 68.876 8.04538 85.1796 8.04538C105.396 8.70954 111.266 7.71331 111.266 4.06046C111.266 0.407619 105.396 -0.256534 85.1796 0.0755428Z"
        fill="currentColor"
      />
      <path
        d="M108.657 55.8641C106.048 50.2188 98.2227 47.5621 98.2227 52.5433C98.2227 54.5358 98.2227 56.8603 98.2227 58.5207C98.2227 59.849 101.157 61.1773 104.744 61.1773C108.331 61.5094 111.266 61.5094 110.94 61.1773C110.94 61.1773 109.961 58.5207 108.657 55.8641Z"
        fill="currentColor"
      />
      <path
        d="M106.701 580.546C104.092 580.546 101.157 581.874 100.179 583.534C97.8967 587.187 106.049 594.493 108.983 591.504C112.896 587.519 111.266 580.546 106.701 580.546Z"
        fill="currentColor"
      />
      <path
        d="M106.049 204.303C101.484 199.986 99.2012 201.978 99.2012 210.28C99.2012 215.261 100.505 218.25 102.788 217.586C107.027 216.257 109.309 207.623 106.049 204.303Z"
        fill="currentColor"
      />
      <path
        d="M94.3097 743.928C67.5717 727.656 44.7465 716.365 49.3116 721.015C54.5287 726.66 104.744 754.886 104.744 752.23C104.744 751.233 99.853 747.581 94.3097 743.928Z"
        fill="currentColor"
      />
      <path
        d="M99.8529 761.859C93.3314 759.535 68.8759 763.188 68.8759 766.508C68.8759 767.837 74.4191 767.837 81.2667 766.176C100.505 761.527 101.157 762.856 83.5492 769.829C74.7452 773.482 66.9194 776.471 66.5933 776.471C65.9412 776.471 65.6151 773.482 65.6151 769.497C65.6151 764.848 63.9848 763.188 60.0719 763.852C51.594 765.512 50.9418 773.482 59.0937 775.474C65.2891 777.135 64.3108 778.463 50.2897 785.105C21.5952 799.384 13.7694 801.044 6.59579 794.403C3.00898 791.082 0.400391 790.418 0.400391 792.742C0.400391 794.735 2.68291 797.392 5.61757 798.72C10.5087 800.712 10.8347 801.044 5.94364 804.697C1.05254 808.35 1.05254 809.346 5.2915 814.992C9.85653 820.969 10.5087 820.969 14.4216 815.656C18.3344 810.343 20.2909 811.339 34.6381 826.282C43.4421 835.58 52.2461 842.886 54.2025 842.886C55.8329 842.886 48.6593 834.916 37.8989 824.954C27.1384 815.324 16.378 808.018 14.4216 808.682C12.139 809.678 11.1608 812.003 12.4651 813.995C13.4433 815.988 12.7912 816.32 10.8347 814.992C6.26972 812.003 9.53045 803.037 15.3998 803.037C18.6605 803.037 100.179 767.837 104.092 764.848C104.744 764.516 102.788 763.188 99.8529 761.859Z"
        fill="currentColor"
      />
      <path
        d="M95.9401 376.983C93.0054 374.99 78.6582 380.304 78.6582 382.96C78.6582 384.289 80.2886 383.957 81.9189 382.96C83.8754 381.964 85.1797 382.628 85.1797 384.289C85.1797 386.281 88.1143 387.941 91.7012 387.941C97.8966 387.941 100.831 379.972 95.9401 376.983Z"
        fill="currentColor"
      />
      <path
        d="M79.3099 521.436C69.2017 498.855 60.3977 481.919 59.7455 483.579C59.0934 486.236 93.3311 566.266 96.9179 570.251C102.135 575.896 94.9615 555.972 79.3099 521.436Z"
        fill="currentColor"
      />
      <path
        d="M77.0286 560.289C65.2899 550.991 54.5295 541.029 52.573 538.04C50.2905 534.055 49.3123 539.036 48.9862 555.64C48.6602 568.591 48.6602 579.882 48.6602 580.878C48.9862 582.206 49.3123 588.184 49.9645 594.493C50.6166 604.456 51.5948 605.784 58.1163 604.456C62.3553 603.791 66.5942 601.467 67.5724 599.807C68.5507 598.146 65.9421 597.814 61.051 599.142L52.573 601.135L52.573 572.244V543.021L60.3988 550.991C69.5289 560.621 98.2234 581.874 98.2234 579.218C98.2234 578.222 88.7672 569.588 77.0286 560.289Z"
        fill="currentColor"
      />
      <path
        d="M92.356 592.501C89.0953 591.172 82.5738 591.836 78.3349 593.829C71.8134 596.818 72.1395 596.818 81.9217 595.157C92.6821 593.165 93.0082 593.165 88.4432 599.142C83.8781 605.12 83.8781 605.12 90.0735 600.47C93.6603 597.814 96.9211 595.489 97.5732 595.157C98.2254 594.825 95.9428 593.497 92.356 592.501Z"
        fill="currentColor"
      />
      <path
        d="M91.3744 352.741C86.8094 350.084 80.614 356.394 83.2226 361.043C84.5269 363.035 87.7876 364.696 90.3962 364.696C95.6134 364.696 96.5916 356.062 91.3744 352.741Z"
        fill="currentColor"
      />
      <path
        d="M86.4815 920.592C83.5469 921.588 80.6122 922.585 79.9601 922.585C79.3079 922.585 78.6558 924.909 78.6558 927.566C78.6558 930.222 77.3515 932.547 75.395 932.547C73.7647 932.547 58.4392 945.166 41.1573 960.773C24.2015 976.381 11.4846 989 13.441 989C15.3975 989 23.8754 982.691 32.3533 974.721C40.8312 966.751 52.896 955.46 59.0914 949.815C65.2868 943.838 75.395 935.868 80.9383 931.551C92.0248 923.913 95.6116 916.939 86.4815 920.592Z"
        fill="currentColor"
      />
      <path
        d="M81.2654 56.1965C77.6786 54.8682 70.505 54.5361 65.94 55.2002C56.4838 57.1927 58.4403 58.1889 76.3743 59.8493C90.0694 61.1776 91.6998 60.1814 81.2654 56.1965Z"
        fill="currentColor"
      />
      <path
        d="M78.3303 106.34C73.1131 108.333 69.2002 110.325 69.8524 110.989C71.4827 112.65 88.4386 106.672 88.4386 104.348C88.4386 103.351 83.8735 104.348 78.3303 106.34Z"
        fill="currentColor"
      />
      <path
        d="M69.204 319.201C48.3353 282.008 44.7485 280.016 63.9868 316.544C81.5948 350.084 81.5948 349.752 83.2252 347.76C83.8773 347.095 77.6819 334.144 69.204 319.201Z"
        fill="currentColor"
      />
      <path
        d="M79.6335 196.333C77.677 190.356 68.873 191.02 68.873 196.665C68.873 202.974 75.0684 206.959 78.6553 203.307C79.9596 201.646 80.2856 198.325 79.6335 196.333Z"
        fill="currentColor"
      />
      <path
        d="M76.0503 605.119C72.1374 605.119 69.8549 607.112 70.507 610.433C70.8331 613.089 73.1156 615.414 75.7242 615.414C78.0067 615.414 80.6153 613.089 81.2675 610.433C81.9196 607.112 79.6371 605.119 76.0503 605.119Z"
        fill="currentColor"
      />
      <path
        d="M74.748 373.994C71.8133 376.319 60.4007 389.602 49.3142 403.881L29.0977 429.451L50.9446 406.205C71.8133 383.956 86.4866 364.032 74.748 373.994Z"
        fill="currentColor"
      />
      <path
        d="M66.9217 419.156C56.4874 450.704 54.5309 462.99 62.3567 448.047C64.3131 444.062 65.2913 441.073 64.3131 441.073C63.3349 441.073 66.2696 430.447 70.8346 417.164C75.0736 404.213 78.6604 391.926 78.3343 389.934C78.3343 387.941 73.1171 401.224 66.9217 419.156Z"
        fill="currentColor"
      />
      <path
        d="M70.1783 355.398C66.2654 355.066 58.1135 353.737 52.2442 352.741C43.7663 351.081 42.1359 351.413 44.7445 354.401C47.027 356.726 54.2006 358.054 62.6786 357.058C70.5043 356.394 73.7651 355.73 70.1783 355.398Z"
        fill="currentColor"
      />
      <path
        d="M69.8575 927.234C40.1848 936.864 8.8817 945.498 8.22956 944.834C7.57741 944.17 13.7728 932.547 22.2507 918.932C47.6845 877.754 55.8363 862.811 53.2277 862.811C50.2931 862.811 -0.574431 949.151 1.05594 951.143C3.01238 952.804 75.4007 929.558 75.4007 927.234C75.4007 926.237 72.7921 926.237 69.8575 927.234Z"
        fill="currentColor"
      />
      <path
        d="M69.2056 213.269C67.5752 214.598 63.0102 225.556 58.7712 237.843C54.8583 250.13 50.9454 262.417 49.9672 265.073C48.989 267.73 49.3151 269.058 50.6194 268.062C54.2062 264.741 72.4663 211.277 69.2056 213.269Z"
        fill="currentColor"
      />
      <path
        d="M61.7027 33.9473C54.203 27.6378 54.203 27.6378 60.0724 34.6114C63.007 38.2643 64.6374 42.5813 63.3331 43.5775C62.3549 44.9058 63.007 45.9021 64.9635 45.9021C71.1589 45.9021 69.5285 40.9209 61.7027 33.9473Z"
        fill="currentColor"
      />
      <path
        d="M65.6146 165.45C62.68 161.133 62.3539 161.133 62.68 165.45C62.68 168.107 63.9843 173.42 65.6146 177.073C68.5493 183.714 68.5493 183.714 68.5493 177.073C68.5493 173.42 67.245 168.107 65.6146 165.45Z"
        fill="currentColor"
      />
      <path
        d="M63.984 205.299C59.419 205.299 16.0512 232.197 17.6815 233.858C18.6598 234.854 29.4202 229.208 41.4849 221.571C66.5926 206.295 67.8969 205.299 63.984 205.299Z"
        fill="currentColor"
      />
      <path
        d="M56.8111 617.738C45.7246 622.055 42.1378 630.357 50.9418 630.357C53.5504 630.357 55.8329 628.697 55.8329 626.704C55.8329 624.38 58.4415 620.727 61.7022 618.402C66.2672 614.75 65.6151 614.417 56.8111 617.738Z"
        fill="currentColor"
      />
      <path
        d="M59.0934 908.305C54.5284 906.977 46.7026 906.312 41.1594 906.312C32.3554 906.645 32.6815 906.977 44.4201 909.633C59.0934 913.286 72.1364 911.958 59.0934 908.305Z"
        fill="currentColor"
      />
      <path
        d="M48.9865 175.744C41.8129 169.767 35.2914 165.45 34.3132 166.446C33.3349 167.11 38.5521 172.755 46.0518 178.733C53.5515 184.71 60.073 188.695 60.7251 188.031C61.7033 187.035 56.4862 181.721 48.9865 175.744Z"
        fill="currentColor"
      />
      <path
        d="M52.5723 464.319C48.9854 464.319 46.0508 466.644 46.0508 469.3C46.0508 471.957 48.9854 474.282 52.5723 474.282C56.1591 474.282 59.0937 471.957 59.0937 469.3C59.0937 466.644 56.1591 464.319 52.5723 464.319Z"
        fill="currentColor"
      />
      <path
        d="M46.0478 0.739432C39.8524 0.407355 36.2656 2.06774 36.2656 4.72435C36.2656 7.71304 39.8524 9.37343 46.0478 9.37343C59.0908 9.37343 59.0908 1.07151 46.0478 0.739432Z"
        fill="currentColor"
      />
      <path
        d="M50.6168 117.298C47.356 110.325 46.7039 109.661 48.0082 115.306C49.3125 120.619 48.9864 122.28 46.3778 120.951C44.4214 119.623 42.791 119.955 42.791 121.615C42.791 124.604 52.5732 130.249 54.5297 128.257C54.8557 127.593 53.2254 122.944 50.6168 117.298Z"
        fill="currentColor"
      />
      <path
        d="M52.5737 490.885C48.3348 497.526 48.3348 518.447 52.5737 515.79C54.5302 514.794 55.8345 507.488 55.8345 499.851C55.8345 489.556 54.8563 487.232 52.5737 490.885Z"
        fill="currentColor"
      />
      <path
        d="M50.2907 277.027C46.7039 273.375 42.791 275.035 42.791 280.016C42.791 282.673 44.0953 284.997 45.7257 284.997C49.9646 284.997 52.8993 279.684 50.2907 277.027Z"
        fill="currentColor"
      />
      <path
        d="M45.722 90.4004C40.1788 87.0796 33.9834 94.7174 38.5484 99.3665C42.4613 103.351 49.3088 100.695 49.3088 95.7136C49.3088 94.0532 47.6784 91.7287 45.722 90.4004Z"
        fill="currentColor"
      />
      <path
        d="M46.0508 653.602C43.4422 653.602 39.5294 677.18 41.4858 679.836C43.7683 682.493 45.0726 678.84 47.029 666.221C48.0073 659.248 47.6812 653.602 46.0508 653.602Z"
        fill="currentColor"
      />
      <path
        d="M36.2694 771.822C28.1176 772.818 19.3136 775.143 16.705 776.803C13.7703 778.795 17.3572 779.127 26.4872 777.799C34.6391 776.471 43.4431 774.146 46.0516 772.486C49.3124 770.493 45.7256 770.493 36.2694 771.822Z"
        fill="currentColor"
      />
      <path
        d="M41.487 499.519C36.5959 501.511 36.2698 496.198 40.8348 487.564C42.1391 484.908 40.1827 486.236 36.5959 490.553C31.3787 496.53 30.4005 499.519 33.3351 502.84C36.9219 507.157 46.052 505.828 46.052 500.515C46.052 499.187 44.0955 498.523 41.487 499.519Z"
        fill="currentColor"
      />
      <path
        d="M37.2473 529.074L28.1172 523.096L35.943 532.062C44.4209 541.36 46.0512 542.357 46.0512 537.708C46.0512 536.047 42.1384 532.062 37.2473 529.074Z"
        fill="currentColor"
      />
      <path
        d="M42.7889 604.455C40.1803 605.451 29.4199 608.772 18.6594 611.761C8.22508 615.081 0.399314 618.402 1.37754 619.398C3.66005 621.723 40.1803 610.432 44.4193 606.115C46.7018 603.791 46.0496 603.459 42.7889 604.455Z"
        fill="currentColor"
      />
      <path
        d="M43.7697 850.523C43.1175 848.199 36.9221 846.206 30.4006 846.539C19.6402 846.539 18.9881 846.871 25.8356 849.859C30.0746 851.52 34.9657 852.184 36.27 851.188C37.9003 850.191 39.8568 850.856 41.1611 852.848C42.1393 854.508 39.2046 856.833 34.6396 858.161C30.0746 859.157 26.8138 860.818 27.466 861.814C29.7485 863.807 46.0522 859.157 45.7261 856.501C45.7261 855.505 44.7479 852.516 43.7697 850.523Z"
        fill="currentColor"
      />
      <path
        d="M37.5719 338.794C30.7243 340.122 30.0722 346.1 37.2458 347.428C40.5066 348.092 42.7891 346.432 42.7891 343.111C42.7891 339.79 40.8326 338.13 37.5719 338.794Z"
        fill="currentColor"
      />
      <path
        d="M40.185 642.312C33.9896 648.954 16.3816 683.49 18.9902 683.49C20.2945 683.49 26.4899 674.523 32.3592 663.897C42.4675 644.637 45.7282 635.67 40.185 642.312Z"
        fill="currentColor"
      />
      <path
        d="M37.9017 710.055C34.9671 710.055 33.0106 711.716 33.6628 713.708C34.3149 715.7 36.2714 717.361 37.9017 717.361C39.5321 717.361 41.4885 715.7 42.1407 713.708C42.7928 711.716 40.8364 710.055 37.9017 710.055Z"
        fill="currentColor"
      />
      <path
        d="M19.9648 484.243C9.20438 489.889 0.400391 495.202 0.400391 495.866C0.400391 496.862 9.20438 493.209 19.9648 487.564C30.7252 481.919 39.5292 476.606 39.5292 475.941C39.5292 474.945 30.7252 478.598 19.9648 484.243Z"
        fill="currentColor"
      />
      <path
        d="M37.5717 626.704C27.1374 625.708 4.96435 628.032 2.35576 630.357C0.725394 632.017 7.89901 632.349 18.6594 631.353C36.2674 629.693 45.0714 627.368 37.5717 626.704Z"
        fill="currentColor"
      />
      <path
        d="M32.3573 684.154C26.4879 686.146 25.5097 693.452 31.053 693.452C33.9876 693.452 36.2702 691.127 36.2702 688.139C36.2702 685.15 34.6398 683.49 32.3573 684.154Z"
        fill="currentColor"
      />
      <path
        d="M32.6829 867.792C30.7265 866.463 27.7918 867.46 26.1615 869.784C21.9225 876.758 22.5747 880.079 28.7701 878.75C35.2915 877.422 37.9001 870.78 32.6829 867.792Z"
        fill="currentColor"
      />
      <path
        d="M29.7471 2.40001C16.7042 0.739625 8.87839 1.73586 7.90017 5.3887C6.92195 8.04531 10.5088 9.37362 19.6388 9.37362C27.1385 9.37362 33.0078 8.04531 33.0078 6.05285C33.0078 4.39247 31.7036 2.40001 29.7471 2.40001Z"
        fill="currentColor"
      />
      <path
        d="M30.3991 80.7699C29.0948 79.1095 21.5951 72.468 13.4433 66.1585C0.400303 56.1962 -0.251845 55.8642 6.92178 63.834C14.4215 72.468 33.0077 87.7435 33.0077 85.0869C33.0077 84.4227 31.7034 82.7624 30.3991 80.7699Z"
        fill="currentColor"
      />
      <path
        d="M22.2483 115.306C15.4008 121.616 10.1836 128.257 10.1836 129.918C10.1836 134.567 19.3137 126.265 27.1394 114.31L33.987 104.016L22.2483 115.306Z"
        fill="currentColor"
      />
      <path
        d="M29.7487 128.922C26.1619 140.212 26.1619 148.846 29.7487 140.544C31.3791 136.892 32.3573 130.914 32.3573 127.261C32.3573 121.948 31.7051 122.28 29.7487 128.922Z"
        fill="currentColor"
      />
      <path
        d="M30.3982 265.073C28.1156 265.073 26.8114 261.752 27.4635 258.1C27.7896 254.115 26.1592 250.13 24.2028 249.466C18.3334 247.141 18.9856 260.092 24.8549 265.073C27.7896 267.398 30.7242 268.394 32.0285 267.066C33.0067 266.069 32.3546 265.073 30.3982 265.073Z"
        fill="currentColor"
      />
      <path
        d="M25.8341 288.318C21.5951 292.967 13.7693 299.941 8.22607 304.258C3.0089 308.243 1.7046 310.235 5.29141 308.575C16.3779 303.262 31.3773 290.311 32.3555 284.997C33.0077 282.341 30.3991 283.669 25.8341 288.318Z"
        fill="currentColor"
      />
      <path
        d="M23.2246 152.167C19.6378 152.167 16.7031 154.491 16.7031 157.148C16.7031 159.804 19.6378 162.129 23.2246 162.129C26.8114 162.129 29.7461 159.804 29.7461 157.148C29.7461 154.491 26.8114 152.167 23.2246 152.167Z"
        fill="currentColor"
      />
      <path
        d="M27.4626 433.104C23.8758 429.451 19.9629 431.111 19.9629 436.093C19.9629 438.749 21.2672 441.074 22.8976 441.074C27.1365 441.074 30.0712 435.761 27.4626 433.104Z"
        fill="currentColor"
      />
      <path
        d="M25.836 717.029C18.9884 716.697 2.35867 723.006 4.31511 724.999C5.29333 725.995 11.4887 724.667 18.6624 722.01C25.5099 719.354 28.7706 717.029 25.836 717.029Z"
        fill="currentColor"
      />
      <path
        d="M18.661 740.274L8.55273 732.305L17.3567 741.603C22.2478 746.916 26.8129 750.569 27.465 749.573C28.4432 748.908 24.2043 744.591 18.661 740.274Z"
        fill="currentColor"
      />
      <path
        d="M23.8787 512.802C19.6397 510.145 12.4661 516.454 14.7486 520.439C18.0094 525.753 26.4873 525.088 26.4873 519.443C26.4873 516.787 25.183 513.798 23.8787 512.802Z"
        fill="currentColor"
      />
      <path
        d="M13.7708 91.3968C7.57536 90.0685 2.03211 89.7365 1.05389 90.7327C-2.53293 94.0535 3.3364 96.0459 14.0968 95.0497L24.8573 94.0535L13.7708 91.3968Z"
        fill="currentColor"
      />
      <path
        d="M16.7073 286.658C3.66439 290.643 -2.53101 295.292 8.5555 292.967C14.0988 291.639 19.9681 289.314 21.5984 287.654C23.881 285.33 21.9245 284.997 16.7073 286.658Z"
        fill="currentColor"
      />
      <path
        d="M11.1625 348.092C-2.85869 348.092 -2.20654 349.752 12.7928 352.409C18.6622 353.737 23.2272 353.073 23.2272 351.413C23.2272 349.42 18.01 348.092 11.1625 348.092Z"
        fill="currentColor"
      />
      <path
        d="M16.7065 864.803C12.1415 865.799 6.27218 868.124 3.66359 869.784C-0.575364 872.109 -0.575364 872.441 3.66359 872.441C6.27218 872.441 12.1415 870.448 16.7065 867.46L24.8584 862.479L16.7065 864.803Z"
        fill="currentColor"
      />
      <path
        d="M14.7465 177.072C9.20324 187.035 -0.252898 218.914 1.70354 221.239C2.68177 222.235 7.89894 207.291 18.3333 173.752C19.3115 170.099 18.0072 171.427 14.7465 177.072Z"
        fill="currentColor"
      />
      <path
        d="M15.3994 904.985C12.1386 903.657 8.55181 903.324 7.57359 904.321C4.63892 907.309 9.53003 909.966 15.7254 908.638C21.2687 907.641 21.2687 907.309 15.3994 904.985Z"
        fill="currentColor"
      />
      <path
        d="M11.4879 528.078C4.64036 529.406 3.98822 535.383 11.1618 536.712C14.4226 537.376 16.7051 535.715 16.7051 532.395C16.7051 529.074 14.7486 527.414 11.4879 528.078Z"
        fill="currentColor"
      />
      <path
        d="M6.92186 237.51C3.33505 238.507 0.400391 241.495 0.400391 243.82C0.400391 250.461 6.26972 249.465 9.85653 242.159C12.7912 236.846 12.4651 236.182 6.92186 237.51Z"
        fill="currentColor"
      />
      <path
        d="M7.2473 444.394C2.68226 444.394 1.70404 446.387 3.00834 452.696C3.98656 459.337 5.29085 460.334 8.87766 457.345C15.3991 452.032 14.4209 444.394 7.2473 444.394Z"
        fill="currentColor"
      />
      <path
        d="M8.55408 696.772C5.61941 696.772 3.66297 698.433 4.31512 700.425C4.96726 702.418 6.92371 704.078 8.55408 704.078C10.1844 704.078 12.1409 702.418 12.793 700.425C13.4452 698.433 11.4887 696.772 8.55408 696.772Z"
        fill="currentColor"
      />
      <path
        d="M703.578 745.653C700.969 750.302 707.165 756.611 711.73 753.955C716.947 750.634 715.969 742 710.752 742C708.143 742 704.882 743.66 703.578 745.653Z"
        fill="currentColor"
      />
      <path
        d="M720.208 751.963C722.491 755.615 744.664 763.253 746.62 760.929C747.598 759.932 741.403 756.944 733.251 754.287C725.099 751.298 719.23 750.302 720.208 751.963Z"
        fill="currentColor"
      />
      <path
        d="M699.991 770.89C697.056 777.863 694.773 784.837 695.1 786.165C696.404 790.482 684.991 824.686 683.035 823.69C682.057 823.026 681.078 826.346 681.078 830.995C680.752 835.977 679.774 843.614 678.144 847.931C676.513 852.912 676.513 854.905 678.796 853.577C680.426 852.58 683.687 844.278 685.969 834.98C689.556 820.037 691.513 817.38 707.49 807.75C728.033 795.131 729.989 791.146 723.142 779.191C718.577 770.89 718.903 774.21 723.794 786.497C724.772 789.486 722.49 792.807 718.251 795.463C714.012 797.456 707.816 802.105 704.23 805.425C698.36 811.403 692.491 813.727 692.491 810.407C692.491 809.41 693.795 805.425 695.426 800.776C701.295 785.501 708.469 758.603 706.838 758.603C705.86 758.603 702.925 764.248 699.991 770.89Z"
        fill="currentColor"
      />
      <path
        d="M716.945 765.248C715.314 767.905 715.64 768.901 717.923 767.24C721.51 765.248 733.575 784.176 732.27 789.49C731.944 790.818 735.205 789.49 739.77 786.501C749.226 780.191 750.204 777.867 742.705 780.856C738.792 782.184 734.227 779.527 728.357 771.889C721.836 763.92 718.901 761.927 716.945 765.248Z"
        fill="currentColor"
      />
      <path
        d="M738.143 791.144C738.143 792.805 740.425 796.126 743.034 798.45C745.642 800.775 747.925 801.107 747.925 799.114C747.925 797.454 745.642 794.133 743.034 791.809C740.425 789.484 738.143 789.152 738.143 791.144Z"
        fill="currentColor"
      />
      <path
        d="M733.577 807.419C736.512 814.393 739.447 822.031 740.425 824.023C741.403 826.348 743.36 828.34 744.99 828.34C746.62 828.34 744.338 820.702 739.773 811.736C729.991 792.144 726.078 789.487 733.577 807.419Z"
        fill="currentColor"
      />
      <path
        d="M660.534 832.321C654.665 835.974 650.426 839.959 651.404 840.623C652.056 841.619 658.578 838.298 665.426 833.649C679.773 823.355 676.186 822.359 660.534 832.321Z"
        fill="currentColor"
      />
      <path
        d="M635.754 843.95C632.167 847.603 633.798 851.588 638.689 851.588C641.297 851.588 643.58 850.259 643.58 848.599C643.58 844.282 638.363 841.293 635.754 843.95Z"
        fill="currentColor"
      />
      <path
        d="M645.864 853.911C644.56 854.907 646.19 858.892 649.451 862.877C663.472 881.473 673.255 892.1 674.559 890.771C675.211 890.107 671.95 885.126 667.059 879.813C662.168 874.167 655.973 866.862 653.364 863.541C648.799 857.564 649.125 857.564 656.625 859.888C665.755 862.545 665.103 860.884 654.668 855.571C650.755 853.579 646.843 852.582 645.864 853.911Z"
        fill="currentColor"
      />
      <path
        d="M667.707 865.197C664.447 870.843 671.946 877.152 676.511 872.503C680.424 868.518 677.816 861.545 672.925 861.545C671.294 861.545 669.012 863.205 667.707 865.197Z"
        fill="currentColor"
      />
      <path
        d="M517.062 870.513C517.714 873.834 520.323 876.158 522.605 875.494C525.214 874.83 529.453 876.823 532.387 879.147C535.322 881.804 552.278 892.762 570.212 903.389C588.146 914.015 604.45 924.642 606.406 927.298C610.319 932.943 618.471 929.623 616.514 923.645C615.862 921.321 619.449 908.038 624.666 893.426C629.883 879.147 633.47 866.528 632.492 865.864C631.188 864.204 619.123 894.755 615.536 909.366C614.558 913.683 611.949 918.332 609.667 918.996C605.102 920.989 532.713 877.155 528.801 869.849C524.888 862.875 515.758 863.539 517.062 870.513Z"
        fill="currentColor"
      />
      <path
        d="M707.817 884.791C738.141 899.402 751.184 904.051 746.293 898.738C742.706 895.085 687.926 871.508 683.687 871.84C682.383 871.84 693.143 877.817 707.817 884.791Z"
        fill="currentColor"
      />
      <path
        d="M346.854 879.48C346.854 882.137 348.158 885.125 349.788 886.122C353.375 888.446 360.549 880.144 357.614 877.156C353.701 873.171 346.854 874.831 346.854 879.48Z"
        fill="currentColor"
      />
      <path
        d="M507.282 892.098C491.304 919.328 480.218 942.573 484.783 937.924C490.326 932.611 518.042 881.471 515.434 881.471C514.456 881.471 510.869 886.452 507.282 892.098Z"
        fill="currentColor"
      />
      <path
        d="M524.888 886.453C522.606 893.095 526.192 918.001 529.453 918.001C530.757 918.001 530.757 912.355 529.127 905.382C524.562 885.789 525.866 885.125 532.714 903.057C536.301 912.023 539.235 919.993 539.235 920.325C539.235 920.989 536.301 921.321 532.388 921.321C527.823 921.321 526.192 922.982 526.845 926.967C528.475 935.601 536.301 936.265 538.257 927.963C539.888 921.653 541.192 922.65 547.713 936.929C561.734 966.152 563.365 974.122 556.843 981.427C553.583 985.08 552.931 987.737 555.213 987.737C557.169 987.737 559.778 985.412 561.082 982.423C563.039 977.442 563.365 977.11 566.952 982.091C570.538 987.073 571.517 987.073 577.06 982.756C582.929 978.106 582.929 977.442 577.712 973.457C572.495 969.472 573.473 967.48 588.146 952.869C597.277 943.903 604.45 934.936 604.45 932.944C604.45 931.284 596.624 938.589 586.842 949.548C577.386 960.506 570.212 971.465 570.865 973.457C571.843 975.782 574.125 976.778 576.082 975.45C578.038 974.454 578.364 975.118 577.06 977.11C574.125 981.759 565.321 978.439 565.321 972.461C565.321 969.14 530.757 886.121 527.823 882.136C527.497 881.472 526.192 883.465 524.888 886.453Z"
        fill="currentColor"
      />
      <path
        d="M288.808 907.374C266.635 917.668 250.005 926.634 251.636 927.299C254.244 927.963 332.828 893.095 336.741 889.442C342.284 884.129 322.72 891.434 288.808 907.374Z"
        fill="currentColor"
      />
      <path
        d="M326.964 909.697C317.834 921.652 308.052 932.611 305.117 934.603C301.204 936.928 306.095 937.924 322.399 938.256C335.116 938.588 346.202 938.588 347.18 938.588C348.485 938.256 354.354 937.924 360.549 937.26C370.332 936.596 371.636 935.599 370.332 928.958C369.679 924.641 367.397 920.324 365.767 919.328C364.136 918.331 363.81 920.988 365.114 925.969L367.071 934.603H338.702H310.008L317.834 926.633C327.29 917.335 348.159 888.112 345.55 888.112C344.572 888.112 336.094 897.743 326.964 909.697Z"
        fill="currentColor"
      />
      <path
        d="M358.593 894.087C357.288 897.408 357.94 904.049 359.897 908.366C362.832 915.008 362.832 914.676 361.201 904.714C359.245 893.755 359.245 893.423 365.114 898.072C370.983 902.721 370.983 902.721 366.418 896.412C363.81 892.759 361.527 889.438 361.201 888.774C360.875 888.11 359.571 890.434 358.593 894.087Z"
        fill="currentColor"
      />
      <path
        d="M680.751 900.069C681.729 903.058 682.708 906.046 682.708 906.711C682.708 907.375 684.99 908.039 687.599 908.039C690.207 908.039 692.49 909.367 692.49 911.36C692.49 913.02 704.881 928.628 720.206 946.228C735.532 963.496 747.922 976.447 747.922 974.454C747.922 972.462 741.727 963.828 733.901 955.194C726.075 946.56 714.989 934.273 709.446 927.963C703.576 921.654 695.751 911.36 691.512 905.714C684.012 894.424 677.164 890.771 680.751 900.069Z"
        fill="currentColor"
      />
      <path
        d="M370.982 910.695C370.982 914.68 372.939 917.004 376.2 916.34C378.808 916.008 381.091 913.683 381.091 911.027C381.091 908.702 378.808 906.046 376.2 905.381C372.939 904.717 370.982 907.042 370.982 910.695Z"
        fill="currentColor"
      />
      <path
        d="M687.274 917.001C696.73 947.22 705.208 979.099 704.556 979.764C703.904 980.428 692.491 974.118 679.122 965.484C638.689 939.582 624.016 931.28 624.016 933.937C624.016 936.926 708.795 988.73 710.751 987.069C712.382 985.077 689.556 911.356 687.274 911.356C686.296 911.356 686.296 914.012 687.274 917.001Z"
        fill="currentColor"
      />
      <path
        d="M383.374 930.286C387.613 941.577 395.765 945.23 395.765 936.264C395.765 933.607 394.134 931.283 392.178 931.283C389.895 931.283 386.309 928.626 384.026 925.305C380.439 920.656 380.113 921.32 383.374 930.286Z"
        fill="currentColor"
      />
      <path
        d="M668.689 927.961C667.385 932.61 666.732 940.58 666.732 946.226C667.058 955.192 667.385 954.86 669.993 942.905C673.58 927.961 672.276 914.678 668.689 927.961Z"
        fill="currentColor"
      />
      <path
        d="M232.725 934.604C232.725 938.257 235.007 941.246 237.616 941.246C240.224 941.246 242.507 938.257 242.507 934.604C242.507 930.951 240.224 927.963 237.616 927.963C235.007 927.963 232.725 930.951 232.725 934.604Z"
        fill="currentColor"
      />
      <path
        d="M258.809 934.603C265.33 938.92 285.873 938.92 283.264 934.603C282.286 932.611 275.113 931.282 267.613 931.282C257.505 931.282 255.222 932.279 258.809 934.603Z"
        fill="currentColor"
      />
      <path
        d="M418.588 941.246C418.588 943.903 441.739 947.888 444.348 945.895C446.956 943.571 443.369 942.242 430.979 940.25C424.131 939.254 418.588 939.586 418.588 941.246Z"
        fill="currentColor"
      />
      <path
        d="M534.671 951.207C535.649 959.509 537.931 968.475 539.562 971.132C541.518 974.12 541.844 970.467 540.54 961.169C539.236 952.867 536.953 943.901 535.323 941.245C533.366 937.924 533.366 941.577 534.671 951.207Z"
        fill="currentColor"
      />
      <path
        d="M267.289 945.892C269.245 950.873 264.028 951.205 255.55 946.556C252.941 945.228 254.246 947.22 258.485 950.873C264.354 956.186 267.289 957.183 270.549 954.194C274.788 950.541 273.484 941.243 268.267 941.243C266.963 941.243 266.31 943.235 267.289 945.892Z"
        fill="currentColor"
      />
      <path
        d="M296.313 950.211L290.443 959.509L299.247 951.539C308.377 942.905 309.356 941.245 304.791 941.245C303.16 941.245 299.247 945.23 296.313 950.211Z"
        fill="currentColor"
      />
      <path
        d="M370.33 944.566C371.309 947.223 374.569 958.181 377.504 969.14C380.765 979.766 384.026 987.736 385.004 986.74C387.286 984.415 376.2 947.223 371.961 942.906C369.678 940.581 369.352 941.245 370.33 944.566Z"
        fill="currentColor"
      />
      <path
        d="M611.951 943.57C609.668 944.234 607.712 950.543 608.038 957.185C608.038 968.143 608.364 968.807 611.298 961.834C612.929 957.517 613.581 952.536 612.603 951.207C611.624 949.547 612.277 947.554 614.233 946.226C615.863 945.23 618.146 948.219 619.45 952.868C620.428 957.517 622.059 960.838 623.037 960.173C624.993 957.849 620.428 941.245 617.82 941.577C616.842 941.577 613.907 942.573 611.951 943.57Z"
        fill="currentColor"
      />
      <path
        d="M407.504 947.218C414.025 953.528 447.937 971.46 447.937 968.803C447.937 967.475 439.133 961.166 428.698 955.188C409.786 944.894 400.982 941.573 407.504 947.218Z"
        fill="currentColor"
      />
      <path
        d="M474.021 949.545C474.021 952.534 475.652 954.527 477.608 953.862C479.565 953.198 481.195 951.206 481.195 949.545C481.195 947.885 479.565 945.893 477.608 945.228C475.652 944.564 474.021 946.557 474.021 949.545Z"
        fill="currentColor"
      />
      <path
        d="M392.178 949.88C391.2 960.506 393.482 983.088 395.765 985.744C397.395 987.404 397.721 980.099 396.743 969.14C395.113 951.208 392.83 942.242 392.178 949.88Z"
        fill="currentColor"
      />
      <path
        d="M448.588 955.19C450.544 961.168 457.718 962.164 457.718 956.519C457.718 953.53 455.436 951.205 452.501 951.205C449.566 951.205 447.936 952.866 448.588 955.19Z"
        fill="currentColor"
      />
      <path
        d="M628.908 954.86C627.604 956.852 628.582 959.841 630.865 961.501C637.712 965.818 640.973 965.154 639.669 958.845C638.365 952.203 631.843 949.547 628.908 954.86Z"
        fill="currentColor"
      />
      <path
        d="M480.868 961.833C480.542 968.806 486.737 985.742 488.694 983.75C489.672 982.754 488.368 976.444 485.759 969.138C483.15 962.165 480.868 958.844 480.868 961.833Z"
        fill="currentColor"
      />
      <path
        d="M503.695 969.138L495.869 979.433L504.999 970.467C510.216 965.486 513.803 960.836 512.825 960.172C512.173 959.176 507.934 963.493 503.695 969.138Z"
        fill="currentColor"
      />
      <path
        d="M280.335 963.826C277.726 968.143 283.922 975.448 287.835 973.124C293.052 969.803 292.4 961.169 286.856 961.169C284.248 961.169 281.313 962.497 280.335 963.826Z"
        fill="currentColor"
      />
      <path
        d="M625.972 971.131C626.95 975.78 629.233 981.757 630.863 984.414C633.146 988.731 633.472 988.731 633.472 984.414C633.472 981.757 631.515 975.78 628.581 971.131L623.689 962.829L625.972 971.131Z"
        fill="currentColor"
      />
      <path
        d="M665.428 972.462C664.124 975.782 663.798 979.435 664.776 980.431C667.71 983.42 670.319 978.439 669.015 972.13C668.037 966.484 667.71 966.484 665.428 972.462Z"
        fill="currentColor"
      />
      <path
        d="M295.333 976.444C296.637 983.418 302.507 984.082 303.811 976.776C304.463 973.455 302.833 971.131 299.572 971.131C296.311 971.131 294.681 973.123 295.333 976.444Z"
        fill="currentColor"
      />
      <path
        d="M460.979 979.433C460.979 982.421 462.609 984.414 464.565 983.75C466.522 983.085 468.152 981.093 468.152 979.433C468.152 977.772 466.522 975.78 464.565 975.116C462.609 974.451 460.979 976.444 460.979 979.433Z"
        fill="currentColor"
      />
      <path
        d="M605.08 875.834C607.768 871.231 601.681 864.813 597.071 867.388C591.798 870.616 592.628 879.266 597.845 879.359C600.453 879.405 603.742 877.803 605.08 875.834Z"
        fill="currentColor"
      />
      <path
        d="M588.559 869.23C586.339 865.537 564.3 857.507 562.304 859.797C561.309 860.776 567.453 863.874 575.558 866.674C583.657 869.807 589.509 870.907 588.559 869.23Z"
        fill="currentColor"
      />
      <path
        d="M609.098 850.664C612.152 843.744 614.553 836.812 614.25 835.478C613.019 831.138 625.015 797.142 626.954 798.173C627.921 798.854 628.956 795.551 629.035 790.903C629.446 785.928 630.555 778.309 632.259 774.022C633.974 769.07 634.008 767.078 631.703 768.366C630.056 769.333 626.654 777.576 624.213 786.832C620.371 801.71 618.37 804.331 602.23 813.677C581.475 825.929 579.45 829.879 586.092 841.953C590.515 850.335 590.246 847.009 585.565 834.637C584.638 831.632 586.977 828.352 591.261 825.771C595.533 823.854 601.807 819.315 605.45 816.059C611.421 810.186 617.329 807.966 617.272 811.286C617.255 812.282 615.883 816.244 614.173 820.863C608.044 836.032 600.411 862.799 602.042 862.828C603.02 862.845 606.05 857.253 609.098 850.664Z"
        fill="currentColor"
      />
      <path
        d="M592.046 856.004C593.722 853.377 593.413 852.375 591.102 853.995C587.482 855.923 575.743 836.784 577.138 831.495C577.486 830.172 574.203 831.443 569.588 834.35C560.025 840.491 559.007 842.798 566.557 839.942C570.492 838.684 575.011 841.421 580.749 849.162C587.133 857.246 590.033 859.29 592.046 856.004Z"
        fill="currentColor"
      />
      <path
        d="M571.3 829.736C571.329 828.076 569.103 824.715 566.535 822.345C563.966 819.974 561.69 819.602 561.656 821.594C561.628 823.254 563.853 826.615 566.421 828.985C568.99 831.356 571.266 831.728 571.3 829.736Z"
        fill="currentColor"
      />
      <path
        d="M576.14 813.545C573.325 806.52 570.521 798.831 569.577 796.822C568.639 794.48 566.717 792.454 565.087 792.425C563.457 792.396 565.608 800.073 570.019 809.118C579.465 828.881 583.332 831.607 576.14 813.545Z"
        fill="currentColor"
      />
      <path
        d="M649.597 789.942C655.528 786.394 659.835 782.485 658.868 781.803C658.233 780.796 651.656 784 644.73 788.527C630.209 798.566 633.778 799.625 649.597 789.942Z"
        fill="currentColor"
      />
      <path
        d="M674.575 778.754C678.223 775.166 676.661 771.152 671.771 771.066C669.163 771.019 666.858 772.307 666.829 773.967C666.756 778.283 671.921 781.364 674.575 778.754Z"
        fill="currentColor"
      />
      <path
        d="M664.636 768.615C665.958 767.642 664.396 763.629 661.203 759.587C647.502 740.745 637.903 729.946 636.577 731.251C635.913 731.904 639.088 736.942 643.888 742.341C648.682 748.072 654.751 755.487 657.303 758.853C661.765 764.911 661.439 764.905 653.98 762.448C644.897 759.63 645.52 761.301 655.862 766.799C659.74 768.86 663.636 769.926 664.636 768.615Z"
        fill="currentColor"
      />
      <path
        d="M642.986 756.943C646.343 751.356 638.952 744.915 634.308 749.482C630.328 753.397 632.817 760.416 637.707 760.503C639.337 760.532 641.648 758.912 642.986 756.943Z"
        fill="currentColor"
      />
      <path
        d="M793.701 754.299C793.105 750.967 790.537 748.597 788.243 749.221C785.624 749.838 781.42 747.771 778.525 745.395C775.636 742.687 758.871 731.429 741.121 720.486C723.371 709.543 707.252 698.629 705.341 695.938C701.525 690.225 693.318 693.4 695.172 699.411C695.784 701.747 691.971 714.965 686.504 729.481C681.044 743.666 677.242 756.219 678.209 756.901C679.484 758.584 692.07 728.251 695.906 713.706C696.958 709.407 699.645 704.805 701.939 704.181C706.537 702.27 778.165 747.381 781.953 754.755C785.746 761.797 794.886 761.295 793.701 754.299Z"
        fill="currentColor"
      />
      <path
        d="M603.221 736.641C573.15 721.494 560.189 716.614 564.988 722.014C568.512 725.73 622.881 750.275 627.125 750.018C628.429 750.041 617.773 743.874 603.221 736.641Z"
        fill="currentColor"
      />
      <path
        d="M786.15 738.223C788.546 731.623 785.385 706.657 782.125 706.599C780.821 706.576 780.724 712.221 782.235 719.222C786.464 738.893 785.149 739.534 778.609 721.483C775.176 712.454 772.378 704.434 772.384 704.102C772.395 703.438 775.335 703.158 779.247 703.227C783.812 703.308 785.47 701.677 784.886 697.681C783.404 689.019 775.591 688.216 773.493 696.482C771.755 702.762 770.467 701.743 764.191 687.35C750.672 657.883 749.178 649.886 755.823 642.697C759.146 639.102 759.843 636.457 757.561 636.417C755.605 636.382 752.957 638.66 751.602 641.625C749.561 646.571 749.229 646.897 745.728 641.853C742.227 636.809 741.249 636.792 735.632 641.01C729.685 645.554 729.673 646.218 734.821 650.295C739.97 654.372 738.958 656.347 724.037 670.696C714.755 679.499 707.429 688.336 707.395 690.328C707.366 691.988 715.316 684.823 725.284 674.039C734.926 663.25 742.286 652.42 741.668 650.417C740.73 648.075 738.464 647.039 736.486 648.332C734.512 649.293 734.198 648.623 735.536 646.654C738.55 642.058 747.295 645.535 747.193 651.511C747.137 654.831 780.276 738.451 783.142 742.487C783.456 743.157 784.795 741.188 786.15 738.223Z"
        fill="currentColor"
      />
      <path
        d="M630.542 721.845C629.615 718.84 628.688 715.834 628.7 715.17C628.711 714.506 626.44 713.801 623.832 713.755C621.224 713.709 618.964 712.34 618.998 710.348C619.027 708.688 606.905 692.863 591.882 674.994C576.854 657.457 564.687 644.288 564.653 646.28C564.619 648.272 570.666 657.015 578.343 665.786C586.02 674.558 596.894 687.039 602.329 693.446C608.089 699.859 615.738 710.29 619.88 716.01C627.185 727.432 633.969 731.206 630.542 721.845Z"
        fill="currentColor"
      />
      <path
        d="M624.31 704.8C615.372 674.418 607.441 642.393 608.104 641.741C608.768 641.088 620.071 647.599 633.29 656.469C673.274 683.084 687.803 691.645 687.849 688.988C687.9 686 604.019 632.701 602.035 634.326C600.371 636.289 621.932 710.404 624.214 710.445C625.192 710.462 625.237 707.806 624.31 704.8Z"
        fill="currentColor"
      />
      <path
        d="M643.082 694.171C644.465 689.546 645.254 681.589 645.35 675.944C645.178 666.974 644.846 667.3 642.033 679.207C638.191 694.084 639.268 707.388 643.082 694.171Z"
        fill="currentColor"
      />
      <path
        d="M700.078 679.571C702.372 678.948 704.436 672.674 704.223 666.028C704.41 655.071 704.096 654.401 701.042 661.322C699.338 665.609 698.601 670.578 699.557 671.923C700.506 673.601 699.82 675.581 697.841 676.875C696.194 677.842 693.963 674.813 692.738 670.142C691.84 665.476 690.266 662.127 689.277 662.774C687.281 665.063 691.562 681.745 694.176 681.46C695.154 681.477 698.105 680.533 700.078 679.571Z"
        fill="currentColor"
      />
      <path
        d="M683.316 667.982C684.654 666.013 683.727 663.008 681.473 661.307C674.701 656.869 671.429 657.475 672.625 663.807C673.816 670.471 680.291 673.243 683.316 667.982Z"
        fill="currentColor"
      />
      <path
        d="M686.529 651.766C685.631 647.1 683.451 641.083 681.866 638.398C679.657 634.041 679.331 634.035 679.258 638.352C679.212 641.008 681.066 647.019 683.921 651.719L688.669 660.107L686.529 651.766Z"
        fill="currentColor"
      />
      <path
        d="M647.102 649.735C648.463 646.438 648.852 642.792 647.891 641.778C645.008 638.738 642.314 643.672 643.51 650.004C644.392 655.666 644.718 655.671 647.102 649.735Z"
        fill="currentColor"
      />
      <path
        d="M515.91 633.029C513.442 637.757 519.823 643.871 524.307 641.073C529.422 637.592 528.185 628.993 522.971 629.155C520.363 629.236 517.154 630.997 515.91 633.029Z"
        fill="currentColor"
      />
      <path
        d="M532.723 638.819C535.114 642.399 557.506 649.344 559.392 646.96C560.34 645.934 554.058 643.139 545.83 640.737C537.592 638.003 531.696 637.19 532.723 638.819Z"
        fill="currentColor"
      />
      <path
        d="M513.082 658.365C510.358 665.427 508.285 672.468 508.651 673.785C510.084 678.06 499.702 712.602 497.716 711.668C496.719 711.034 495.84 714.384 495.98 719.031C495.803 724.02 495.054 731.684 493.554 736.05C492.073 741.079 492.133 743.071 494.375 741.672C495.975 740.626 498.985 732.226 500.988 722.862C504.125 707.814 506.001 705.098 521.683 694.975C541.838 681.724 543.674 677.68 536.472 665.944C531.66 657.787 532.085 661.097 537.342 673.226C538.41 676.183 536.228 679.573 532.07 682.36C527.893 684.483 521.84 689.323 518.354 692.753C512.667 698.91 506.87 701.416 506.77 698.097C506.74 697.101 507.925 693.077 509.415 688.38C514.824 672.929 521.188 645.82 519.559 645.871C518.581 645.902 515.817 651.635 513.082 658.365Z"
        fill="currentColor"
      />
      <path
        d="M529.861 652.199C528.311 654.905 528.667 655.891 530.898 654.16C534.424 652.057 547.05 670.602 545.905 675.953C545.619 677.291 548.839 675.862 553.312 672.733C562.575 666.133 563.483 663.779 556.076 666.999C552.205 668.448 547.562 665.935 541.467 658.483C534.71 650.72 531.717 648.819 529.861 652.199Z"
        fill="currentColor"
      />
      <path
        d="M551.82 677.425C551.869 679.085 554.25 682.333 556.927 684.575C559.604 686.818 561.896 687.079 561.836 685.087C561.786 683.428 559.405 680.179 556.728 677.937C554.051 675.695 551.76 675.434 551.82 677.425Z"
        fill="currentColor"
      />
      <path
        d="M547.746 693.834C550.888 700.713 554.05 708.256 555.087 710.217C556.135 712.511 558.15 714.441 559.78 714.391C561.409 714.34 558.899 706.777 554.067 697.957C543.703 678.677 539.712 676.143 547.746 693.834Z"
        fill="currentColor"
      />
      <path
        d="M475.485 720.994C469.728 724.827 465.61 728.942 466.608 729.576C467.29 730.551 473.709 727.029 480.414 722.17C494.446 711.434 490.831 710.55 475.485 720.994Z"
        fill="currentColor"
      />
      <path
        d="M451.064 733.387C447.588 737.15 449.337 741.082 454.226 740.931C456.833 740.849 459.075 739.451 459.025 737.791C458.896 733.476 453.591 730.651 451.064 733.387Z"
        fill="currentColor"
      />
      <path
        d="M461.465 743.03C460.192 744.066 461.941 747.999 465.319 751.88C479.891 770.032 489.987 780.35 491.251 778.982C491.883 778.298 488.474 773.42 483.426 768.261C478.368 762.771 471.957 755.661 469.25 752.423C464.508 746.59 464.834 746.58 472.4 748.67C481.605 751.042 480.904 749.403 470.315 744.416C466.344 742.546 462.403 741.672 461.465 743.03Z"
        fill="currentColor"
      />
      <path
        d="M483.641 753.632C480.551 759.376 488.236 765.45 492.66 760.661C496.451 756.557 493.635 749.667 488.746 749.819C487.117 749.87 484.885 751.6 483.641 753.632Z"
        fill="currentColor"
      />
      <path
        d="M333.223 763.627C333.974 766.926 336.651 769.169 338.913 768.434C341.5 767.689 345.797 769.549 348.8 771.781C351.813 774.345 369.089 784.772 387.333 794.836C405.577 804.9 422.192 815.015 424.227 817.61C428.307 823.131 436.355 819.558 434.221 813.644C433.499 811.341 436.686 797.953 441.463 783.186C446.25 768.751 449.457 756.027 448.46 755.393C447.106 753.774 435.963 784.686 432.815 799.402C431.967 803.748 429.499 808.475 427.237 809.21C422.734 811.344 349.066 769.779 344.936 762.599C340.816 755.75 331.71 756.697 333.223 763.627Z"
        fill="currentColor"
      />
      <path
        d="M524.318 771.971C555.066 785.633 568.243 789.875 563.195 784.716C559.5 781.176 504.039 759.312 499.812 759.776C498.508 759.816 509.443 765.456 524.318 771.971Z"
        fill="currentColor"
      />
      <path
        d="M163.361 777.879C163.441 780.534 164.834 783.481 166.493 784.426C170.148 786.638 177.07 778.117 174.047 775.221C170.016 771.359 163.222 773.232 163.361 777.879Z"
        fill="currentColor"
      />
      <path
        d="M324.095 785.506C308.941 813.22 298.556 836.799 302.979 832.01C308.361 826.527 334.532 774.55 331.925 774.631C330.947 774.661 327.511 779.752 324.095 785.506Z"
        fill="currentColor"
      />
      <path
        d="M341.523 779.316C339.441 786.026 343.772 810.809 347.031 810.707C348.335 810.667 348.166 805.024 346.327 798.104C341.177 778.663 342.461 777.958 349.843 795.669C353.697 804.52 356.869 812.395 356.879 812.727C356.899 813.391 353.975 813.814 350.064 813.935C345.501 814.077 343.921 815.787 344.693 819.75C346.581 828.329 354.423 828.75 356.13 820.391C357.57 814.034 358.904 814.989 365.85 829.059C380.74 857.833 382.609 865.748 376.309 873.253C373.159 877.006 372.587 879.681 374.868 879.61C376.824 879.55 379.362 877.145 380.576 874.117C382.382 869.078 382.698 868.736 386.433 873.603C390.167 878.47 391.145 878.44 396.556 873.953C402.283 869.123 402.263 868.46 396.929 864.639C391.595 860.818 392.513 858.796 406.742 843.735C415.599 834.49 422.501 825.305 422.441 823.313C422.391 821.654 414.788 829.199 405.339 840.457C396.215 851.704 389.373 862.88 390.085 864.851C391.132 867.144 393.444 868.069 395.359 866.681C397.285 865.624 397.631 866.278 396.387 868.31C393.593 873.048 384.693 870.002 384.514 864.028C384.415 860.709 347.38 778.802 344.327 774.91C343.981 774.257 342.737 776.289 341.523 779.316Z"
        fill="currentColor"
      />
      <path
        d="M106.182 807.564C84.3276 818.542 67.9742 828.021 69.6237 828.634C72.2509 829.217 149.753 791.923 153.555 788.15C158.937 782.667 139.6 790.578 106.182 807.564Z"
        fill="currentColor"
      />
      <path
        d="M144.386 808.7C135.619 820.933 126.169 832.191 123.296 834.273C119.454 836.718 124.373 837.562 140.679 837.388C153.4 837.324 164.481 836.98 165.459 836.949C166.753 836.577 172.609 836.063 178.782 835.206C188.54 834.238 189.814 833.202 188.311 826.604C187.53 822.31 185.119 818.066 183.459 817.12C181.8 816.175 181.554 818.841 183.007 823.779L185.221 832.348L156.866 833.23L128.185 834.121L135.768 825.912C144.941 816.324 164.925 786.467 162.317 786.548C161.339 786.578 153.154 796.467 144.386 808.7Z"
        fill="currentColor"
      />
      <path
        d="M175.534 792.114C174.33 795.474 175.181 802.092 177.265 806.346C180.398 812.894 180.388 812.562 178.46 802.655C176.176 791.762 176.166 791.43 182.172 795.895C188.178 800.359 188.178 800.359 183.426 794.194C180.709 790.624 178.328 787.376 177.982 786.722C177.636 786.069 176.402 788.433 175.534 792.114Z"
        fill="currentColor"
      />
      <path
        d="M497.723 788.083C498.79 791.04 499.858 793.996 499.878 794.66C499.897 795.324 502.199 795.917 504.806 795.836C507.414 795.755 509.735 797.012 509.795 799.003C509.844 800.663 522.697 815.878 538.543 832.994C554.378 849.778 567.151 862.338 567.092 860.346C567.032 858.354 560.581 849.917 552.5 841.53C544.419 833.143 532.97 821.207 527.24 815.072C521.184 808.948 513.054 798.902 508.648 793.391C500.813 782.339 493.859 778.9 497.723 788.083Z"
        fill="currentColor"
      />
      <path
        d="M188.415 808.329C188.535 812.312 190.56 814.575 193.799 813.809C196.397 813.396 198.609 811.002 198.529 808.347C198.459 806.023 196.098 803.439 193.471 802.856C190.192 802.293 188.306 804.678 188.415 808.329Z"
        fill="currentColor"
      />
      <path
        d="M504.75 804.804C515.107 834.715 524.536 866.316 523.904 867.001C523.272 867.685 511.676 861.733 498.054 853.518C456.864 828.885 441.948 821.043 442.028 823.698C442.118 826.685 528.409 875.831 530.315 874.11C531.885 872.068 506.862 799.091 504.58 799.162C503.603 799.192 503.682 801.847 504.75 804.804Z"
        fill="currentColor"
      />
      <path
        d="M201.387 827.527C205.962 838.68 214.22 842.078 213.951 833.116C213.871 830.461 212.172 828.188 210.217 828.249C207.935 828.32 204.27 825.776 201.89 822.527C198.165 817.992 197.859 818.666 201.387 827.527Z"
        fill="currentColor"
      />
      <path
        d="M486.499 816.337C485.334 821.025 484.921 829.011 485.09 834.654C485.685 843.605 486.001 843.263 488.25 831.233C491.387 816.185 489.686 802.949 486.499 816.337Z"
        fill="currentColor"
      />
      <path
        d="M50.9377 836.524C51.0472 840.175 53.4182 843.091 56.0255 843.01C58.6329 842.929 60.8248 839.871 60.7154 836.22C60.606 832.568 58.235 829.652 55.6276 829.733C53.0202 829.814 50.8283 832.872 50.9377 836.524Z"
        fill="currentColor"
      />
      <path
        d="M77.0119 835.712C83.6596 839.824 104.193 839.186 101.456 834.952C100.419 832.991 93.2085 831.886 85.7123 832.119C75.6087 832.433 73.3571 833.5 77.0119 835.712Z"
        fill="currentColor"
      />
      <path
        d="M236.917 837.387C236.996 840.042 260.256 843.306 262.804 841.233C265.342 838.829 261.717 837.613 249.272 836.006C242.398 835.223 236.867 835.727 236.917 837.387Z"
        fill="currentColor"
      />
      <path
        d="M353.242 843.736C354.469 852.004 357.019 860.895 358.728 863.5C360.773 866.426 360.989 862.765 359.407 853.511C357.855 845.254 355.305 836.363 353.595 833.758C351.54 830.5 351.65 834.151 353.242 843.736Z"
        fill="currentColor"
      />
      <path
        d="M85.8239 846.732C87.9286 851.65 82.7238 852.144 74.1106 847.761C71.4634 846.514 72.8268 848.465 77.1732 851.985C83.199 857.113 86.1621 858.018 89.3318 854.929C93.4593 851.146 91.8771 841.893 86.6623 842.055C85.3586 842.096 84.7665 844.107 85.8239 846.732Z"
        fill="currentColor"
      />
      <path
        d="M114.963 850.147L109.375 859.624L117.936 851.384C126.803 842.47 127.731 840.78 123.168 840.922C121.539 840.973 117.747 845.077 114.963 850.147Z"
        fill="currentColor"
      />
      <path
        d="M188.777 842.205C189.834 844.83 193.422 855.682 196.684 866.544C200.261 877.064 203.759 884.929 204.707 883.903C206.919 881.509 194.723 844.678 190.357 840.495C188.006 838.242 187.7 838.916 188.777 842.205Z"
        fill="currentColor"
      />
      <path
        d="M430.255 833.701C427.994 834.436 426.227 840.803 426.752 847.431C427.081 858.385 427.426 859.038 430.151 851.977C431.651 847.611 432.154 842.612 431.136 841.315C430.109 839.686 430.701 837.674 432.616 836.285C434.216 835.239 436.587 838.155 438.03 842.762C439.147 847.378 440.876 850.647 441.834 849.952C443.72 847.568 438.66 831.114 436.062 831.527C435.085 831.557 432.181 832.644 430.255 833.701Z"
        fill="currentColor"
      />
      <path
        d="M226.012 843.701C232.72 849.805 267.153 866.675 267.073 864.019C267.033 862.692 258.044 856.659 247.436 851.008C228.224 841.306 219.324 838.261 226.012 843.701Z"
        fill="currentColor"
      />
      <path
        d="M292.572 843.96C292.661 846.947 294.351 848.888 296.286 848.163C298.222 847.439 299.792 845.397 299.742 843.737C299.692 842.077 298.003 840.137 296.028 839.533C294.052 838.93 292.482 840.973 292.572 843.96Z"
        fill="currentColor"
      />
      <path
        d="M210.776 846.837C210.117 857.489 213.075 879.989 215.436 882.573C217.115 884.182 217.222 876.87 215.916 865.947C213.749 848.074 211.199 839.183 210.776 846.837Z"
        fill="currentColor"
      />
      <path
        d="M267.319 850.392C269.454 856.306 276.654 857.079 276.485 851.436C276.395 848.449 274.044 846.197 271.111 846.288C268.177 846.379 266.598 848.089 267.319 850.392Z"
        fill="currentColor"
      />
      <path
        d="M447.543 844.459C446.299 846.491 447.366 849.448 449.697 851.037C456.671 855.139 459.91 854.374 458.417 848.108C456.915 841.51 450.317 839.057 447.543 844.459Z"
        fill="currentColor"
      />
      <path
        d="M299.783 856.029C299.666 863.009 306.365 879.745 308.261 877.692C309.209 876.666 307.717 870.4 304.89 863.179C302.074 856.29 299.693 853.041 299.783 856.029Z"
        fill="currentColor"
      />
      <path
        d="M322.816 862.622L315.303 873.154L324.16 863.909C329.225 858.768 332.671 854.01 331.674 853.376C330.992 852.401 326.884 856.847 322.816 862.622Z"
        fill="currentColor"
      />
      <path
        d="M99.4001 864.252C96.922 868.648 103.333 875.758 107.175 873.313C112.29 869.831 111.38 861.222 105.839 861.394C103.232 861.475 100.338 862.894 99.4001 864.252Z"
        fill="currentColor"
      />
      <path
        d="M445.095 860.814C446.212 865.43 448.673 871.334 450.382 873.939C452.793 878.183 453.119 878.173 452.989 873.858C452.91 871.202 450.775 865.288 447.702 860.733L442.565 852.587L445.095 860.814Z"
        fill="currentColor"
      />
      <path
        d="M484.572 860.918C483.368 864.278 483.151 867.939 484.159 868.904C487.182 871.8 489.64 866.74 488.147 860.474C487 854.862 486.674 854.872 484.572 860.918Z"
        fill="currentColor"
      />
      <path
        d="M114.769 876.399C116.282 883.328 122.168 883.81 123.253 876.467C123.805 873.128 122.106 870.855 118.847 870.956C115.588 871.057 114.018 873.1 114.769 876.399Z"
        fill="currentColor"
      />
      <path
        d="M280.429 874.238C280.519 877.226 282.208 879.167 284.144 878.442C286.079 877.717 287.649 875.675 287.6 874.016C287.55 872.356 285.861 870.415 283.885 869.812C281.91 869.209 280.34 871.251 280.429 874.238Z"
        fill="currentColor"
      />
    </svg>