<svg width="32" height="29" viewBox="0 0 32 29" fill="none" xmlns="http://www.w3.org/2000/svg">
<path d="M13.4563 0.152958C7.9791 1.09208 3.42542 4.73747 1.62093 9.63502C0.984054 11.3719 0.835449 12.2504 0.835449 14.4316C0.835449 16.2088 0.856678 16.5118 1.11143 17.5216C1.80138 20.2985 3.16005 22.6413 5.24052 24.6205C7.27853 26.5795 9.78359 27.8923 12.7026 28.5486C13.7641 28.791 14.0931 28.8112 15.9507 28.8213C18.201 28.8213 18.944 28.7203 20.7379 28.1649C25.1111 26.8017 28.8156 23.3381 30.376 19.1474C30.981 17.5014 31.1721 16.4007 31.1721 14.4316C31.1721 12.4625 30.981 11.3618 30.376 9.7158C29.1022 6.27237 26.4486 3.36413 22.9882 1.58688C21.8524 1.01129 19.8569 0.365017 18.5088 0.152958C17.2563 -0.0490017 14.6345 -0.0490017 13.4563 0.152958ZM18.8591 1.15266C23.9966 2.25335 27.9452 5.62609 29.5374 10.2813C30.0151 11.6748 30.2062 12.8664 30.2062 14.4316C30.1955 16.6733 29.7285 18.5415 28.6776 20.5409C27.9452 21.9142 27.1491 22.9341 25.886 24.1055C24.2195 25.6404 22.6379 26.5593 20.4195 27.2561C16.7999 28.4073 12.9043 28.1144 9.46515 26.4382C5.56958 24.5397 2.77793 20.9549 1.9606 16.8046C1.72708 15.5727 1.72708 13.1693 1.97122 11.9778C2.36396 10.0995 3.1919 8.21119 4.30644 6.6561C5.0813 5.5857 6.79026 3.99021 7.96849 3.24296C9.70929 2.14227 11.7791 1.34453 13.7216 1.05168C14.8786 0.869919 17.8189 0.930508 18.8591 1.15266Z" fill="#494e59"/>
<path d="M13.0012 1.65178C12.9753 1.72336 12.9623 2.74594 12.9753 3.92191L13.0142 6.06934H15.4141C17.4638 6.06934 17.8789 6.03866 18.2291 5.88527C19.0204 5.54782 19.2799 4.72975 18.7869 4.09575C18.6442 3.92191 18.4886 3.76852 18.4367 3.76852C18.3718 3.76852 18.2551 3.72762 18.1643 3.67649C18.0216 3.61514 18.0605 3.53333 18.3199 3.32881C18.7869 2.96068 18.7999 2.26533 18.3459 1.9381C17.8918 1.60065 17.2692 1.52907 15.0509 1.51884C13.5591 1.51884 13.0531 1.54952 13.0012 1.65178ZM16.9319 2.39826C17.2821 2.48007 17.4248 2.76639 17.2303 3.05272C17.1005 3.23678 16.9708 3.25723 15.8033 3.25723H14.506V2.79707V2.33691H15.5828C16.1665 2.33691 16.7762 2.36758 16.9319 2.39826ZM17.36 4.27982C17.6843 4.53546 17.6843 4.69907 17.373 5.00585C17.1524 5.23082 17.0097 5.25127 15.8163 5.28195L14.506 5.32285V4.69907V4.0753H15.8033C16.9319 4.0753 17.1394 4.10598 17.36 4.27982Z" fill="#494e59"/>
<path d="M14.1164 9.78908C13.4872 10.9991 12.9592 12.0126 12.9704 12.054C12.9704 12.1057 13.2625 12.1367 13.622 12.1367H14.2849L14.4984 11.692L14.7119 11.2576L15.9703 11.2266L17.2399 11.1956L17.487 11.6713L17.7342 12.1367H18.3859C18.7454 12.1367 19.0375 12.116 19.0375 12.085C19.0375 12.054 18.5095 11.0301 17.8691 9.80976L16.7006 7.58622L15.9815 7.59657H15.2737L14.1164 9.78908ZM16.3972 9.52018C16.5882 9.90284 16.7567 10.2545 16.768 10.2958C16.7904 10.3372 16.4534 10.3786 16.0152 10.3786C15.5658 10.3786 15.2175 10.3372 15.2175 10.2752C15.2175 10.1304 15.9253 8.82727 16.004 8.82727C16.0377 8.82727 16.2174 9.13753 16.3972 9.52018Z" fill="#494e59"/>
<path d="M3.86914 14.4123V16.6875H5.70152C7.67256 16.6875 7.9499 16.6254 8.26685 16.1497C8.44513 15.8808 8.47485 15.1569 8.31637 14.7949C8.25694 14.6605 8.08856 14.4743 7.93009 14.3812L7.65275 14.2054L7.93999 13.9055C8.47485 13.3367 8.22723 12.4679 7.45466 12.2404C7.25656 12.1887 6.36514 12.137 5.48361 12.137H3.86914V14.4123ZM7.01885 13.0885C7.08818 13.1609 7.13771 13.3057 7.13771 13.4298C7.13771 13.8228 6.94952 13.8952 5.92933 13.8952H4.95866V13.4298V12.9644H5.92933C6.55333 12.9644 6.93961 13.0057 7.01885 13.0885ZM7.14761 14.8259C7.37542 14.9604 7.40514 15.4671 7.17733 15.6947C7.05847 15.8291 6.80095 15.8601 5.98876 15.8601H4.95866V15.2913V14.7225H5.95904C6.5038 14.7225 7.03866 14.7742 7.14761 14.8259Z" fill="#494e59"/>
<path d="M9.60701 14.3812L8.41992 16.6358L9.05743 16.6668C9.73891 16.6978 9.7499 16.6978 10.1126 16.0773L10.2995 15.7567H11.4646H12.6187L12.8605 16.2221L13.1023 16.6875H13.7948H14.4872L13.2782 14.4123L12.0691 12.137H11.4316H10.7941L9.60701 14.3812ZM12.179 14.8466C12.179 15.0121 12.0691 15.0328 11.4096 15.0328C10.9919 15.0328 10.6402 15.0121 10.6402 14.9914C10.6402 14.9707 10.8161 14.5881 11.0359 14.1434L11.4316 13.3263L11.8053 13.9986C12.0032 14.3709 12.168 14.7535 12.179 14.8466Z" fill="#494e59"/>
<path d="M13.2027 12.4259C13.3305 12.5807 13.8768 13.2205 14.4347 13.8499L15.4343 14.9849V15.8311V16.6875H16.0736H16.7129V15.8311V14.9746L17.8752 13.6332C18.5145 12.9006 19.0375 12.2711 19.0375 12.2196C19.0375 12.1783 18.7121 12.1473 18.3053 12.1473H17.573L16.8408 13.0244C16.4456 13.5094 16.0736 13.9015 16.0387 13.8912C15.9923 13.8912 15.6436 13.5094 15.26 13.045L14.5626 12.1989L13.7606 12.168L12.9702 12.137L13.2027 12.4259Z" fill="#494e59"/>
<path d="M19.0376 14.4123V16.6875H21.3128H23.5881V16.2738V15.8601H21.8949H20.2017V15.343V14.8259H21.7891H23.3764V14.4123V14.0089L21.8208 13.9779L20.2546 13.9469V13.4815V13.0161L21.8737 12.9851L23.4823 12.954V12.5507V12.137H21.2599H19.0376V14.4123Z" fill="#494e59"/>
<path d="M23.5879 14.4123V16.6875H24.2904H24.993V15.8124V14.927L25.8488 14.9579L26.7174 14.9888L27.4071 15.833L28.0969 16.6875H28.9144C29.5403 16.6875 29.7063 16.6566 29.6425 16.5537C29.5658 16.4507 28.9527 15.7918 28.2885 15.0711C28.2119 14.9888 28.314 14.8961 28.6461 14.7726C29.8341 14.3196 29.9235 12.8886 28.7867 12.3944C28.4418 12.24 27.9819 12.1988 25.9893 12.1782L23.5879 12.137V14.4123ZM27.9053 13.1459C28.2502 13.3415 28.2629 13.6401 27.9308 13.9078C27.7137 14.0828 27.5093 14.1137 26.3342 14.1137H24.993V13.5475V12.9812H26.3086C27.2922 12.9812 27.6881 13.0224 27.9053 13.1459Z" fill="#494e59"/>
<path d="M14.4873 20.4787V22.7539H16.7626H19.0378V22.3919V22.03L17.3363 22.0093L15.6249 21.9783L15.5953 21.4405L15.5656 20.9027L17.178 20.8717L18.7905 20.8406V20.4787V20.1167L17.1879 20.0857L15.5755 20.065V19.5479V19.0308L17.2374 19.0101L18.8894 18.9791V18.6171V18.2551L16.6933 18.2241L14.4873 18.2034V20.4787Z" fill="#494e59"/>
<path d="M14.4873 25.0236V27.3033H15.0182H15.5492V26.3749V25.4465H16.1573H16.7558L17.3254 26.3749L17.8949 27.3033H18.5128C19.2174 27.3033 19.2271 27.3858 18.4548 26.2821C18.1266 25.8179 17.9625 25.4981 18.0301 25.4775C18.4066 25.3434 18.7927 24.9307 18.9278 24.5388C19.0533 24.1571 19.0533 24.0539 18.9278 23.6723C18.6576 22.878 18.5031 22.8161 16.3601 22.7851L14.4873 22.7542V25.0236ZM17.7501 23.7135C17.8949 23.8683 17.8949 24.3428 17.7501 24.4975C17.6729 24.58 17.2771 24.6213 16.5917 24.6213H15.5492V24.1055V23.5897H16.5917C17.2771 23.5897 17.6729 23.631 17.7501 23.7135Z" fill="#494e59"/>
</svg>
