<svg width="217" height="56" viewBox="0 0 217 56" fill="none" xmlns="http://www.w3.org/2000/svg">
<path opacity="0.13" d="M171.83 0.634052C171.496 1.97723 170.911 7.29622 170.578 12.454C170.244 17.6118 169.826 21.1041 169.743 20.2444C169.576 19.3311 169.242 18.0416 168.908 17.2895C168.407 16.0537 168.323 16.1612 167.739 18.0954C167.405 19.2774 167.071 21.4264 166.987 22.9308C166.904 25.5097 166.904 25.5634 165.735 24.274L164.566 22.9308L163.815 24.274C163.147 25.456 162.98 25.3485 162.395 22.7696C161.811 19.7609 160.308 18.955 160.308 21.6413C160.308 22.5547 159.974 23.1457 159.473 22.9308C159.055 22.7696 158.638 21.4802 158.638 20.0833C158.638 15.6776 157.135 15.6239 156.467 20.0295L155.883 24.0053L154.881 21.319C154.129 18.955 153.879 18.7938 153.378 19.9758C153.044 20.728 152.793 22.2323 152.793 23.3069C152.793 24.4352 152.459 25.3485 151.958 25.3485C151.541 25.3485 151.124 25.0799 151.124 24.8112C151.124 23.683 149.454 24.3277 148.953 25.6172C148.535 26.638 148.118 26.8529 147.45 26.4768C146.698 26.1007 146.114 26.1007 145.446 26.5305C144.694 27.0141 144.444 26.7991 144.361 25.5634C144.361 24.7038 144.027 23.5218 143.609 22.9308C142.941 21.8025 142.357 22.2323 141.689 24.5426C141.522 25.1336 141.104 23.7367 140.77 21.4264C140.102 17.2895 138.599 15.6776 138.599 19.1699C138.599 20.1907 138.265 21.0504 137.765 21.0504C137.264 21.0504 136.846 19.3311 136.846 17.1283C136.763 15.0329 136.512 12.5077 136.178 11.6481C135.677 10.3049 135.51 10.5736 135.009 13.4748C134.675 15.3553 134.341 18.2565 134.341 19.9221L134.174 22.9308L133.423 19.4923C132.421 15.5702 131.085 15.9463 131.085 20.137C131.085 21.7488 130.751 22.6084 130.25 22.3935C129.833 22.2323 129.415 21.3727 129.415 20.5131C129.415 17.3969 127.829 18.4715 127.244 21.9637C126.91 24.0053 126.493 25.2411 126.326 24.8112C125.24 22.4473 125.157 22.3935 123.988 23.7367L122.819 25.0799L122.736 23.1457C122.736 22.0712 122.485 20.0833 122.235 18.6864C121.567 15.6239 120.231 16.3761 120.231 19.8146C120.231 21.0504 119.897 22.2323 119.396 22.3935C118.895 22.6084 118.561 22.0712 118.561 21.1041C118.561 17.9879 117.058 18.955 116.39 22.4473C115.973 25.0799 115.639 25.7783 115.054 25.1336C114.136 24.0591 112.716 24.4889 112.716 25.9395C112.716 26.4768 112.382 26.9603 111.881 26.9603C111.464 26.9603 111.047 26.6917 111.047 26.3693C111.047 25.9395 110.713 25.9395 109.878 26.3693C108.876 26.9066 108.625 26.638 108.124 24.8112C107.54 22.501 106.037 21.319 106.037 23.1457C106.037 25.5097 104.367 24.1128 104.284 21.6951C104.2 20.2982 103.95 18.5789 103.616 17.8267C103.031 16.6985 102.864 16.9134 102.196 19.4385L101.361 22.3935L100.693 16.2686C100.025 9.76766 98.606 8.96175 98.439 14.8717C98.3555 16.6447 98.0215 18.7938 97.6876 19.7072L97.0196 21.319L96.9361 19.4385C96.8526 18.4177 96.5187 17.2357 96.1012 16.8596C95.3498 16.0537 94.4313 19.4923 94.2643 23.4143L94.1808 25.6172L93.1789 24.0591L92.0935 22.501L91.1751 24.0591L90.3401 25.6172L89.7557 23.8979C89.0877 21.9637 87.6683 22.0174 87.6683 23.8979C87.6683 24.865 87.5014 24.9187 86.8334 24.274C86.4159 23.8442 85.9985 22.6084 85.9985 21.5876C85.9985 18.6864 84.6626 17.8805 84.0781 20.3519C83.7441 21.4802 83.4937 23.092 83.4937 24.0053L83.4102 25.6172L82.3247 24.0053L81.2393 22.3935L80.4044 24.2202C79.9034 25.5634 79.152 26.1007 77.8161 26.1544C76.3132 26.2082 75.8957 25.8858 75.4783 24.3277C74.4763 20.4594 74.1424 20.0833 73.2239 22.1249C72.3055 24.3277 72.1385 24.0591 71.3871 19.2774C71.0531 17.2357 70.6356 15.6776 70.4686 15.7851C70.3017 15.9463 69.8842 17.3432 69.4667 18.955L68.7153 21.8563L68.0473 16.8596C67.3794 11.6481 65.96 10.09 65.96 14.5494C65.96 16.0537 65.626 17.3969 65.125 17.5581C64.6241 17.773 64.2901 16.0537 64.2066 12.8838C64.2066 10.1437 63.9561 6.92013 63.5387 5.73813C63.0377 3.85768 62.8707 4.2875 62.3698 8.63939C62.0358 11.4332 61.7853 15.3016 61.7853 17.2357C61.7853 19.7072 61.5348 20.5668 60.9504 19.9758C60.5329 19.546 60.1154 18.4177 60.1154 17.5581C60.1154 14.9255 58.529 17.1283 58.3621 19.9758C58.2786 22.4473 57.0262 25.9395 56.8592 24.1128C56.6922 22.6084 55.2728 23.092 54.6883 24.8112C54.2709 26.047 53.8534 26.3156 53.102 25.9395C52.3505 25.5634 51.7661 25.5634 51.1816 25.9395C50.5972 26.3156 50.0962 25.8858 49.7622 24.4889C49.1778 22.501 48.0923 22.5547 47.4244 24.5426C47.1739 25.1336 46.7564 24.2202 46.4225 22.501C46.005 20.8354 45.4205 19.3311 45.0866 19.1699C44.6691 19.0087 44.0846 20.5131 43.7507 22.4473C43.2497 25.8321 43.0827 25.9395 42.0808 24.7575L40.9954 23.4681L40.4109 25.2411C39.9935 26.4768 39.576 26.8529 38.8245 26.4231C38.2401 26.1007 37.5721 26.1007 36.9877 26.4768C36.3197 26.9066 35.9023 26.4231 35.4848 24.865C34.8169 22.2861 33.8149 21.6951 32.98 23.3606C32.5625 24.2202 32.1451 23.5755 31.7276 20.8892C31.3101 18.8475 30.8092 17.0745 30.5587 16.9134C30.3917 16.7522 29.9742 17.8267 29.6402 19.2774C28.8053 23.1457 28.5548 23.2532 28.3878 19.7072C28.3043 17.9342 27.9704 15.0329 27.6364 13.2599C27.0519 10.2512 26.9685 10.1437 26.4675 11.9167C26.217 12.9376 25.6326 15.7314 25.2151 18.0954C24.6306 21.3727 24.3801 21.8025 24.2967 19.9758C24.1297 16.2686 22.8773 15.6776 22.2928 19.0087C21.9588 20.5668 21.7083 22.7159 21.7083 23.7367C21.6249 25.5634 21.6249 25.5634 20.6229 24.3814C19.3705 22.9845 18.3686 23.3606 18.3686 25.1873C18.3686 26.4768 17.1162 26.8529 16.4482 25.7246C16.1143 25.2411 15.7803 25.2411 15.1124 25.8321C14.4444 26.4768 14.1939 26.3156 13.693 25.0262C12.858 22.6084 12.3571 22.3398 11.4386 23.7904C10.6872 24.9724 10.5202 24.7575 9.85225 22.1786C8.93382 18.5252 8.59985 18.2565 7.9319 20.8354C6.84648 25.1873 6.596 25.6172 5.76106 24.7575C5.09311 24.1128 4.92613 24.1128 4.17468 24.8112C3.75721 25.2411 3.33975 25.9395 3.33975 26.3693C3.33975 26.9066 3.08927 26.9603 2.25433 26.4768C0.751443 25.7246 0 26.2619 0 28.0349C0 29.8079 0.751443 30.3451 2.17084 29.593C3.00577 29.1631 3.42324 29.3243 3.84071 30.3989C4.34167 31.742 5.84456 32.3868 5.84456 31.2048C5.84456 30.9361 6.26202 30.8287 6.67949 30.9899C7.18045 31.151 7.51443 32.2256 7.59792 33.3001C7.59792 34.3747 7.9319 35.7716 8.26587 36.3626C8.85033 37.2222 9.10081 36.8461 9.60177 34.7508C10.3532 31.0436 10.5202 30.8287 11.4386 32.2793C12.3571 33.7299 12.858 33.4076 13.693 31.0436C14.1939 29.7541 14.4444 29.593 15.1124 30.2377C15.7803 30.8287 16.1143 30.8287 16.4482 30.2914C17.1162 29.2169 18.3686 29.593 18.3686 30.8824C18.3686 32.7091 19.3705 33.0852 20.6229 31.6883C21.6249 30.5063 21.6249 30.5063 21.7083 32.333C21.7083 33.3539 21.9588 35.5029 22.2928 37.061C22.8773 40.3921 24.1297 39.8011 24.2967 36.0939C24.3801 34.2672 24.6306 34.697 25.2151 37.9744C25.6326 40.3384 26.217 43.1322 26.4675 44.153C26.9685 45.926 27.0519 45.8185 27.6364 42.8098C27.9704 41.0368 28.3043 38.1356 28.3878 36.3626C28.5548 32.8166 28.8053 32.924 29.6402 36.7924C29.9742 38.243 30.3917 39.3176 30.5587 39.1564C30.8092 38.9952 31.3101 37.2222 31.7276 35.1806C32.1451 32.4942 32.5625 31.8495 32.98 32.7091C33.8149 34.3747 34.8169 33.8374 35.4848 31.3659C35.9023 29.7004 36.3197 29.378 37.9896 29.378C39.409 29.378 40.077 29.7004 40.077 30.2914C40.077 31.5809 41.4963 31.9569 42.4148 30.9361C42.9992 30.2914 43.3332 30.9361 43.7507 33.3539C44.0846 35.1268 44.6691 36.6312 45.0031 36.6312C45.4205 36.6312 46.005 35.2343 46.4225 33.515C46.7564 31.8495 47.1739 30.9361 47.4244 31.5271C48.0923 33.515 49.1778 33.5688 49.6787 31.5809C50.1797 30.0228 50.5137 29.7541 51.3486 30.184C52.1835 30.6138 52.6845 30.56 53.269 29.8616C53.9369 29.1094 54.1874 29.3243 54.6049 30.9361C55.1893 32.924 56.6922 33.6225 56.8592 31.9032C57.0262 30.1302 58.2786 33.6225 58.3621 36.0939C58.529 38.9415 60.1154 41.1443 60.1154 38.5117C60.1154 37.5983 60.5329 36.5238 60.9504 36.0939C61.5348 35.5029 61.7853 36.3626 61.7853 38.834C61.7853 40.7682 62.0358 44.6365 62.3698 47.4304C62.8707 51.7822 63.0377 52.2121 63.5387 50.3316C63.9561 49.1496 64.2066 45.926 64.2066 43.1859C64.2901 40.016 64.6241 38.2967 65.125 38.5117C65.626 38.6728 65.96 40.016 65.96 41.5204C65.96 45.9797 67.3794 44.4216 68.0473 39.1564L68.7153 34.2135L69.3832 37.061C69.7172 38.6191 70.1347 40.0697 70.3851 40.1772C70.6356 40.3384 71.0531 38.834 71.3871 36.7924C72.1385 32.0107 72.3055 31.742 73.2239 33.9449C74.1424 35.9865 74.4763 35.6104 75.5618 31.6346C75.8957 30.3989 76.3967 29.7541 76.9811 29.969C77.3986 30.184 78.1501 30.0228 78.484 29.6467C78.985 29.1631 79.486 29.7004 80.2374 31.3122L81.2393 33.6762L82.3247 32.0644L83.4102 30.4526L83.4937 32.0644C83.4937 32.924 83.7441 34.5896 84.0781 35.7178C84.6626 38.1893 85.9985 37.3834 85.9985 34.4821C85.9985 33.4613 86.4159 32.2256 86.8334 31.7958C87.5014 31.151 87.6683 31.2048 87.6683 32.1719C87.6683 33.8911 89.0042 33.7299 89.7557 31.9032L90.3401 30.4526L91.3421 32.0644L92.344 33.6762L93.0119 32.333C93.8469 30.7212 94.0139 31.2585 94.7653 36.3088C95.3498 40.1772 96.6857 40.3384 96.9361 36.6312L97.0196 34.7508L97.6876 36.3626C98.0215 37.2222 98.3555 39.425 98.439 41.198C98.606 47.108 100.025 46.3021 100.693 39.8011L101.361 33.6762L102.196 36.6312C102.864 39.1564 103.031 39.3713 103.616 38.243C103.95 37.4908 104.2 35.7716 104.284 34.3209C104.367 31.9569 106.037 30.56 106.037 32.924C106.037 34.697 107.54 33.5688 108.124 31.3659C108.542 29.7541 108.959 29.378 110.629 29.3243C112.132 29.2706 112.716 29.4855 112.716 30.184C112.716 31.5809 114.136 32.0107 115.054 30.9361C115.639 30.2914 115.973 30.9899 116.39 33.6225C117.058 37.1147 118.561 38.0818 118.561 34.9657C118.561 33.9986 118.895 33.4613 119.396 33.6762C119.897 33.8374 120.231 35.0194 120.231 36.2551C120.231 39.6936 121.567 40.4458 122.235 37.3834C122.485 35.9865 122.736 33.9986 122.736 32.924L122.819 30.9899L123.988 32.333C125.157 33.6762 125.24 33.6225 126.326 31.2585C126.493 30.8287 126.91 32.0644 127.244 34.106C127.829 37.5983 129.415 38.6728 129.415 35.5567C129.415 34.697 129.833 33.8374 130.25 33.6762C130.751 33.4613 131.085 34.3209 131.085 35.9328C131.085 40.1235 132.421 40.4996 133.423 36.5775L134.174 33.1389L134.341 36.1477C134.341 37.8132 134.675 40.7145 135.009 42.5949C135.51 45.4962 135.677 45.7648 136.178 44.4216C136.512 43.5083 136.763 41.0368 136.846 38.8877C136.846 36.7387 137.264 35.0194 137.765 35.0194C138.265 35.0194 138.599 35.879 138.599 36.8998C138.599 40.3921 140.102 38.7803 140.77 34.5896C141.104 32.333 141.522 30.9361 141.689 31.5271C142.357 33.8374 142.941 34.2672 143.609 33.1389C144.027 32.5479 144.361 31.3659 144.361 30.5063C144.444 29.3243 144.695 29.1094 145.529 29.593C146.281 29.969 146.949 29.969 147.533 29.593C148.118 29.2169 148.535 29.4318 148.953 30.3989C149.454 31.742 151.124 32.3868 151.124 31.2048C151.124 30.9361 151.541 30.8287 151.958 30.9899C152.459 31.151 152.793 32.1181 152.793 33.0315C152.793 33.9986 153.044 35.3418 153.378 36.0939C153.879 37.2759 154.129 37.1147 154.881 34.7508L155.883 32.0644L156.467 36.0402C157.135 40.4458 158.638 40.3921 158.638 35.9865C158.638 34.5896 159.055 33.3001 159.473 33.1389C159.974 32.924 160.308 33.515 160.308 34.4284C160.308 37.1147 161.811 36.3088 162.395 33.2464C162.98 30.7212 163.147 30.6138 163.815 31.7958L164.566 33.1389L165.735 31.7958C166.904 30.5063 166.904 30.56 166.987 33.1389C167.071 34.5896 167.405 36.7924 167.739 37.9744C168.323 39.9086 168.407 39.9623 168.908 38.7803C169.242 38.0281 169.576 36.8461 169.743 36.0939C169.91 35.3418 170.327 39.1027 170.661 44.4216C171.663 58.5519 172.414 59.6801 173.249 48.1825C173.667 42.8635 174.084 38.9952 174.168 39.5862C174.335 40.1772 174.669 42.8098 175.003 45.4962L175.671 50.3316L176.255 47.3766C176.589 45.7648 176.84 42.4875 176.923 40.1772C177.007 35.1806 177.674 35.1268 178.593 39.9086C179.177 43.0247 179.261 43.1859 179.762 41.4666C180.012 40.4458 180.513 38.1356 180.847 36.3626L181.515 33.1389L182.016 35.3955C182.768 38.834 183.436 38.6728 184.104 34.9119L184.771 31.5271L185.69 33.6762C186.608 35.7178 186.692 35.7178 187.276 34.4821C187.61 33.7299 187.861 32.6017 187.861 31.9032C187.861 31.2585 188.278 30.7212 188.696 30.7212C189.197 30.7212 189.531 31.0973 189.531 31.5271C189.531 31.9569 189.948 32.333 190.366 32.333C190.866 32.333 191.2 31.9569 191.2 31.5271C191.2 31.0973 191.618 30.7212 192.035 30.7212C192.536 30.7212 192.87 31.2048 192.87 31.742C192.87 33.8374 194.54 33.4076 195.041 31.2048C195.542 29.4855 195.793 29.1631 196.377 29.8616C196.962 30.56 197.462 30.6138 198.297 30.184C199.132 29.7004 199.55 29.969 199.967 31.2585C200.552 32.9778 201.971 33.4613 202.138 31.9032C202.305 30.184 203.558 33.5688 203.725 36.0939C203.808 37.4371 204.142 38.9952 204.559 39.5862C205.144 40.4996 205.311 40.3384 205.394 38.7803C205.478 37.7595 205.812 36.4163 206.229 35.8253C206.73 35.1268 206.981 36.2551 206.981 39.3176C207.064 41.8427 207.315 45.926 207.649 48.4512C208.233 52.9642 208.233 52.9642 208.818 50.3316C209.152 48.8273 209.486 45.4424 209.569 42.8098C209.736 37.652 210.988 33.3539 211.155 37.3297C211.322 40.6607 212.658 39.1026 213.326 34.9119C213.66 32.7629 214.161 31.3659 214.328 31.7958C215.414 34.1598 215.581 34.2672 216.249 33.1389C216.666 32.5479 217 30.2377 217 28.0349C217 25.8321 216.666 23.5218 216.249 22.9308C215.581 21.8025 215.414 21.91 214.328 24.274C214.161 24.7038 213.66 23.3069 213.326 21.1578C212.658 16.9671 211.322 15.409 211.155 18.7401C210.988 22.8771 209.736 18.3103 209.569 12.9913C209.486 10.1975 209.152 6.81267 208.818 5.46949L208.15 3.05178L207.899 5.20086C207.816 6.38285 207.482 10.4661 207.148 14.3345C206.647 20.8354 206.48 21.1041 205.812 18.364C205.06 15.0329 203.975 15.8388 203.725 19.9758C203.558 22.501 202.305 25.8858 202.138 24.1128C201.971 22.6084 200.552 23.092 199.967 24.8112C199.55 26.1007 199.132 26.3693 198.297 25.8858C197.462 25.456 196.962 25.5097 196.377 26.2082C195.793 26.9066 195.542 26.5842 195.041 24.865C194.54 22.6622 192.87 22.2323 192.87 24.3277C192.87 24.865 192.536 25.3485 192.035 25.3485C191.618 25.3485 191.2 24.9724 191.2 24.5426C191.2 24.1128 190.866 23.7367 190.366 23.7367C189.948 23.7367 189.531 24.1128 189.531 24.5426C189.531 24.9724 189.197 25.3485 188.696 25.3485C188.278 25.3485 187.861 24.8112 187.861 24.1128C187.861 23.4681 187.61 22.3398 187.276 21.5876C186.692 20.3519 186.608 20.3519 185.69 22.3935L184.771 24.5426L184.104 21.1578C183.436 17.3969 182.768 17.2357 182.016 20.6743L181.515 22.9308L180.847 19.7072C180.513 17.9342 180.012 15.6239 179.762 14.6031C179.261 12.8301 179.177 12.9376 178.509 15.9463C177.508 20.7817 177.174 20.728 177.007 15.6776C176.923 13.1525 176.589 9.87511 176.255 8.42448C175.671 5.79185 175.671 5.84558 175.003 10.5736C174.669 13.2062 174.335 15.7851 174.168 16.2149C174.084 16.6447 173.583 12.7764 173.166 7.61858C172.581 0.687782 172.247 -1.13894 171.83 0.634052Z" fill="white"/>
</svg>
