<svg width="163" height="68" viewBox="0 0 163 68" fill="none" xmlns="http://www.w3.org/2000/svg">
<path d="M28.0737 33.6545C28.0737 35.8867 28.5656 37.8439 29.5493 39.5262C30.5649 41.1761 31.8819 42.454 33.5003 43.3598C35.1188 44.2333 36.8801 44.67 38.7842 44.67C40.3709 44.67 41.7831 44.4597 43.0208 44.0392C44.2585 43.6186 45.3692 43.0525 46.353 42.3407C47.3685 41.629 48.2412 40.8526 48.9711 40.0115V47.8242C47.6065 48.9242 46.1149 49.7815 44.4965 50.3961C42.9097 51.0108 40.8946 51.3181 38.451 51.3181C35.9122 51.3181 33.5479 50.8976 31.3582 50.0565C29.2003 49.2153 27.312 48.0022 25.6936 46.417C24.1068 44.8318 22.8692 42.9716 21.9806 40.8364C21.1237 38.6689 20.6953 36.2749 20.6953 33.6545C20.6953 31.0341 21.1237 28.6563 21.9806 26.5211C22.8692 24.3536 24.1068 22.4772 25.6936 20.892C27.312 19.3068 29.2003 18.0936 31.3582 17.2525C33.5479 16.4114 35.9122 15.9908 38.451 15.9908C40.8946 15.9908 42.9097 16.2982 44.4965 16.9128C46.1149 17.5275 47.6065 18.3848 48.9711 19.4847V27.2975C48.2412 26.4564 47.3685 25.68 46.353 24.9682C45.3692 24.2565 44.2585 23.6904 43.0208 23.2698C41.7831 22.8492 40.3709 22.639 38.7842 22.639C36.8801 22.639 35.1188 23.0919 33.5003 23.9977C31.8819 24.8712 30.5649 26.1329 29.5493 27.7828C28.5656 29.4327 28.0737 31.3899 28.0737 33.6545Z" fill="white"/>
<path d="M61.2186 28.3166V50.6388H55.1731V28.3166H61.2186ZM67.645 34.8677C67.2324 34.4794 66.804 34.1883 66.3597 33.9942C65.9471 33.7677 65.4235 33.6545 64.7888 33.6545C64.0272 33.6545 63.3766 33.8648 62.8371 34.2853C62.2976 34.7059 61.8851 35.3044 61.5995 36.0808C61.3456 36.8249 61.2186 37.7307 61.2186 38.7983L59.505 37.0513C59.505 35.272 59.8382 33.703 60.5046 32.3443C61.171 30.9532 62.0437 29.8532 63.1227 29.0445C64.2017 28.2033 65.3124 27.7828 66.4549 27.7828C67.2483 27.7828 67.994 27.9284 68.6922 28.2195C69.4221 28.5107 70.0092 28.9474 70.4535 29.5297L67.645 34.8677Z" fill="white"/>
<path d="M83.3537 51.124C80.9736 51.124 78.895 50.6388 77.1178 49.6682C75.3407 48.6977 73.9602 47.3551 72.9764 45.6405C72.0244 43.8936 71.5483 41.8393 71.5483 39.4777C71.5483 37.0837 72.0244 35.0294 72.9764 33.3148C73.9602 31.5678 75.3407 30.2253 77.1178 29.2871C78.895 28.3166 80.9895 27.8313 83.4013 27.8313C85.8132 27.8313 87.8601 28.2842 89.542 29.19C91.2557 30.0635 92.5568 31.3576 93.4454 33.0722C94.334 34.7544 94.7783 36.7925 94.7783 39.1865C94.7783 39.4777 94.7624 39.785 94.7307 40.1085C94.7307 40.432 94.7148 40.6908 94.6831 40.8849H75.0709V37.0028H89.304L87.6379 39.235C87.7649 39.0409 87.8759 38.7821 87.9711 38.4586C88.0981 38.1028 88.1616 37.8116 88.1616 37.5851C88.1616 36.4852 87.9553 35.547 87.5427 34.7706C87.1619 33.9942 86.6065 33.3795 85.8766 32.9266C85.1467 32.4737 84.2899 32.2472 83.3061 32.2472C82.1002 32.2472 81.0847 32.5222 80.2596 33.0722C79.4662 33.5898 78.8474 34.3824 78.4031 35.45C77.9905 36.4852 77.7684 37.7792 77.7366 39.3321C77.7366 40.8202 77.9429 42.0819 78.3555 43.1172C78.7998 44.1524 79.4503 44.945 80.3072 45.495C81.164 46.0449 82.1954 46.3199 83.4013 46.3199C84.7659 46.3199 85.9242 46.0611 86.8763 45.5435C87.8601 44.9935 88.6693 44.1847 89.304 43.1172L94.6831 44.8156C93.5406 46.9184 92.0173 48.5036 90.1132 49.5712C88.2409 50.6064 85.9877 51.124 83.3537 51.124Z" fill="white"/>
<path d="M95.5894 28.3166H102.206L107.585 41.7584L112.964 28.3166H119.581L107.585 52.968L95.5894 28.3166Z" fill="white"/>
<path d="M126.912 43.6995C126.912 44.3465 127.07 44.9126 127.388 45.3979C127.705 45.8508 128.133 46.2067 128.673 46.4655C129.244 46.6919 129.863 46.8052 130.529 46.8052C131.482 46.8052 132.338 46.6111 133.1 46.2229C133.862 45.8023 134.48 45.22 134.956 44.4759C135.433 43.6995 135.671 42.7775 135.671 41.7099L136.432 44.6215C136.432 46.0449 136.035 47.2419 135.242 48.2124C134.48 49.183 133.481 49.9109 132.243 50.3961C131.037 50.8814 129.768 51.124 128.435 51.124C127.07 51.124 125.801 50.8491 124.627 50.2991C123.453 49.7491 122.501 48.9565 121.771 47.9213C121.072 46.8537 120.723 45.5597 120.723 44.0392C120.723 41.8716 121.469 40.157 122.961 38.8954C124.452 37.6337 126.563 37.0028 129.292 37.0028C130.688 37.0028 131.91 37.1484 132.957 37.4396C134.036 37.7307 134.941 38.0866 135.671 38.5071C136.4 38.9277 136.924 39.3321 137.241 39.7203V42.6319C136.385 41.9849 135.417 41.4996 134.338 41.1761C133.29 40.8526 132.18 40.6908 131.005 40.6908C130.053 40.6908 129.276 40.8202 128.673 41.079C128.07 41.3055 127.626 41.6452 127.34 42.0981C127.054 42.5187 126.912 43.0525 126.912 43.6995ZM124.532 34.625L122.247 30.3547C123.389 29.74 124.785 29.1577 126.436 28.6077C128.086 28.0254 129.926 27.7343 131.958 27.7343C133.83 27.7343 135.496 28.0092 136.956 28.5592C138.416 29.1092 139.558 29.9179 140.383 30.9855C141.208 32.0208 141.621 33.2986 141.621 34.8191V50.6388H135.671V36.1293C135.671 35.5147 135.575 34.9971 135.385 34.5765C135.194 34.1236 134.893 33.7515 134.48 33.4604C134.1 33.1692 133.639 32.9589 133.1 32.8295C132.56 32.7001 131.958 32.6354 131.291 32.6354C130.276 32.6354 129.308 32.7487 128.387 32.9751C127.467 33.2016 126.674 33.4766 126.007 33.8001C125.341 34.1236 124.849 34.3986 124.532 34.625Z" fill="white"/>
<g opacity="0.06">
<mask id="mask0_1008_1204" style="mask-type:alpha" maskUnits="userSpaceOnUse" x="0" y="0" width="163" height="68">
<path d="M47.5961 0.404022C47.5961 0.487907 47.5351 15.7267 47.4436 34.265L47.291 67.9582H48.8165H50.342L50.1895 34.265C50.0674 0.93528 50.0369 0.571785 48.8165 0.404022C48.1453 0.292175 47.5961 0.292175 47.5961 0.404022Z" fill="#FF3535"/>
<path d="M82.1947 0.65567C81.9506 0.851402 81.7676 16.0902 81.7676 34.4887V67.9582H83.2931H84.8186L84.6661 34.265C84.5135 -0.602577 84.4525 -1.41345 82.1947 0.65567Z" fill="#FF3535"/>
<path d="M90.6172 34.4054V67.3996H91.9901H93.3631V34.4054V1.41123H91.9901H90.6172V34.4054Z" fill="#FF3535"/>
<path d="M43.1721 34.2654C43.2941 60.5768 43.3246 60.9683 44.545 61.136C45.7655 61.3318 45.7655 61.0801 45.7655 34.4331V7.56244H44.3925H43.0195L43.1721 34.2654Z" fill="#FF3535"/>
<path d="M120.82 34.4049V60.1291H122.193H123.566V34.4049V8.68058H122.193H120.82V34.4049Z" fill="#FF3535"/>
<path d="M86.3438 34.4048V59.0106H87.7167H89.0897V34.4048V9.79896H87.7167H86.3438V34.4048Z" fill="#FF3535"/>
<path d="M94.8887 34.4048V59.0106H96.2616H97.6346V34.4048V9.79896H96.2616H94.8887V34.4048Z" fill="#FF3535"/>
<path d="M21.6621 34.4055V56.7744H23.0351H24.408V34.4055V12.0365H23.0351H21.6621V34.4055Z" fill="#FF3535"/>
<path d="M39.0541 12.2875C38.8711 19.8091 39.1152 56.2145 39.3593 56.2145C39.5118 56.2145 40.0915 56.2145 40.5797 56.2145C42.1052 56.2145 41.6475 12.3994 40.122 12.1477C39.5423 12.0359 39.0541 12.0918 39.0541 12.2875Z" fill="#FF3535"/>
<path d="M125.094 34.4048V56.2145H126.467H127.84V34.4048V12.5951H126.467H125.094V34.4048Z" fill="#FF3535"/>
<path d="M26.8509 13.5453C26.0576 13.7131 25.9355 16.5092 25.9355 34.4323V55.0956H27.3085H28.6815V34.4323C28.6815 23.0801 28.4679 13.6851 28.2238 13.5733C27.9797 13.4335 27.3695 13.4335 26.8509 13.5453Z" fill="#FF3535"/>
<path d="M52.937 13.5733C51.9302 13.769 51.8691 15.223 51.8691 34.4323V55.0956H53.2421H54.6151L54.4625 34.3205C54.4015 22.9123 54.2794 13.5174 54.1574 13.4614C54.0659 13.4055 53.5167 13.4614 52.937 13.5733Z" fill="#FF3535"/>
<path d="M34.7833 14.5527C34.1121 29.3161 34.8748 54.2855 35.9732 54.4253C37.2241 54.621 37.2241 54.4532 37.2241 34.433C37.2241 14.6365 37.1936 14.273 36.0037 14.273C35.3325 14.273 34.7833 14.3849 34.7833 14.5527Z" fill="#FF3535"/>
<path d="M77.4961 34.4042V54.6201L78.8691 54.4244L80.242 54.2566V34.4042V14.5518L78.8691 14.384L77.4961 14.1883V34.4042Z" fill="#FF3535"/>
<path d="M116.551 34.4047C116.551 53.0548 116.581 53.4183 117.771 53.4183C118.961 53.4183 118.992 53.0548 118.992 34.4047C118.992 15.7546 118.961 15.3911 117.771 15.3911C116.581 15.3911 116.551 15.7546 116.551 34.4047Z" fill="#FF3535"/>
<path d="M100.229 17.4319C98.7336 17.9911 99.1608 51.181 100.686 51.181C101.876 51.181 101.907 50.8175 101.907 34.1247C101.907 24.7297 101.693 17.0963 101.449 17.1243C101.205 17.1243 100.656 17.2921 100.229 17.4319Z" fill="#FF3535"/>
<path d="M30.5098 34.4043C30.5098 50.8175 30.5403 51.181 31.7302 51.181C32.9201 51.181 32.9506 50.8175 32.9506 34.4043C32.9506 17.9911 32.9201 17.6276 31.7302 17.6276C30.5403 17.6276 30.5098 17.9911 30.5098 34.4043Z" fill="#FF3535"/>
<path d="M17.0859 34.4041V50.0623H18.6114H20.137V34.4041V18.7458H18.6114H17.0859V34.4041Z" fill="#FF3535"/>
<path d="M56.4445 21.0952C55.4377 23.444 56.475 48.1057 57.5429 48.1057C59.0989 48.1057 59.2515 20.8156 57.6954 20.536C57.1768 20.4242 56.5971 20.6758 56.4445 21.0952Z" fill="#FF3535"/>
<path d="M112.279 34.4042C112.279 46.9029 112.31 47.2664 113.5 47.2664C114.69 47.2664 114.72 46.9029 114.72 34.4042C114.72 21.9056 114.69 21.5421 113.5 21.5421C112.31 21.5421 112.279 21.9056 112.279 34.4042Z" fill="#FF3535"/>
<path d="M129.365 34.404V46.1477H130.738H132.111V34.404V22.6603H130.738H129.365V34.404Z" fill="#FF3535"/>
<path d="M60.5626 34.2369C60.7151 43.4921 60.8067 44.1911 61.844 44.1911C63.7357 44.1911 63.5831 24.7022 61.6915 24.4505C60.3795 24.2548 60.3795 24.3387 60.5626 34.2369Z" fill="#FF3535"/>
<path d="M133.911 25.0098C132.935 27.3865 133.942 44.1911 135.101 44.1911C136.718 44.1911 136.84 24.7301 135.223 24.4505C134.674 24.3387 134.095 24.5903 133.911 25.0098Z" fill="#FF3535"/>
<path d="M12.8145 34.4054V42.2345H14.34H15.8655V34.4054V26.5763H14.34H12.8145V34.4054Z" fill="#FF3535"/>
<path d="M103.736 34.4054C103.736 41.871 103.797 42.2345 104.957 42.2345C106.116 42.2345 106.177 41.871 106.177 34.4054C106.177 26.9398 106.116 26.5763 104.957 26.5763C103.797 26.5763 103.736 26.9398 103.736 34.4054Z" fill="#FF3535"/>
<path d="M137.908 34.4054C137.908 42.1506 137.908 42.2345 139.281 42.2345C140.654 42.2345 140.654 42.1506 140.654 34.4054C140.654 26.6601 140.654 26.5763 139.281 26.5763C137.908 26.5763 137.908 26.6601 137.908 34.4054Z" fill="#FF3535"/>
<path d="M142.301 34.2653C142.484 40.4727 142.545 40.8362 143.765 41.0039C145.047 41.1717 145.077 40.976 145.077 34.4331V27.6944H143.613H142.148L142.301 34.2653Z" fill="#FF3535"/>
<path d="M73.2246 34.4047C73.2246 40.4164 73.2551 40.5562 74.5976 40.5562C75.94 40.5562 75.9705 40.4164 75.9705 34.4047C75.9705 28.3931 75.94 28.2533 74.5976 28.2533C73.2551 28.2533 73.2246 28.3931 73.2246 34.4047Z" fill="#FF3535"/>
<path d="M8.97317 29.7352C7.66123 30.9096 8.54603 38.8785 9.98001 38.8785C11.353 38.8785 11.414 38.7387 11.353 34.2649C11.292 29.7911 10.5292 28.3092 8.97317 29.7352Z" fill="#FF3535"/>
<path d="M108.006 34.4041C108.006 39.0737 108.097 39.4371 109.226 39.4371C110.355 39.4371 110.447 39.0737 110.447 34.4041C110.447 29.7346 110.355 29.3711 109.226 29.3711C108.097 29.3711 108.006 29.7346 108.006 34.4041Z" fill="#FF3535"/>
<path d="M146.451 34.4053C146.451 38.2081 146.482 38.3199 147.977 38.3199C149.472 38.3199 149.502 38.2081 149.502 34.4053C149.502 30.6026 149.472 30.4908 147.977 30.4908C146.482 30.4908 146.451 30.6026 146.451 34.4053Z" fill="#FF3535"/>
<path d="M4.27148 34.4051C4.27148 37.0055 4.36302 37.2012 5.797 37.2012C7.23098 37.2012 7.32251 37.0055 7.32251 34.4051C7.32251 31.8047 7.23098 31.609 5.797 31.609C4.36302 31.609 4.27148 31.8047 4.27148 34.4051Z" fill="#FF3535"/>
<path d="M64.6816 34.6843C64.6816 37.5084 64.8037 37.76 66.0851 37.76C67.3971 37.76 67.4886 37.5363 67.4581 34.6843C67.4276 31.8882 67.3055 31.6086 66.0546 31.6086C64.8037 31.6086 64.6816 31.8602 64.6816 34.6843Z" fill="#FF3535"/>
<path d="M150.964 32.9781C150.293 34.5719 150.994 36.3614 152.398 36.5291C153.618 36.6969 153.771 36.4732 153.771 34.4321C153.771 32.0833 151.757 31.0208 150.964 32.9781Z" fill="#FF3535"/>
<path d="M0 34.4048C0 35.9147 0.213572 36.1384 1.37296 35.9706C2.3798 35.8588 2.74592 35.4393 2.74592 34.4048C2.74592 33.3702 2.3798 32.9508 1.37296 32.839C0.213572 32.6712 0 32.8949 0 34.4048Z" fill="#FF3535"/>
<path d="M69.0757 34.2081C69.1977 35.3824 69.5944 35.8018 70.4792 35.8018C72.3708 35.8018 72.1877 33.0617 70.2961 32.81C69.0452 32.6702 68.8926 32.838 69.0757 34.2081Z" fill="#FF3535"/>
<path d="M154.992 34.4041C154.992 35.2149 155.389 35.5225 156.518 35.5225C157.647 35.5225 158.043 35.2149 158.043 34.4041C158.043 33.5932 157.647 33.2856 156.518 33.2856C155.389 33.2856 154.992 33.5932 154.992 34.4041Z" fill="#FF3535"/>
<path d="M159.57 33.8449C159.021 34.6837 159.784 35.5225 161.126 35.5225C161.92 35.5225 162.316 35.1311 162.316 34.4041C162.316 33.2297 160.272 32.8103 159.57 33.8449Z" fill="#FF3535"/>
</mask>
<g mask="url(#mask0_1008_1204)">
<rect x="0.421875" y="-5.4527" width="162.315" height="75.9146" fill="white"/>
</g>
</g>
</svg>
