<svg width="111" height="47" viewBox="0 0 111 47" fill="none" xmlns="http://www.w3.org/2000/svg">
<path d="M19.1398 22.9452C19.1398 24.4671 19.4752 25.8015 20.1459 26.9485C20.8383 28.0733 21.7362 28.9446 22.8397 29.5622C23.9431 30.1577 25.144 30.4555 26.4421 30.4555C27.524 30.4555 28.4868 30.3121 29.3306 30.0254C30.1744 29.7386 30.9317 29.3526 31.6024 28.8674C32.2948 28.3821 32.8898 27.8528 33.3874 27.2793V32.606C32.4571 33.3559 31.4402 33.9404 30.3367 34.3595C29.2549 34.7785 27.881 34.9881 26.215 34.9881C24.484 34.9881 22.8721 34.7013 21.3792 34.1279C19.9079 33.5544 18.6206 32.7273 17.5171 31.6465C16.4353 30.5657 15.5915 29.2975 14.9857 27.8418C14.4015 26.364 14.1094 24.7318 14.1094 22.9452C14.1094 21.1586 14.4015 19.5375 14.9857 18.0817C15.5915 16.604 16.4353 15.3247 17.5171 14.2439C18.6206 13.1631 19.9079 12.336 21.3792 11.7625C22.8721 11.1891 24.484 10.9023 26.215 10.9023C27.881 10.9023 29.2549 11.1119 30.3367 11.531C31.4402 11.95 32.4571 12.5345 33.3874 13.2844V18.6111C32.8898 18.0376 32.2948 17.5083 31.6024 17.023C30.9317 16.5378 30.1744 16.1518 29.3306 15.8651C28.4868 15.5783 27.524 15.435 26.4421 15.435C25.144 15.435 23.9431 15.7438 22.8397 16.3613C21.7362 16.9569 20.8383 17.8171 20.1459 18.9419C19.4752 20.0668 19.1398 21.4012 19.1398 22.9452Z" fill="url(#paint0_linear_610_718)"/>
<path d="M41.7377 19.3059V34.5249H37.6159V19.3059H41.7377ZM46.1191 23.7723C45.8378 23.5076 45.5457 23.3091 45.2428 23.1768C44.9615 23.0224 44.6045 22.9452 44.1718 22.9452C43.6525 22.9452 43.209 23.0886 42.8411 23.3753C42.4733 23.662 42.192 24.0701 41.9973 24.5994C41.8242 25.1067 41.7377 25.7243 41.7377 26.4522L40.5693 25.2611C40.5693 24.048 40.7965 22.9783 41.2509 22.0519C41.7052 21.1035 42.3002 20.3536 43.0359 19.8022C43.7715 19.2287 44.5288 18.9419 45.3077 18.9419C45.8486 18.9419 46.3571 19.0412 46.8331 19.2397C47.3307 19.4382 47.731 19.736 48.0339 20.133L46.1191 23.7723Z" fill="url(#paint1_linear_610_718)"/>
<path d="M56.8291 34.8557C55.2064 34.8557 53.7892 34.5249 52.5775 33.8632C51.3659 33.2015 50.4247 32.2861 49.754 31.1171C49.1049 29.9261 48.7803 28.5255 48.7803 26.9154C48.7803 25.2832 49.1049 23.8826 49.754 22.7136C50.4247 21.5226 51.3659 20.6072 52.5775 19.9676C53.7892 19.3059 55.2172 18.975 56.8615 18.975C58.5059 18.975 59.9015 19.2838 61.0482 19.9014C62.2166 20.4969 63.1037 21.3792 63.7095 22.5482C64.3153 23.6951 64.6182 25.0847 64.6182 26.7169C64.6182 26.9154 64.6074 27.1249 64.5858 27.3455C64.5858 27.566 64.5749 27.7425 64.5533 27.8748H51.182V25.2281H60.8859L59.75 26.75C59.8366 26.6176 59.9123 26.4412 59.9772 26.2206C60.0637 25.978 60.107 25.7795 60.107 25.6251C60.107 24.8752 59.9664 24.2355 59.6851 23.7062C59.4255 23.1768 59.0468 22.7577 58.5492 22.4489C58.0516 22.1401 57.4674 21.9857 56.7966 21.9857C55.9745 21.9857 55.2821 22.1732 54.7195 22.5482C54.1786 22.9011 53.7567 23.4415 53.4538 24.1693C53.1725 24.8752 53.0211 25.7574 52.9994 26.8161C52.9994 27.8307 53.1401 28.6909 53.4214 29.3967C53.7243 30.1025 54.1678 30.6429 54.752 31.0179C55.3362 31.3929 56.0394 31.5803 56.8615 31.5803C57.7919 31.5803 58.5816 31.4039 59.2307 31.051C59.9015 30.676 60.4532 30.1246 60.8859 29.3967L64.5533 30.5547C63.7744 31.9884 62.7358 33.0692 61.4377 33.797C60.1611 34.5028 58.6249 34.8557 56.8291 34.8557Z" fill="url(#paint2_linear_610_718)"/>
<path d="M65.1712 19.3059H69.6824L73.3498 28.4704L77.0172 19.3059H81.5284L73.3498 36.113L65.1712 19.3059Z" fill="url(#paint3_linear_610_718)"/>
<path d="M86.5264 29.7938C86.5264 30.2349 86.6346 30.6209 86.8509 30.9517C87.0673 31.2605 87.3594 31.5031 87.7272 31.6796C88.1167 31.834 88.5386 31.9112 88.9929 31.9112C89.642 31.9112 90.2262 31.7788 90.7455 31.5142C91.2648 31.2274 91.6867 30.8304 92.0112 30.3231C92.3358 29.7938 92.498 29.1651 92.498 28.4373L93.0173 30.4224C93.0173 31.3929 92.7469 32.2089 92.2059 32.8706C91.6867 33.5323 91.0051 34.0286 90.1613 34.3595C89.3391 34.6903 88.4737 34.8557 87.5649 34.8557C86.6346 34.8557 85.7691 34.6682 84.9686 34.2933C84.168 33.9183 83.5189 33.3779 83.0213 32.6721C82.5453 31.9443 82.3073 31.062 82.3073 30.0254C82.3073 28.5476 82.8157 27.3786 83.8326 26.5184C84.8495 25.6582 86.2884 25.2281 88.1491 25.2281C89.1011 25.2281 89.9341 25.3273 90.6481 25.5258C91.3838 25.7243 92.0004 25.967 92.498 26.2537C92.9957 26.5404 93.3527 26.8161 93.569 27.0808V29.0659C92.9849 28.6248 92.3249 28.2939 91.5893 28.0733C90.8753 27.8528 90.118 27.7425 89.3175 27.7425C88.6684 27.7425 88.1383 27.8307 87.7272 28.0072C87.3161 28.1616 87.0132 28.3932 86.8185 28.702C86.6237 28.9887 86.5264 29.3526 86.5264 29.7938ZM84.9036 23.6069L83.3458 20.6954C84.1247 20.2764 85.0767 19.8793 86.2018 19.5044C87.3269 19.1074 88.5818 18.9089 89.9666 18.9089C91.2431 18.9089 92.379 19.0963 93.3743 19.4713C94.3696 19.8463 95.1485 20.3977 95.7111 21.1255C96.2736 21.8314 96.5549 22.7026 96.5549 23.7392V34.5249H92.498V24.6325C92.498 24.2135 92.4331 23.8606 92.3033 23.5738C92.1735 23.265 91.9679 23.0114 91.6867 22.8129C91.427 22.6144 91.1133 22.471 90.7455 22.3828C90.3777 22.2945 89.9666 22.2504 89.5122 22.2504C88.8198 22.2504 88.1599 22.3276 87.5325 22.482C86.905 22.6364 86.3641 22.8239 85.9097 23.0445C85.4554 23.265 85.12 23.4525 84.9036 23.6069Z" fill="url(#paint4_linear_610_718)"/>
<g opacity="0.06">
<mask id="mask0_610_718" style="mask-type:alpha" maskUnits="userSpaceOnUse" x="0" y="0" width="111" height="47">
<path d="M32.4507 0.275414C32.4507 0.332607 32.4091 10.7223 32.3467 23.3614L32.2427 46.333H33.2828H34.3228L34.2188 23.3614C34.1356 0.637623 34.1148 0.389797 33.2828 0.275414C32.8251 0.199162 32.4507 0.199162 32.4507 0.275414Z" fill="black"/>
<path d="M56.0393 0.446987C55.8729 0.580433 55.748 10.9701 55.748 23.5139V46.333H56.7881H57.8282L57.7242 23.3614C57.6202 -0.410873 57.5786 -0.963718 56.0393 0.446987Z" fill="black"/>
<path d="M61.7803 23.4571V45.9521H62.7163H63.6524V23.4571V0.962112H62.7163H61.7803V23.4571Z" fill="black"/>
<path d="M29.4341 23.3616C29.5173 41.3005 29.5381 41.5674 30.3702 41.6817C31.2022 41.8152 31.2022 41.6436 31.2022 23.476V5.15593H30.2661H29.3301L29.4341 23.3616Z" fill="black"/>
<path d="M82.374 23.4566V40.9951H83.3101H84.2462V23.4566V5.91814H83.3101H82.374V23.4566Z" fill="black"/>
<path d="M58.8682 23.4565V40.2324H59.8042H60.7403V23.4565V6.68053H59.8042H58.8682V23.4565Z" fill="black"/>
<path d="M64.6929 23.4565V40.2324H65.6289H66.565V23.4565V6.68053H65.6289H64.6929V23.4565Z" fill="black"/>
<path d="M14.7695 23.4571V38.708H15.7056H16.6417V23.4571V8.20629H15.7056H14.7695V23.4571Z" fill="black"/>
<path d="M26.6256 8.3773C26.5008 13.5054 26.6672 38.3262 26.8336 38.3262C26.9376 38.3262 27.3329 38.3262 27.6657 38.3262C28.7058 38.3262 28.3937 8.45356 27.3537 8.28198C26.9584 8.20573 26.6256 8.24386 26.6256 8.3773Z" fill="black"/>
<path d="M85.2861 23.4566V38.3262H86.2222H87.1583V23.4566V8.587H86.2222H85.2861V23.4566Z" fill="black"/>
<path d="M18.3052 9.23501C17.7644 9.34939 17.6812 11.2557 17.6812 23.4755V37.5635H18.6172H19.5533V23.4755C19.5533 15.7357 19.4077 9.33032 19.2413 9.25407C19.0749 9.15875 18.6588 9.15875 18.3052 9.23501Z" fill="black"/>
<path d="M36.0908 9.25407C35.4044 9.38752 35.3628 10.3788 35.3628 23.4755V37.5635H36.2989H37.2349L37.1309 23.3992C37.0893 15.6213 37.0061 9.21594 36.9229 9.17782C36.8605 9.13969 36.4861 9.17782 36.0908 9.25407Z" fill="black"/>
<path d="M23.7138 9.92179C23.2562 19.9874 23.7762 37.0111 24.5251 37.1064C25.378 37.2399 25.378 37.1255 25.378 23.476C25.378 9.97898 25.3572 9.73116 24.5459 9.73116C24.0883 9.73116 23.7138 9.80741 23.7138 9.92179Z" fill="black"/>
<path d="M52.8359 23.4563V37.2393L53.772 37.1058L54.7081 36.9914V23.4563V9.92115L53.772 9.80677L52.8359 9.67333V23.4563Z" fill="black"/>
<path d="M79.4619 23.4567C79.4619 36.1721 79.4827 36.4199 80.294 36.4199C81.1052 36.4199 81.126 36.1721 81.126 23.4567C81.126 10.7413 81.1052 10.4935 80.294 10.4935C79.4827 10.4935 79.4619 10.7413 79.4619 23.4567Z" fill="black"/>
<path d="M68.3333 11.8848C67.314 12.2661 67.6052 34.8945 68.6453 34.8945C69.4566 34.8945 69.4774 34.6467 69.4774 23.2658C69.4774 16.8604 69.3318 11.656 69.1653 11.6751C68.9989 11.6751 68.6245 11.7895 68.3333 11.8848Z" fill="black"/>
<path d="M20.8013 23.4564C20.8013 34.6467 20.8221 34.8945 21.6333 34.8945C22.4446 34.8945 22.4654 34.6467 22.4654 23.4564C22.4654 12.2661 22.4446 12.0182 21.6333 12.0182C20.8221 12.0182 20.8013 12.2661 20.8013 23.4564Z" fill="black"/>
<path d="M11.6489 23.4562V34.1318H12.689H13.7291V23.4562V12.7806H12.689H11.6489V23.4562Z" fill="black"/>
<path d="M38.4832 14.3824C37.7967 15.9838 38.504 32.7979 39.2321 32.7979C40.2929 32.7979 40.3969 14.1918 39.3361 14.0012C38.9824 13.9249 38.5872 14.0965 38.4832 14.3824Z" fill="black"/>
<path d="M76.5498 23.4563C76.5498 31.9778 76.5706 32.2256 77.3819 32.2256C78.1931 32.2256 78.2139 31.9778 78.2139 23.4563C78.2139 14.9349 78.1931 14.6871 77.3819 14.6871C76.5706 14.6871 76.5498 14.9349 76.5498 23.4563Z" fill="black"/>
<path d="M88.1982 23.4562V31.4629H89.1343H90.0704V23.4562V15.4495H89.1343H88.1982V23.4562Z" fill="black"/>
<path d="M41.2911 23.3423C41.3951 29.6523 41.4575 30.1289 42.1647 30.1289C43.4544 30.1289 43.3504 16.8416 42.0607 16.67C41.1663 16.5366 41.1663 16.5938 41.2911 23.3423Z" fill="black"/>
<path d="M91.2979 17.0513C90.6322 18.6717 91.3187 30.1289 92.1091 30.1289C93.2116 30.1289 93.2948 16.8607 92.1923 16.67C91.8179 16.5938 91.4227 16.7653 91.2979 17.0513Z" fill="black"/>
<path d="M8.73682 23.4571V28.7949H9.77689H10.817V23.4571V18.1193H9.77689H8.73682V23.4571Z" fill="black"/>
<path d="M70.7256 23.4571C70.7256 28.5471 70.7672 28.7949 71.5576 28.7949C72.3481 28.7949 72.3897 28.5471 72.3897 23.4571C72.3897 18.3671 72.3481 18.1193 71.5576 18.1193C70.7672 18.1193 70.7256 18.3671 70.7256 23.4571Z" fill="black"/>
<path d="M94.0229 23.4571C94.0229 28.7377 94.0229 28.7949 94.959 28.7949C95.8951 28.7949 95.8951 28.7377 95.8951 23.4571C95.8951 18.1765 95.8951 18.1193 94.959 18.1193C94.0229 18.1193 94.0229 18.1765 94.0229 23.4571Z" fill="black"/>
<path d="M97.0181 23.3617C97.1429 27.5938 97.1845 27.8417 98.0165 27.9561C98.8902 28.0704 98.911 27.937 98.911 23.4761V18.8818H97.9125H96.9141L97.0181 23.3617Z" fill="black"/>
<path d="M49.9238 23.4564C49.9238 27.5551 49.9446 27.6504 50.8599 27.6504C51.7752 27.6504 51.796 27.5551 51.796 23.4564C51.796 19.3577 51.7752 19.2624 50.8599 19.2624C49.9446 19.2624 49.9238 19.3577 49.9238 23.4564Z" fill="black"/>
<path d="M6.11583 20.273C5.22137 21.0737 5.82461 26.5068 6.80228 26.5068C7.73835 26.5068 7.77995 26.4115 7.73835 23.3613C7.69675 20.3112 7.17671 19.3008 6.11583 20.273Z" fill="black"/>
<path d="M73.6372 23.4563C73.6372 26.6399 73.6996 26.8877 74.4693 26.8877C75.2389 26.8877 75.3013 26.6399 75.3013 23.4563C75.3013 20.2726 75.2389 20.0248 74.4693 20.0248C73.6996 20.0248 73.6372 20.2726 73.6372 23.4563Z" fill="black"/>
<path d="M99.8472 23.4571C99.8472 26.0497 99.868 26.126 100.887 26.126C101.907 26.126 101.927 26.0497 101.927 23.4571C101.927 20.8644 101.907 20.7882 100.887 20.7882C99.868 20.7882 99.8472 20.8644 99.8472 23.4571Z" fill="black"/>
<path d="M2.9126 23.4569C2.9126 25.2298 2.975 25.3633 3.95267 25.3633C4.93034 25.3633 4.99275 25.2298 4.99275 23.4569C4.99275 21.684 4.93034 21.5506 3.95267 21.5506C2.975 21.5506 2.9126 21.684 2.9126 23.4569Z" fill="black"/>
<path d="M44.0996 23.6471C44.0996 25.5726 44.1828 25.7441 45.0565 25.7441C45.9509 25.7441 46.0133 25.5916 45.9925 23.6471C45.9717 21.7408 45.8885 21.5502 45.0357 21.5502C44.1828 21.5502 44.0996 21.7217 44.0996 23.6471Z" fill="black"/>
<path d="M102.926 22.484C102.469 23.5706 102.947 24.7907 103.904 24.9051C104.736 25.0195 104.84 24.867 104.84 23.4753C104.84 21.874 103.467 21.1496 102.926 22.484Z" fill="black"/>
<path d="M0 23.4568C0 24.4862 0.145611 24.6388 0.936068 24.5244C1.62252 24.4481 1.87214 24.1622 1.87214 23.4568C1.87214 22.7515 1.62252 22.4655 0.936068 22.3892C0.145611 22.2749 0 22.4274 0 23.4568Z" fill="black"/>
<path d="M47.0949 23.3226C47.1781 24.1232 47.4485 24.4092 48.0518 24.4092C49.3414 24.4092 49.2166 22.5409 47.9269 22.3694C47.0741 22.2741 46.9701 22.3884 47.0949 23.3226Z" fill="black"/>
<path d="M105.671 23.4562C105.671 24.0091 105.942 24.2188 106.711 24.2188C107.481 24.2188 107.752 24.0091 107.752 23.4562C107.752 22.9034 107.481 22.6937 106.711 22.6937C105.942 22.6937 105.671 22.9034 105.671 23.4562Z" fill="black"/>
<path d="M108.793 23.0749C108.418 23.6468 108.938 24.2188 109.853 24.2188C110.394 24.2188 110.665 23.9519 110.665 23.4562C110.665 22.6555 109.271 22.3696 108.793 23.0749Z" fill="black"/>
</mask>
<g mask="url(#mask0_610_718)">
<rect x="0.286133" y="-3.71777" width="110.664" height="51.7576" fill="url(#paint5_linear_610_718)"/>
</g>
</g>
<defs>
<linearGradient id="paint0_linear_610_718" x1="14.1094" y1="23.5076" x2="96.5549" y2="23.5076" gradientUnits="userSpaceOnUse">
<stop stop-color="#00CC99"/>
<stop offset="1" stop-color="#3C91E6"/>
</linearGradient>
<linearGradient id="paint1_linear_610_718" x1="14.1094" y1="23.5076" x2="96.5549" y2="23.5076" gradientUnits="userSpaceOnUse">
<stop stop-color="#00CC99"/>
<stop offset="1" stop-color="#3C91E6"/>
</linearGradient>
<linearGradient id="paint2_linear_610_718" x1="14.1094" y1="23.5076" x2="96.5549" y2="23.5076" gradientUnits="userSpaceOnUse">
<stop stop-color="#00CC99"/>
<stop offset="1" stop-color="#3C91E6"/>
</linearGradient>
<linearGradient id="paint3_linear_610_718" x1="14.1094" y1="23.5076" x2="96.5549" y2="23.5076" gradientUnits="userSpaceOnUse">
<stop stop-color="#00CC99"/>
<stop offset="1" stop-color="#3C91E6"/>
</linearGradient>
<linearGradient id="paint4_linear_610_718" x1="14.1094" y1="23.5076" x2="96.5549" y2="23.5076" gradientUnits="userSpaceOnUse">
<stop stop-color="#00CC99"/>
<stop offset="1" stop-color="#3C91E6"/>
</linearGradient>
<linearGradient id="paint5_linear_610_718" x1="0.286133" y1="22.161" x2="110.95" y2="22.161" gradientUnits="userSpaceOnUse">
<stop stop-color="#00CC99"/>
<stop offset="1" stop-color="#3C91E6"/>
</linearGradient>
</defs>
</svg>
