<svg width="208" height="88" viewBox="0 0 208 88" fill="none" xmlns="http://www.w3.org/2000/svg">
<path d="M35.9452 43.7297C35.9452 46.5878 36.575 49.0938 37.8347 51.2477C39.1349 53.3603 40.8212 54.9964 42.8935 56.1562C44.9658 57.2746 47.2209 57.8338 49.6589 57.8338C51.6905 57.8338 53.4987 57.5646 55.0834 57.0261C56.6681 56.4876 58.0902 55.7627 59.3499 54.8515C60.6501 53.9402 61.7675 52.946 62.7021 51.8691V61.8725C60.9549 63.2808 59.0451 64.3785 56.9728 65.1655C54.9412 65.9525 52.361 66.346 49.2322 66.346C45.9816 66.346 42.9544 65.8076 40.1507 64.7306C37.3877 63.6536 34.97 62.1003 32.8977 60.0706C30.8661 58.0409 29.2814 55.6592 28.1437 52.9253C27.0466 50.1501 26.498 47.0848 26.498 43.7297C26.498 40.3745 27.0466 37.33 28.1437 34.5961C29.2814 31.8209 30.8661 29.4184 32.8977 27.3887C34.97 25.359 37.3877 23.8057 40.1507 22.7287C42.9544 21.6518 45.9816 21.1133 49.2322 21.1133C52.361 21.1133 54.9412 21.5068 56.9728 22.2938C59.0451 23.0808 60.9549 24.1785 62.7021 25.5869V35.5903C61.7675 34.5133 60.6501 33.5192 59.3499 32.6079C58.0902 31.6966 56.6681 30.9717 55.0834 30.4332C53.4987 29.8947 51.6905 29.6255 49.6589 29.6255C47.2209 29.6255 44.9658 30.2054 42.8935 31.3652C40.8212 32.4836 39.1349 34.0991 37.8347 36.2116C36.575 38.3241 35.9452 40.8301 35.9452 43.7297Z" fill="url(#paint0_linear_1038_6040)"/>
<path d="M78.3837 36.895V65.4762H70.6431V36.895H78.3837ZM86.6119 45.283C86.0837 44.7859 85.5351 44.4131 84.9663 44.1646C84.4381 43.8746 83.7676 43.7297 82.9549 43.7297C81.9798 43.7297 81.1468 43.9989 80.456 44.5374C79.7653 45.0759 79.237 45.8422 78.8713 46.8363C78.5463 47.789 78.3837 48.9488 78.3837 50.3158L76.1895 48.079C76.1895 45.8008 76.6162 43.7918 77.4695 42.0521C78.3228 40.2709 79.4402 38.8626 80.8217 37.827C82.2032 36.7501 83.6254 36.2116 85.0882 36.2116C86.104 36.2116 87.0589 36.398 87.9528 36.7708C88.8874 37.1436 89.6391 37.7028 90.2079 38.4484L86.6119 45.283Z" fill="url(#paint1_linear_1038_6040)"/>
<path d="M106.725 66.0975C103.678 66.0975 101.016 65.4762 98.7409 64.2335C96.4654 62.9909 94.6979 61.2719 93.4383 59.0765C92.2193 56.8397 91.6098 54.2094 91.6098 51.1856C91.6098 48.1204 92.2193 45.4901 93.4383 43.2947C94.6979 41.0579 96.4654 39.3389 98.7409 38.1377C101.016 36.895 103.698 36.2737 106.786 36.2737C109.874 36.2737 112.495 36.8536 114.649 38.0134C116.843 39.1318 118.509 40.7887 119.647 42.9841C120.784 45.138 121.353 47.7476 121.353 50.8128C121.353 51.1856 121.333 51.5791 121.292 51.9933C121.292 52.4076 121.272 52.7389 121.231 52.9875H96.12V48.0168H114.344L112.211 50.875C112.373 50.6264 112.515 50.295 112.637 49.8808C112.8 49.4252 112.881 49.0524 112.881 48.7624C112.881 47.3541 112.617 46.1528 112.089 45.1587C111.601 44.1646 110.89 43.3776 109.956 42.7977C109.021 42.2178 107.924 41.9278 106.664 41.9278C105.12 41.9278 103.82 42.2799 102.764 42.9841C101.748 43.6468 100.955 44.6617 100.387 46.0286C99.8583 47.3541 99.5739 49.011 99.5332 50.9992C99.5332 52.9046 99.7973 54.5201 100.326 55.8456C100.894 57.1711 101.727 58.1859 102.825 58.8901C103.922 59.5943 105.242 59.9464 106.786 59.9464C108.533 59.9464 110.017 59.615 111.236 58.9522C112.495 58.2481 113.531 57.2125 114.344 55.8456L121.231 58.0202C119.768 60.7127 117.818 62.7423 115.38 64.1093C112.983 65.4348 110.098 66.0975 106.725 66.0975Z" fill="url(#paint2_linear_1038_6040)"/>
<path d="M122.392 36.895H130.864L137.751 54.1059L144.638 36.895H153.11L137.751 68.4586L122.392 36.895Z" fill="url(#paint3_linear_1038_6040)"/>
<path d="M162.496 56.5912C162.496 57.4196 162.7 58.1445 163.106 58.7658C163.512 59.3457 164.061 59.8014 164.752 60.1328C165.483 60.4227 166.275 60.5677 167.129 60.5677C168.348 60.5677 169.445 60.3192 170.42 59.8221C171.395 59.2836 172.187 58.538 172.797 57.5853C173.406 56.5912 173.711 55.4107 173.711 54.0437L174.686 57.7717C174.686 59.5943 174.178 61.1269 173.163 62.3695C172.187 63.6122 170.908 64.5442 169.323 65.1655C167.779 65.7868 166.153 66.0975 164.447 66.0975C162.7 66.0975 161.074 65.7454 159.571 65.0413C158.067 64.3371 156.849 63.3222 155.914 61.9967C155.02 60.6298 154.573 58.9729 154.573 57.0261C154.573 54.2508 155.528 52.0555 157.438 50.44C159.347 48.8246 162.05 48.0168 165.544 48.0168C167.332 48.0168 168.896 48.2032 170.237 48.576C171.619 48.9488 172.777 49.4045 173.711 49.943C174.646 50.4814 175.316 50.9992 175.723 51.4963V55.2243C174.625 54.3958 173.386 53.7745 172.005 53.3603C170.664 52.946 169.242 52.7389 167.738 52.7389C166.519 52.7389 165.524 52.9046 164.752 53.236C163.98 53.526 163.411 53.9609 163.045 54.5408C162.679 55.0793 162.496 55.7627 162.496 56.5912ZM159.449 44.9723L156.523 39.5046C157.986 38.7176 159.774 37.972 161.887 37.2678C164 36.5222 166.357 36.1494 168.957 36.1494C171.354 36.1494 173.488 36.5015 175.357 37.2057C177.226 37.9099 178.689 38.9454 179.745 40.3124C180.802 41.6379 181.33 43.274 181.33 45.2209V65.4762H173.711V46.8984C173.711 46.1114 173.589 45.4487 173.346 44.9102C173.102 44.3303 172.716 43.8539 172.187 43.4811C171.7 43.1083 171.111 42.8391 170.42 42.6734C169.729 42.5077 168.957 42.4249 168.104 42.4249C166.804 42.4249 165.564 42.5698 164.386 42.8598C163.208 43.1498 162.192 43.5018 161.338 43.9161C160.485 44.3303 159.855 44.6824 159.449 44.9723Z" fill="url(#paint4_linear_1038_6040)"/>
<g opacity="0.06">
<mask id="mask0_1038_6040" style="mask-type:alpha" maskUnits="userSpaceOnUse" x="0" y="0" width="208" height="88">
<path d="M60.9414 1.15662C60.9414 1.26402 60.8633 20.7757 60.7461 44.5119L60.5508 87.6523H62.504H64.4573L64.262 44.5119C64.1057 1.83685 64.0666 1.37143 62.504 1.15662C61.6446 1.01342 60.9414 1.01342 60.9414 1.15662Z" fill="black"/>
<path d="M105.24 1.47884C104.928 1.72945 104.693 21.2411 104.693 44.7983V87.6523H106.647H108.6L108.405 44.5119C108.209 -0.13221 108.131 -1.17045 105.24 1.47884Z" fill="black"/>
<path d="M116.023 44.6921V86.9375H117.781H119.539V44.6921V2.44664H117.781H116.023V44.6921Z" fill="black"/>
<path d="M55.2774 44.5124C55.4336 78.2013 55.4727 78.7026 57.0353 78.9174C58.5979 79.168 58.5979 78.8458 58.5979 44.7272V10.3223H56.84H55.082L55.2774 44.5124Z" fill="black"/>
<path d="M154.697 44.6908V77.6279H156.455H158.213V44.6908V11.7537H156.455H154.697V44.6908Z" fill="black"/>
<path d="M110.555 44.6903V76.1953H112.313H114.071V44.6903V13.1852H112.313H110.555V44.6903Z" fill="black"/>
<path d="M121.492 44.6903V76.1953H123.25H125.008V44.6903V13.1852H123.25H121.492V44.6903Z" fill="black"/>
<path d="M27.7383 44.692V73.333H29.4962H31.2541V44.692V16.0511H29.4962H27.7383V44.692Z" fill="black"/>
<path d="M50.0037 16.3725C49.7693 26.003 50.0818 72.6162 50.3944 72.6162C50.5897 72.6162 51.3319 72.6162 51.957 72.6162C53.9102 72.6162 53.3242 16.5157 51.371 16.1935C50.6288 16.0503 50.0037 16.1219 50.0037 16.3725Z" fill="black"/>
<path d="M160.166 44.6913V72.6162H161.924H163.682V44.6913V16.7663H161.924H160.166V44.6913Z" fill="black"/>
<path d="M34.377 17.983C33.3613 18.1978 33.2051 21.7779 33.2051 44.7265V71.1836H34.963H36.7209V44.7265C36.7209 30.1912 36.4475 18.162 36.135 18.0188C35.8224 17.8398 35.0411 17.8398 34.377 17.983Z" fill="black"/>
<path d="M67.7774 18.0188C66.4883 18.2694 66.4102 20.1311 66.4102 44.7265V71.1836H68.1681H69.926L69.7307 44.5833C69.6526 29.9764 69.4963 17.9472 69.34 17.8756C69.2228 17.804 68.5197 17.8756 67.7774 18.0188Z" fill="black"/>
<path d="M44.5337 19.2722C43.6742 38.1753 44.6509 70.1458 46.0572 70.3248C47.6589 70.5754 47.6589 70.3606 47.6589 44.7269C47.6589 19.3797 47.6198 18.9142 46.0963 18.9142C45.2368 18.9142 44.5337 19.0574 44.5337 19.2722Z" fill="black"/>
<path d="M99.2266 44.6899V70.5742L100.984 70.3236L102.742 70.1088V44.6899V19.2711L100.984 19.0563L99.2266 18.8057V44.6899Z" fill="black"/>
<path d="M149.229 44.6913C149.229 68.5707 149.268 69.0361 150.791 69.0361C152.315 69.0361 152.354 68.5707 152.354 44.6913C152.354 20.8119 152.315 20.3465 150.791 20.3465C149.268 20.3465 149.229 20.8119 149.229 44.6913Z" fill="black"/>
<path d="M128.329 22.9588C126.414 23.6749 126.961 66.1709 128.915 66.1709C130.438 66.1709 130.477 65.7055 130.477 44.3322C130.477 32.303 130.204 22.5292 129.891 22.565C129.579 22.565 128.876 22.7798 128.329 22.9588Z" fill="black"/>
<path d="M39.0645 44.6902C39.0645 65.7055 39.1035 66.1709 40.6271 66.1709C42.1506 66.1709 42.1897 65.7055 42.1897 44.6902C42.1897 23.6749 42.1506 23.2094 40.6271 23.2094C39.1035 23.2094 39.0645 23.6749 39.0645 44.6902Z" fill="black"/>
<path d="M21.877 44.6906V64.7393H23.8302H25.7835V44.6906V24.6419H23.8302H21.877V44.6906Z" fill="black"/>
<path d="M72.2722 27.6494C70.983 30.6567 72.3113 62.2334 73.6785 62.2334C75.6708 62.2334 75.8662 27.2914 73.8739 26.9334C73.2097 26.7902 72.4675 27.1124 72.2722 27.6494Z" fill="black"/>
<path d="M143.76 44.6906C143.76 60.6938 143.799 61.1592 145.322 61.1592C146.846 61.1592 146.885 60.6938 146.885 44.6906C146.885 28.6875 146.846 28.2221 145.322 28.2221C143.799 28.2221 143.76 28.6875 143.76 44.6906Z" fill="black"/>
<path d="M165.635 44.6901V59.7266H167.393H169.151V44.6901V29.6535H167.393H165.635V44.6901Z" fill="black"/>
<path d="M77.5437 44.4764C77.7391 56.3266 77.8563 57.2217 79.1845 57.2217C81.6065 57.2217 81.4112 32.2682 78.9892 31.946C77.3094 31.6954 77.3094 31.8028 77.5437 44.4764Z" fill="black"/>
<path d="M171.456 32.6621C170.205 35.7052 171.495 57.2217 172.979 57.2217C175.05 57.2217 175.206 32.304 173.135 31.946C172.432 31.8028 171.69 32.125 171.456 32.6621Z" fill="black"/>
<path d="M16.4082 44.6925V54.7168H18.3615H20.3147V44.6925V34.6681H18.3615H16.4082V44.6925Z" fill="black"/>
<path d="M132.822 44.6925C132.822 54.2514 132.9 54.7168 134.385 54.7168C135.869 54.7168 135.947 54.2514 135.947 44.6925C135.947 35.1335 135.869 34.6681 134.385 34.6681C132.9 34.6681 132.822 35.1335 132.822 44.6925Z" fill="black"/>
<path d="M176.574 44.6925C176.574 54.6094 176.574 54.7168 178.332 54.7168C180.09 54.7168 180.09 54.6094 180.09 44.6925C180.09 34.7755 180.09 34.6681 178.332 34.6681C176.574 34.6681 176.574 34.7755 176.574 44.6925Z" fill="black"/>
<path d="M182.199 44.5125C182.434 52.4603 182.512 52.9257 184.074 53.1406C185.715 53.3554 185.754 53.1048 185.754 44.7273V36.0992H183.879H182.004L182.199 44.5125Z" fill="black"/>
<path d="M93.7559 44.6901C93.7559 52.3874 93.7949 52.5664 95.5138 52.5664C97.2326 52.5664 97.2717 52.3874 97.2717 44.6901C97.2717 36.9929 97.2326 36.8139 95.5138 36.8139C93.7949 36.8139 93.7559 36.9929 93.7559 44.6901Z" fill="black"/>
<path d="M11.485 38.7119C9.80518 40.2156 10.9381 50.4189 12.7741 50.4189C14.532 50.4189 14.6102 50.2399 14.532 44.5117C14.4539 38.7836 13.4773 36.8861 11.485 38.7119Z" fill="black"/>
<path d="M138.289 44.6896C138.289 50.6684 138.406 51.1338 139.852 51.1338C141.297 51.1338 141.414 50.6684 141.414 44.6896C141.414 38.7108 141.297 38.2454 139.852 38.2454C138.406 38.2454 138.289 38.7108 138.289 44.6896Z" fill="black"/>
<path d="M187.512 44.691C187.512 49.5599 187.551 49.7031 189.465 49.7031C191.379 49.7031 191.418 49.5599 191.418 44.691C191.418 39.822 191.379 39.6788 189.465 39.6788C187.551 39.6788 187.512 39.822 187.512 44.691Z" fill="black"/>
<path d="M5.4707 44.6914C5.4707 48.0209 5.5879 48.2715 7.42395 48.2715C9.26001 48.2715 9.37721 48.0209 9.37721 44.6914C9.37721 41.3619 9.26001 41.1112 7.42395 41.1112C5.5879 41.1112 5.4707 41.3619 5.4707 44.6914Z" fill="black"/>
<path d="M82.8184 45.0482C82.8184 48.6641 82.9746 48.9863 84.6154 48.9863C86.2951 48.9863 86.4123 48.6999 86.3733 45.0482C86.3342 41.4681 86.178 41.1101 84.5763 41.1101C82.9746 41.1101 82.8184 41.4323 82.8184 45.0482Z" fill="black"/>
<path d="M193.294 42.8648C192.434 44.9055 193.333 47.1968 195.13 47.4116C196.692 47.6264 196.888 47.34 196.888 44.7265C196.888 41.7192 194.309 40.3587 193.294 42.8648Z" fill="black"/>
<path d="M0 44.6914C0 46.6246 0.273455 46.911 1.75793 46.6962C3.04707 46.553 3.51585 46.016 3.51585 44.6914C3.51585 43.3667 3.04707 42.8297 1.75793 42.6865C0.273455 42.4717 0 42.7581 0 44.6914Z" fill="black"/>
<path d="M88.4432 44.4388C88.5995 45.9425 89.1073 46.4795 90.2402 46.4795C92.6623 46.4795 92.4279 42.971 90.0058 42.6488C88.4042 42.4698 88.2088 42.6846 88.4432 44.4388Z" fill="black"/>
<path d="M198.449 44.69C198.449 45.7283 198.957 46.1221 200.402 46.1221C201.848 46.1221 202.356 45.7283 202.356 44.69C202.356 43.6518 201.848 43.258 200.402 43.258C198.957 43.258 198.449 43.6518 198.449 44.69Z" fill="black"/>
<path d="M204.31 43.974C203.607 45.048 204.584 46.1221 206.303 46.1221C207.318 46.1221 207.826 45.6209 207.826 44.69C207.826 43.1864 205.209 42.6494 204.31 43.974Z" fill="black"/>
</mask>
<g mask="url(#mask0_1038_6040)">
<rect x="0.537109" y="-6.34277" width="207.826" height="97.2003" fill="url(#paint5_linear_1038_6040)"/>
</g>
</g>
<defs>
<linearGradient id="paint0_linear_1038_6040" x1="26.498" y1="44.7859" x2="181.33" y2="44.7859" gradientUnits="userSpaceOnUse">
<stop offset="1" stop-color="#087E8B"/>
</linearGradient>
<linearGradient id="paint1_linear_1038_6040" x1="26.498" y1="44.7859" x2="181.33" y2="44.7859" gradientUnits="userSpaceOnUse">
<stop offset="1" stop-color="#087E8B"/>
</linearGradient>
<linearGradient id="paint2_linear_1038_6040" x1="26.498" y1="44.7859" x2="181.33" y2="44.7859" gradientUnits="userSpaceOnUse">
<stop offset="1" stop-color="#087E8B"/>
</linearGradient>
<linearGradient id="paint3_linear_1038_6040" x1="26.498" y1="44.7859" x2="181.33" y2="44.7859" gradientUnits="userSpaceOnUse">
<stop offset="1" stop-color="#087E8B"/>
</linearGradient>
<linearGradient id="paint4_linear_1038_6040" x1="26.498" y1="44.7859" x2="181.33" y2="44.7859" gradientUnits="userSpaceOnUse">
<stop offset="1" stop-color="#087E8B"/>
</linearGradient>
<linearGradient id="paint5_linear_1038_6040" x1="0.537109" y1="42.2574" x2="208.363" y2="42.2574" gradientUnits="userSpaceOnUse">
<stop offset="1" stop-color="#087E8B"/>
</linearGradient>
</defs>
</svg>
