<svg width="18" height="11" viewBox="0 0 18 11" fill="none" xmlns="http://www.w3.org/2000/svg">
<mask id="mask0_1158_1021" style="mask-type:alpha" maskUnits="userSpaceOnUse" x="0" y="0" width="18" height="11">
<path d="M10.3266 0.0659637C9.35907 0.224293 8.4736 0.526292 7.76112 0.945571L7.39754 1.15961L6.99292 1.08924C6.02536 0.927979 4.70008 1.02767 3.72079 1.33846C-0.0497991 2.54059 -0.976319 6.22615 1.92932 8.46328L2.15802 8.6392L2.03194 9.54227C1.87654 10.6418 1.87361 10.7825 2.01141 10.9057C2.202 11.0786 2.3398 11.0112 3.33669 10.2635L4.32185 9.52468L4.75579 9.58918C5.83184 9.74751 7.22456 9.6273 8.17746 9.28718C8.78732 9.07021 8.82837 9.07021 9.55258 9.26666C10.6286 9.554 12.0213 9.60091 13.1033 9.38394C13.2205 9.36048 13.461 9.51002 14.3611 10.1785C15.9913 11.3865 16.047 11.3572 15.7626 9.45138L15.6072 8.39878L15.8066 8.24925C19.3778 5.58697 17.8766 1.12442 13.0739 0.124604C12.423 -0.0132008 10.9893 -0.0425215 10.3266 0.0659637ZM12.986 0.825358C17.2404 1.73135 18.507 5.72477 15.1997 7.80651C14.839 8.03521 14.839 8.03521 14.9827 8.97932C15.0501 9.42206 15.097 9.79149 15.0853 9.80029C15.0765 9.80908 14.7511 9.58332 14.364 9.29598C13.373 8.55711 13.4375 8.5835 12.9068 8.68612C9.42357 9.35169 5.98724 7.40189 5.98724 4.7572C5.98724 2.10079 9.55845 0.0952845 12.986 0.825358ZM6.35081 2.0832C4.574 4.05059 5.05192 6.80376 7.43273 8.3548L7.89012 8.65093L7.57933 8.73889C6.78768 8.96466 5.5533 9.01744 4.7382 8.86204C4.48604 8.81513 4.24855 8.77408 4.21337 8.77408C4.18111 8.77408 3.83807 9.00864 3.45397 9.29891C3.06988 9.58625 2.74442 9.81201 2.73269 9.79735C2.71803 9.78563 2.75322 9.48363 2.80893 9.12299C2.93207 8.31961 2.91448 8.24338 2.56557 8.03814C2.16095 7.80065 1.49245 7.09989 1.27548 6.68648C-0.0116829 4.25583 2.27823 1.78413 5.85237 1.74601L6.66161 1.73722L6.35081 2.0832Z" fill="black"/>
<path d="M10.9626 2.17978C10.1093 2.49643 9.5376 3.85103 10.1738 4.05334C10.3791 4.11784 10.5638 3.94779 10.6107 3.65165C10.7427 2.75739 11.7659 2.49057 12.2996 3.21185C12.6016 3.61647 12.4198 4.28497 11.9448 4.52246C11.2909 4.85378 10.942 5.66595 11.2616 6.12335C11.4903 6.4488 11.8744 6.21424 11.8744 5.74512C11.8744 5.44898 11.9888 5.27013 12.2263 5.18217C12.6631 5.02384 13.0912 4.41984 13.1469 3.88621C13.2671 2.7134 12.0621 1.77222 10.9626 2.17978Z" fill="black"/>
<path d="M11.2866 6.83922C10.9758 7.15001 11.3804 7.58982 11.744 7.33473C11.9961 7.15588 11.8466 6.72194 11.5299 6.72194C11.4625 6.72194 11.3511 6.77472 11.2866 6.83922Z" fill="black"/>
</mask>
<g mask="url(#mask0_1158_1021)">
<rect x="0.21875" y="-4.05078" width="18.3115" height="18.8132" fill="url(#paint0_linear_1158_1021)"/>
</g>
<defs>
<linearGradient id="paint0_linear_1158_1021" x1="0.21875" y1="-4.05078" x2="22.4662" y2="4.3969" gradientUnits="userSpaceOnUse">
<stop stop-color="#F3F520"/>
<stop offset="1" stop-color="#59D102"/>
</linearGradient>
</defs>
</svg>
