<svg width="100%" height="100%" viewBox="0 0 1330 1079" fill="none" xmlns="http://www.w3.org/2000/svg">
<path d="M5.83531 387.621C9.26784 387.621 17.8492 403.347 25.744 421.693C38.7876 454.018 40.8472 455.765 65.9047 459.26C85.4701 462.754 92.6784 461.007 92.6784 453.144C92.6784 445.281 85.4701 443.534 67.6209 446.155C43.2499 449.65 42.9067 449.65 29.863 418.199C22.998 401.6 17.1627 386.748 17.1627 385C17.1627 384.127 39.1309 384.127 65.9047 385.874L114.99 388.495L143.137 460.133C158.926 499.447 171.627 536.14 171.627 542.255C171.627 557.981 178.492 565.844 182.954 554.486C185.357 548.371 182.268 536.14 171.97 512.552L157.21 479.353L213.504 481.974C261.216 483.722 270.827 481.974 274.603 470.617C277.005 463.628 280.781 457.512 283.184 457.512C287.99 457.512 292.452 435.671 289.363 427.809C284.9 417.325 279.408 423.44 276.319 441.787C272.886 461.007 271.513 461.881 212.817 464.502L152.748 466.249L133.869 418.199L115.333 370.149H47.0257L55.2638 347.434C63.5019 325.593 63.8451 324.719 108.125 327.34C133.869 329.088 152.748 326.467 152.748 322.098C152.748 317.73 133.182 315.109 106.409 316.857C60.4126 319.478 60.0693 319.478 49.7717 344.813C40.5039 366.654 36.3849 370.149 19.5654 370.149C8.92459 370.149 0 373.643 0 378.885C0 383.253 2.74603 387.621 5.83531 387.621Z" fill="#0B132B" fill-opacity="0.025"/>
<path d="M145.632 437.265C165.884 439.012 166.913 438.139 179.957 404.067L193.344 369.121H230.415C268.86 369.121 284.649 357.764 284.649 328.934C284.649 307.966 274.352 315.829 270.919 338.544C267.83 358.637 265.77 360.385 247.921 360.385H228.356L253.756 294.862C278.814 231.086 279.844 229.339 296.32 229.339C312.453 229.339 314.855 232.834 330.988 272.147L348.151 315.829L384.193 317.576C413.026 319.324 420.234 317.576 420.234 307.966C420.234 298.356 413.026 296.609 384.193 298.356L348.151 300.104L334.421 265.158L321.034 229.339H417.145L450.784 316.703H567.833L684.539 317.576L693.807 338.544C699.299 349.901 703.418 363.879 703.418 369.121C703.418 373.489 705.821 377.858 708.567 377.858C711.313 377.858 713.716 371.742 713.716 364.753C713.716 357.764 712.343 351.648 710.627 351.648C708.91 351.648 702.732 339.417 696.896 324.566L686.256 297.483L598.726 300.977L511.196 303.598L534.194 244.191L557.192 185.657H667.377L777.218 184.783L800.559 127.997C813.259 97.4196 822.871 67.7158 821.841 63.3476C820.811 58.9794 810.513 79.9468 798.843 111.398L778.247 168.184H557.192L506.391 299.23H450.784L420.578 220.603H276.068L248.608 290.494C222.52 357.764 220.804 360.385 205.701 360.385C191.971 360.385 188.195 364.753 176.524 395.33C164.854 425.908 151.031 414.704 133.869 418.199L135.828 436.083L145.632 437.265Z" fill="#0B132B" fill-opacity="0.025"/>
<path d="M653.277 170.727C671.812 170.727 673.872 180.007 686.572 211.344L699.959 244.33H736.686C764.832 244.33 774.1 246.804 777.532 256.7C779.935 263.297 784.054 269.07 786.457 269.07C789.203 269.07 791.262 274.018 791.262 280.615C791.262 302.881 784.74 302.881 778.905 281.44C774.1 264.122 770.667 260.823 755.221 260.823H737.029L761.743 318.55C786.113 374.627 787.143 376.276 804.305 376.276C820.438 376.276 822.841 373.802 836.571 339.991L851.33 302.881L889.774 300.407C914.831 298.758 928.561 300.407 928.561 306.18C928.561 311.952 915.517 313.602 891.49 311.952L854.763 308.654L841.033 342.465L827.646 376.276H925.128L939.201 339.166L953.618 302.056H1191.49L1200.76 278.966C1205.9 266.596 1210.02 251.752 1210.02 245.979C1210.02 236.084 1217.57 231.96 1221.35 241.031C1224.44 248.453 1219.98 269.07 1215.51 269.07C1213.11 269.07 1207.62 278.141 1203.16 289.686L1195.26 310.303H1016.43L1063.8 425.756L1287.94 425.756L1300.64 458.742C1307.5 476.885 1317.12 497.501 1321.58 504.923C1331.19 519.767 1332.91 541.208 1325.01 541.208C1322.26 541.208 1319.86 536.26 1319.86 530.488C1319.86 524.715 1310.59 500.8 1299.61 476.885L1279.02 434.002H1060.37L1009.57 310.303H983.823C958.08 310.303 958.08 310.303 943.32 344.939L928.561 379.575L941.261 410.912C948.126 428.23 956.02 442.249 958.423 442.249C960.826 442.249 961.856 448.021 960.826 454.619C958.423 469.463 949.156 471.112 949.156 456.268C949.156 450.495 944.007 434.002 937.828 419.983L926.844 393.594L875.358 392.769C846.868 391.945 816.662 391.945 808.081 391.945L792.292 392.769L803.962 422.457L815.633 452.969L841.376 448.846C859.568 445.547 866.776 447.197 866.776 454.619C866.776 462.041 859.568 463.69 840.003 460.391L813.573 457.093L772.384 358.958C731.88 262.473 730.851 260.823 715.405 260.823C702.018 260.823 698.242 256.7 686.572 227.837C673.872 196.5 669.394 182.596 650.859 182.596C639.875 182.596 622.949 175.675 622.949 170.727C622.949 165.779 642.293 170.727 653.277 170.727Z" fill="#0B132B" fill-opacity="0.025"/>
<path d="M5.83531 784.612C9.26784 784.612 17.8492 800.337 25.744 818.683C38.7876 851.008 40.8472 852.755 65.9047 856.25C85.4701 859.744 92.6784 857.997 92.6784 850.134C92.6784 842.272 85.4701 840.524 67.6209 843.145C43.2499 846.64 42.9067 846.64 29.863 815.189C22.998 798.59 17.1627 783.738 17.1627 781.991C17.1627 781.117 39.1309 781.117 65.9047 782.864L114.99 785.485L143.137 857.124C158.926 896.437 171.627 933.13 171.627 939.246C171.627 954.971 178.492 962.834 182.954 951.477C185.357 945.361 182.268 933.13 171.97 909.542L157.21 876.344L213.504 878.965C261.216 880.712 270.827 878.965 274.603 867.607C277.005 860.618 280.781 854.503 283.184 854.503C287.99 854.503 292.452 832.662 289.363 824.799C284.9 814.315 279.408 820.431 276.319 838.777C272.886 857.997 271.513 858.871 212.817 861.492L152.748 863.239L133.869 815.189L115.333 767.139H47.0257L55.2638 744.424C63.5019 722.583 63.8451 721.71 108.125 724.33C133.869 726.078 152.748 723.457 152.748 719.089C152.748 714.72 133.182 712.1 106.409 713.847C60.4126 716.468 60.0693 716.468 49.7717 741.803C40.5039 763.644 36.3849 767.139 19.5654 767.139C8.92459 767.139 0 770.633 0 775.875C0 780.243 2.74603 784.612 5.83531 784.612Z" fill="#0B132B" fill-opacity="0.025"/>
<path d="M145.632 834.255C165.884 836.002 166.913 835.129 179.957 801.057L193.344 766.111H230.415C268.86 766.111 284.649 754.754 284.649 725.924C284.649 704.957 274.352 712.819 270.919 735.534C267.83 755.628 265.77 757.375 247.921 757.375H228.356L253.756 691.852C278.814 628.077 279.844 626.329 296.32 626.329C312.453 626.329 314.855 629.824 330.988 669.138L348.151 712.819L384.193 714.567C413.026 716.314 420.234 714.567 420.234 704.957C420.234 695.347 413.026 693.599 384.193 695.347L348.151 697.094L334.421 662.148L321.034 626.329H417.145L450.784 713.693H567.833L684.539 714.567L693.807 735.534C699.299 746.891 703.418 760.87 703.418 766.111C703.418 770.48 705.821 774.848 708.567 774.848C711.313 774.848 713.716 768.732 713.716 761.743C713.716 754.754 712.343 748.639 710.627 748.639C708.91 748.639 702.732 736.408 696.896 721.556L686.256 694.473L598.726 697.968L511.196 700.589L534.194 641.181L557.192 582.647H667.377L777.218 581.774L800.559 524.987C813.259 494.41 822.871 464.706 821.841 460.338C820.811 455.97 810.513 476.937 798.843 508.388L778.247 565.174H557.192L506.391 696.22H450.784L420.578 617.593H276.068L248.608 687.484C222.52 754.754 220.804 757.375 205.701 757.375C191.971 757.375 188.195 761.743 176.524 792.321C164.854 822.898 151.031 811.694 133.869 815.189L135.828 833.073L145.632 834.255Z" fill="#0B132B" fill-opacity="0.025"/>
<path d="M653.277 567.717C671.812 567.717 673.872 576.997 686.572 608.334L699.959 641.32H736.686C764.832 641.32 774.1 643.794 777.532 653.69C779.935 660.288 784.054 666.06 786.457 666.06C789.203 666.06 791.262 671.008 791.262 677.605C791.262 699.871 784.74 699.871 778.905 678.43C774.1 661.112 770.667 657.814 755.221 657.814H737.029L761.743 715.54C786.113 771.617 787.143 773.266 804.305 773.266C820.438 773.266 822.841 770.792 836.571 736.981L851.33 699.871L889.774 697.397C914.831 695.748 928.561 697.397 928.561 703.17C928.561 708.943 915.517 710.592 891.49 708.943L854.763 705.644L841.033 739.455L827.646 773.266H925.128L939.201 736.156L953.618 699.047H1191.49L1200.76 675.956C1205.9 663.586 1210.02 648.742 1210.02 642.97C1210.02 633.074 1217.57 628.95 1221.35 638.022C1224.44 645.444 1219.98 666.06 1215.51 666.06C1213.11 666.06 1207.62 675.131 1203.16 686.677L1195.26 707.293H1016.43L1063.8 822.746H1287.94L1300.64 855.732C1307.5 873.875 1317.12 894.491 1321.58 901.913C1331.19 916.757 1332.91 938.198 1325.01 938.198C1322.26 938.198 1319.86 933.25 1319.86 927.478C1319.86 921.705 1310.59 897.79 1299.61 873.875L1279.02 830.992H1060.37L1009.57 707.293H983.823C958.08 707.293 958.08 707.293 943.32 741.929L928.561 776.565L941.261 807.902C948.126 825.22 956.02 839.239 958.423 839.239C960.826 839.239 961.856 845.012 960.826 851.609C958.423 866.453 949.156 868.102 949.156 853.258C949.156 847.486 944.007 830.992 937.828 816.973L926.844 790.584L875.358 789.759C846.868 788.935 816.662 788.935 808.081 788.935L792.292 789.759L803.962 819.447L815.633 849.96L841.376 845.836C859.568 842.538 866.776 844.187 866.776 851.609C866.776 859.031 859.568 860.68 840.003 857.382L813.573 854.083L772.384 755.948C731.88 659.463 730.851 657.814 715.405 657.814C702.018 657.814 698.242 653.69 686.572 624.827C673.872 593.49 669.394 579.586 650.859 579.586C639.875 579.586 622.949 572.665 622.949 567.717C622.949 562.769 642.293 567.717 653.277 567.717Z" fill="#0B132B" fill-opacity="0.025"/>
<path d="M892.983 138.429C915.122 136.475 918.812 138.429 933.571 158.614L949.714 180.103L1011.06 182.707C1062.71 184.01 1071.94 183.358 1071.94 174.893C1071.94 166.428 1062.71 165.126 1010.59 167.08C950.636 169.033 949.252 169.033 938.644 152.754L928.036 136.475L972.775 140.382L1017.05 144.289L1044.26 106.522L1071.94 68.1036L1151.27 69.4059C1231.06 70.7082 1231.06 70.7082 1240.74 86.9871C1249.05 101.964 1250.89 102.615 1255.96 94.1499C1261.04 85.6848 1260.12 83.0802 1250.43 77.8709C1243.97 74.6152 1237.52 68.1036 1235.67 64.8478C1233.83 60.2897 1205.23 57.6851 1156.34 57.6851H1079.32L1092.69 38.1503C1099.61 27.7318 1107.91 19.9179 1110.22 20.5691C1112.99 21.2202 1116.21 16.6621 1117.14 10.1506C1120.37 -11.9888 1108.83 0.383194 1064.56 64.1966L1019.82 129.312H955.248H890.216L906.359 105.871L922.04 82.429L957.554 85.0337C988.917 87.6383 993.53 86.9871 993.53 77.2198C993.53 67.4524 988.917 66.8013 957.554 69.4059C922.963 72.0105 921.579 72.6617 901.285 100.661C889.755 116.289 877.763 129.312 874.535 129.312C871.306 129.312 869 131.917 869 134.522C869 137.126 880.069 139.08 892.983 138.429Z" fill="#0B132B" fill-opacity="0.025"/>
<path d="M34.9835 138.429C57.122 136.475 60.8118 138.429 75.5709 158.614L91.7136 180.103L153.056 182.707C204.713 184.01 213.937 183.358 213.937 174.893C213.937 166.428 204.713 165.126 152.595 167.08C92.636 169.033 91.2524 169.033 80.6443 152.754L70.0362 136.475L114.775 140.382L159.052 144.289L186.264 106.522L213.937 68.1036L293.267 69.4059C373.058 70.7082 373.058 70.7082 382.744 86.9871C391.046 101.964 392.891 102.615 397.964 94.1499C403.038 85.6848 402.115 83.0802 392.429 77.8709C385.972 74.6152 379.515 68.1036 377.67 64.8478C375.826 60.2897 347.23 57.6851 298.34 57.6851H221.317L234.692 38.1503C241.61 27.7318 249.912 19.9179 252.218 20.5691C254.986 21.2202 258.214 16.6621 259.137 10.1506C262.365 -11.9888 250.835 0.383194 206.558 64.1966L161.819 129.312H97.2482H32.2161L48.3589 105.871L64.0404 82.429L99.5544 85.0337C130.917 87.6383 135.53 86.9871 135.53 77.2198C135.53 67.4524 130.917 66.8013 99.5544 69.4059C64.9628 72.0105 63.5791 72.6617 43.2854 100.661C31.7549 116.289 19.7632 129.312 16.5346 129.312C13.3061 129.312 11 131.917 11 134.522C11 137.126 22.0693 139.08 34.9835 138.429Z" fill="#0B132B" fill-opacity="0.025"/>
<path d="M217.983 1034.2C240.122 1032.25 243.812 1034.2 258.571 1054.39L274.714 1075.88L336.056 1078.48C387.713 1079.78 396.937 1079.13 396.937 1070.67C396.937 1062.2 387.713 1060.9 335.595 1062.85C275.636 1064.81 274.252 1064.81 263.644 1048.53L253.036 1032.25L297.775 1036.16L342.052 1040.06L369.264 1002.3L396.937 963.877L476.267 965.179C556.058 966.482 556.058 966.482 565.744 982.761C574.046 997.737 575.891 998.388 580.964 989.923C586.038 981.458 585.115 978.854 575.429 973.644C568.972 970.389 562.515 963.877 560.67 960.621C558.826 956.063 530.23 953.458 481.34 953.458H404.317L417.692 933.924C424.61 923.505 432.912 915.691 435.218 916.343C437.986 916.994 441.214 912.436 442.137 905.924C445.365 883.785 433.835 896.157 389.558 959.97L344.819 1025.09H280.248H215.216L231.359 1001.64L247.04 978.202L282.554 980.807C313.917 983.412 318.53 982.761 318.53 972.993C318.53 963.226 313.917 962.575 282.554 965.179C247.963 967.784 246.579 968.435 226.285 996.435C214.755 1012.06 202.763 1025.09 199.535 1025.09C196.306 1025.09 194 1027.69 194 1030.3C194 1032.9 205.069 1034.85 217.983 1034.2Z" fill="#0B132B" fill-opacity="0.025"/>
</svg>
