<svg width="1330" height="636" viewBox="0 0 1330 636" fill="none" xmlns="http://www.w3.org/2000/svg">
<path d="M5.83531 228.477C9.26784 228.477 17.8492 237.746 25.744 248.56C38.7876 267.613 40.8472 268.643 65.9047 270.703C85.4701 272.763 92.6784 271.733 92.6784 267.098C92.6784 262.464 85.4701 261.434 67.6209 262.979C43.2499 265.039 42.9067 265.039 29.863 246.5C22.998 236.716 17.1627 227.962 17.1627 226.932C17.1627 226.417 39.1309 226.417 65.9047 227.447L114.99 228.992L143.137 271.218C158.926 294.391 171.627 316.019 171.627 319.624C171.627 328.893 178.492 333.527 182.954 326.833C185.357 323.228 182.268 316.019 171.97 302.115L157.21 282.547L213.504 284.092C261.216 285.122 270.827 284.092 274.603 277.397C277.005 273.278 280.781 269.673 283.184 269.673C287.99 269.673 292.452 256.799 289.363 252.165C284.9 245.985 279.408 249.59 276.319 260.404C272.886 271.733 271.513 272.248 212.817 273.793L152.748 274.823L133.869 246.5L115.333 218.178H47.0257L55.2638 204.789C63.5019 191.915 63.8451 191.4 108.125 192.945C133.869 193.975 152.748 192.43 152.748 189.855C152.748 187.281 133.182 185.736 106.409 186.766C60.4126 188.311 60.0693 188.311 49.7717 203.244C40.5039 216.118 36.3849 218.178 19.5654 218.178C8.92459 218.178 0 220.238 0 223.327C0 225.902 2.74603 228.477 5.83531 228.477Z" fill="#0B132B" fill-opacity="0.025"/>
<path d="M145.632 257.739C165.884 258.769 166.913 258.254 179.957 238.17L193.344 217.572H230.415C268.86 217.572 284.649 210.878 284.649 193.884C284.649 181.526 274.352 186.16 270.919 199.549C267.83 211.393 265.77 212.423 247.921 212.423H228.356L253.756 173.801C278.814 136.21 279.844 135.18 296.32 135.18C312.453 135.18 314.856 137.24 330.988 160.413L348.151 186.16L384.193 187.19C413.026 188.22 420.234 187.19 420.234 181.526C420.234 175.861 413.026 174.831 384.193 175.861L348.151 176.891L334.421 156.293L321.034 135.18H417.145L450.784 186.675H567.833L684.539 187.19L693.807 199.549C699.299 206.243 703.418 214.483 703.418 217.572C703.418 220.147 705.821 222.722 708.567 222.722C711.313 222.722 713.716 219.117 713.716 214.998C713.716 210.878 712.343 207.273 710.627 207.273C708.91 207.273 702.732 200.064 696.897 191.31L686.256 175.346L598.726 177.406L511.196 178.951L534.194 143.934L557.192 109.432H667.377L777.218 108.917L800.559 75.4453C813.259 57.4219 822.871 39.9135 821.841 37.3388C820.811 34.764 810.513 47.1229 798.843 65.6612L778.248 99.1331L557.192 99.1331L506.391 176.376H450.784L420.578 130.03H276.068L248.608 171.227C222.52 210.878 220.804 212.423 205.701 212.423C191.971 212.423 188.195 214.998 176.524 233.021C164.854 251.044 151.031 244.44 133.869 246.5L135.828 257.042L145.632 257.739Z" fill="#0B132B" fill-opacity="0.025"/>
<path d="M653.277 100.632C671.812 100.632 673.872 106.102 686.572 124.573L699.959 144.016H736.686C764.832 144.016 774.1 145.474 777.532 151.307C779.935 155.196 784.054 158.599 786.457 158.599C789.203 158.599 791.262 161.515 791.262 165.404C791.262 178.528 784.74 178.528 778.905 165.89C774.1 155.682 770.667 153.738 755.221 153.738H737.029L761.743 187.764C786.113 220.817 787.143 221.79 804.305 221.79C820.438 221.79 822.841 220.331 836.571 200.402L851.33 178.528L889.774 177.07C914.831 176.098 928.561 177.07 928.561 180.472C928.561 183.875 915.517 184.847 891.49 183.875L854.763 181.931L841.033 201.86L827.646 221.79H925.128L939.201 199.916L953.618 178.042H1191.49L1200.76 164.432C1205.9 157.14 1210.02 148.391 1210.02 144.988C1210.02 139.155 1217.57 136.725 1221.35 142.072C1224.44 146.447 1219.98 158.599 1215.51 158.599C1213.11 158.599 1207.62 163.946 1203.16 170.751L1195.26 182.903H1016.43L1063.8 250.955H1287.94L1300.64 270.398C1307.5 281.092 1317.12 293.244 1321.58 297.619C1331.19 306.368 1332.91 319.006 1325.01 319.006C1322.26 319.006 1319.86 316.09 1319.86 312.687C1319.86 309.285 1310.59 295.188 1299.61 281.092L1279.02 255.815H1060.37L1009.57 182.903H983.823C958.08 182.903 958.08 182.903 943.32 203.318L928.561 223.734L941.261 242.205C948.126 252.413 956.02 260.676 958.423 260.676C960.826 260.676 961.856 264.079 960.826 267.968C958.423 276.717 949.156 277.689 949.156 268.94C949.156 265.537 944.007 255.815 937.828 247.552L926.845 231.997L875.358 231.511C846.868 231.025 816.662 231.025 808.081 231.025L792.292 231.511L803.962 249.01L815.633 266.995L841.376 264.565C859.568 262.621 866.776 263.593 866.776 267.968C866.776 272.342 859.568 273.314 840.003 271.37L813.573 269.426L772.384 211.582C731.88 154.71 730.851 153.738 715.405 153.738C702.018 153.738 698.242 151.307 686.572 134.294C673.872 115.823 669.394 107.628 650.859 107.628C639.875 107.628 622.949 103.549 622.949 100.632C622.949 97.7155 642.293 100.632 653.277 100.632Z" fill="#0B132B" fill-opacity="0.025"/>
<path d="M5.83531 462.477C9.26784 462.477 17.8492 471.746 25.744 482.56C38.7876 501.613 40.8472 502.643 65.9047 504.703C85.4701 506.763 92.6784 505.733 92.6784 501.098C92.6784 496.464 85.4701 495.434 67.6209 496.979C43.2499 499.039 42.9067 499.039 29.863 480.5C22.998 470.716 17.1627 461.962 17.1627 460.932C17.1627 460.417 39.1309 460.417 65.9047 461.447L114.99 462.992L143.137 505.218C158.926 528.391 171.627 550.019 171.627 553.624C171.627 562.893 178.492 567.527 182.954 560.833C185.357 557.228 182.268 550.019 171.97 536.115L157.21 516.547L213.504 518.092C261.216 519.122 270.827 518.092 274.603 511.397C277.005 507.278 280.781 503.673 283.184 503.673C287.99 503.673 292.452 490.799 289.363 486.165C284.9 479.985 279.408 483.59 276.319 494.404C272.886 505.733 271.513 506.248 212.817 507.793L152.748 508.823L133.869 480.5L115.333 452.178H47.0257L55.2638 438.789C63.5019 425.915 63.8451 425.4 108.125 426.945C133.869 427.975 152.748 426.43 152.748 423.855C152.748 421.281 133.182 419.736 106.409 420.766C60.4126 422.311 60.0693 422.311 49.7717 437.244C40.5039 450.118 36.3849 452.178 19.5654 452.178C8.92459 452.178 0 454.238 0 457.327C0 459.902 2.74603 462.477 5.83531 462.477Z" fill="#0B132B" fill-opacity="0.025"/>
<path d="M145.632 491.739C165.884 492.769 166.913 492.254 179.957 472.17L193.344 451.572H230.415C268.86 451.572 284.649 444.878 284.649 427.884C284.649 415.526 274.352 420.16 270.919 433.549C267.83 445.393 265.77 446.423 247.921 446.423H228.356L253.756 407.801C278.814 370.21 279.844 369.18 296.32 369.18C312.453 369.18 314.856 371.24 330.988 394.413L348.151 420.16L384.193 421.19C413.026 422.22 420.234 421.19 420.234 415.526C420.234 409.861 413.026 408.831 384.193 409.861L348.151 410.891L334.421 390.293L321.034 369.18H417.145L450.784 420.675H567.833L684.539 421.19L693.807 433.549C699.299 440.243 703.418 448.483 703.418 451.572C703.418 454.147 705.821 456.722 708.567 456.722C711.313 456.722 713.716 453.117 713.716 448.998C713.716 444.878 712.343 441.273 710.627 441.273C708.91 441.273 702.732 434.064 696.897 425.31L686.256 409.346L598.726 411.406L511.196 412.951L534.194 377.934L557.192 343.432H667.377L777.218 342.917L800.559 309.445C813.259 291.422 822.871 273.914 821.841 271.339C820.811 268.764 810.513 281.123 798.843 299.661L778.248 333.133H557.192L506.391 410.376H450.784L420.578 364.03H276.068L248.608 405.227C222.52 444.878 220.804 446.423 205.701 446.423C191.971 446.423 188.195 448.998 176.524 467.021C164.854 485.044 151.031 478.44 133.869 480.5L135.828 491.042L145.632 491.739Z" fill="#0B132B" fill-opacity="0.025"/>
<path d="M653.277 334.632C671.812 334.632 673.872 340.102 686.572 358.573L699.959 378.016H736.686C764.832 378.016 774.1 379.474 777.532 385.307C779.935 389.196 784.054 392.599 786.457 392.599C789.203 392.599 791.262 395.515 791.262 399.404C791.262 412.528 784.74 412.528 778.905 399.89C774.1 389.682 770.667 387.738 755.221 387.738H737.029L761.743 421.764C786.113 454.817 787.143 455.79 804.305 455.79C820.438 455.79 822.841 454.331 836.571 434.402L851.33 412.528L889.774 411.07C914.831 410.098 928.561 411.07 928.561 414.472C928.561 417.875 915.517 418.847 891.49 417.875L854.763 415.931L841.033 435.86L827.646 455.79H925.128L939.201 433.916L953.618 412.042H1191.49L1200.76 398.432C1205.9 391.14 1210.02 382.391 1210.02 378.988C1210.02 373.155 1217.57 370.725 1221.35 376.072C1224.44 380.447 1219.98 392.599 1215.51 392.599C1213.11 392.599 1207.62 397.946 1203.16 404.751L1195.26 416.903H1016.43L1063.8 484.955H1287.94L1300.64 504.398C1307.5 515.092 1317.12 527.244 1321.58 531.619C1331.19 540.368 1332.91 553.006 1325.01 553.006C1322.26 553.006 1319.86 550.09 1319.86 546.687C1319.86 543.285 1310.59 529.188 1299.61 515.092L1279.02 489.815H1060.37L1009.57 416.903H983.823C958.08 416.903 958.08 416.903 943.32 437.318L928.561 457.734L941.261 476.205C948.126 486.413 956.02 494.676 958.423 494.676C960.826 494.676 961.856 498.079 960.826 501.968C958.423 510.717 949.156 511.689 949.156 502.94C949.156 499.537 944.007 489.815 937.828 481.552L926.845 465.997L875.358 465.511C846.868 465.025 816.662 465.025 808.081 465.025L792.292 465.511L803.962 483.01L815.633 500.995L841.376 498.565C859.568 496.621 866.776 497.593 866.776 501.968C866.776 506.342 859.568 507.314 840.003 505.37L813.573 503.426L772.384 445.582C731.88 388.71 730.851 387.738 715.405 387.738C702.018 387.738 698.242 385.307 686.572 368.294C673.872 349.823 669.394 341.628 650.859 341.628C639.875 341.628 622.949 337.549 622.949 334.632C622.949 331.716 642.293 334.632 653.277 334.632Z" fill="#0B132B" fill-opacity="0.025"/>
<path d="M892.983 81.5945C915.122 80.4431 918.812 81.5945 933.571 93.4928L949.714 106.159L1011.06 107.694C1062.71 108.462 1071.94 108.078 1071.94 103.088C1071.94 98.0986 1062.71 97.3309 1010.59 98.4824C950.636 99.6338 949.252 99.6338 938.644 90.0384L928.036 80.4431L972.775 82.746L1017.05 85.0489L1044.26 62.7876L1071.94 40.1425L1151.27 40.9101C1231.06 41.6778 1231.06 41.6778 1240.74 51.2731C1249.05 60.1009 1250.89 60.4847 1255.96 55.4951C1261.04 50.5055 1260.12 48.9703 1250.43 45.8997C1243.97 43.9807 1237.52 40.1425 1235.67 38.2234C1233.83 35.5367 1205.23 34.0015 1156.34 34.0015L1079.32 34.0015L1092.69 22.487C1099.61 16.346 1107.91 11.7402 1110.22 12.124C1112.99 12.5079 1116.21 9.82115 1117.14 5.983C1120.37 -7.0667 1108.83 0.225775 1064.56 37.8396L1019.82 76.2211H955.248L890.216 76.2211L906.359 62.4038L922.04 48.5864L957.554 50.1217C988.917 51.657 993.53 51.2731 993.53 45.5159C993.53 39.7587 988.917 39.3749 957.554 40.9101C922.963 42.4454 921.579 42.8292 901.285 59.3333C889.755 68.5448 877.763 76.2211 874.535 76.2211C871.306 76.2211 869 77.7564 869 79.2916C869 80.8269 880.069 81.9783 892.983 81.5945Z" fill="#0B132B" fill-opacity="0.025"/>
<path d="M34.9835 81.5945C57.1221 80.4431 60.8118 81.5945 75.5709 93.4928L91.7136 106.159L153.056 107.694C204.713 108.462 213.937 108.078 213.937 103.088C213.937 98.0986 204.713 97.3309 152.595 98.4824C92.636 99.6338 91.2524 99.6338 80.6443 90.0384L70.0362 80.4431L114.775 82.746L159.052 85.0489L186.264 62.7876L213.937 40.1425L293.267 40.9101C373.058 41.6778 373.058 41.6778 382.744 51.2731C391.046 60.1009 392.891 60.4847 397.964 55.4951C403.038 50.5055 402.115 48.9703 392.429 45.8997C385.972 43.9807 379.515 40.1425 377.67 38.2234C375.826 35.5367 347.23 34.0015 298.34 34.0015L221.317 34.0015L234.692 22.487C241.61 16.346 249.912 11.7402 252.218 12.124C254.986 12.5079 258.214 9.82115 259.137 5.983C262.365 -7.0667 250.835 0.225775 206.558 37.8396L161.819 76.2211H97.2482L32.2161 76.2211L48.3589 62.4038L64.0404 48.5864L99.5543 50.1217C130.917 51.657 135.53 51.2731 135.53 45.5159C135.53 39.7587 130.917 39.3749 99.5543 40.9101C64.9628 42.4454 63.5791 42.8292 43.2854 59.3333C31.7549 68.5448 19.7632 76.2211 16.5346 76.2211C13.3061 76.2211 11 77.7564 11 79.2916C11 80.8269 22.0693 81.9783 34.9835 81.5945Z" fill="#0B132B" fill-opacity="0.025"/>
<path d="M217.983 609.595C240.122 608.443 243.812 609.595 258.571 621.493L274.714 634.159L336.056 635.694C387.713 636.462 396.937 636.078 396.937 631.088C396.937 626.099 387.713 625.331 335.595 626.482C275.636 627.634 274.252 627.634 263.644 618.038L253.036 608.443L297.775 610.746L342.052 613.049L369.264 590.788L396.937 568.143L476.267 568.91C556.058 569.678 556.058 569.678 565.744 579.273C574.046 588.101 575.891 588.485 580.964 583.495C586.038 578.506 585.115 576.97 575.429 573.9C568.972 571.981 562.515 568.143 560.67 566.223C558.826 563.537 530.23 562.001 481.34 562.001H404.317L417.692 550.487C424.61 544.346 432.912 539.74 435.218 540.124C437.986 540.508 441.214 537.821 442.137 533.983C445.365 520.933 433.835 528.226 389.558 565.84L344.819 604.221H280.248H215.216L231.359 590.404L247.04 576.586L282.554 578.122C313.917 579.657 318.53 579.273 318.53 573.516C318.53 567.759 313.917 567.375 282.554 568.91C247.963 570.445 246.579 570.829 226.285 587.333C214.755 596.545 202.763 604.221 199.535 604.221C196.306 604.221 194 605.756 194 607.292C194 608.827 205.069 609.978 217.983 609.595Z" fill="#0B132B" fill-opacity="0.025"/>
</svg>
