<svg width="150" height="104" viewBox="0 0 150 104" fill="none" xmlns="http://www.w3.org/2000/svg">
<g opacity="0.7">
<path d="M73.1699 15.7635C73.1699 24.4249 73.1699 24.528 75.7477 24.528C78.6348 24.528 78.7379 24.8373 77.2944 27.7244C75.7477 30.5084 77.5006 30.1991 80.3877 27.1058C82.553 24.8373 83.5841 24.528 93.0704 24.3218L103.381 24.0124L103.588 15.4542L103.794 6.99909H88.4304H73.1699V15.7635ZM84.5121 12.6702C85.2339 13.4951 85.5433 15.1449 85.2339 16.2791C84.8215 18.032 85.2339 18.3413 88.6366 18.3413C92.0393 18.3413 92.4517 18.032 92.0393 16.2791C90.905 11.8453 96.7824 9.16442 98.9477 13.0826C100.288 15.6604 100.288 15.8666 98.329 17.7226C97.1948 18.96 94.617 19.3724 88.2241 19.3724C79.6659 19.3724 77.2944 18.4444 77.2944 15.248C77.2944 11.536 82.1406 9.78309 84.5121 12.6702Z" fill="url(#paint0_linear_805_194)"/>
<path d="M130.433 84.4717C125.587 86.534 124.556 92.2051 128.99 92.2051C131.052 92.2051 133.63 89.8335 132.598 88.8024C132.289 88.4931 133.011 87.6682 134.248 87.0495C137.238 85.3997 141.878 86.6371 143.013 89.4211C144.147 91.8957 147.24 93.03 148.89 91.3802C150.437 89.8335 147.653 85.1935 144.25 83.9562C140.022 82.5126 134.454 82.7189 130.433 84.4717Z" fill="url(#paint1_linear_805_194)"/>
<path d="M136.311 92.1015C136.311 93.2357 135.898 94.2669 135.28 94.4731C134.764 94.5762 135.176 96.1229 136.208 97.6695L138.064 100.557L139.92 97.7726C141.157 95.8135 141.363 94.7824 140.641 94.4731C139.92 94.2669 139.404 93.2357 139.404 92.1015C139.404 91.0704 138.682 90.1424 137.857 90.1424C137.032 90.1424 136.311 91.0704 136.311 92.1015Z" fill="url(#paint2_linear_805_194)"/>
<path d="M33.8731 63.7211C33.5638 64.2367 45.4216 64.4429 60.2696 64.2367C81.2011 64.0305 87.2847 64.2367 88.0065 65.2678C88.6251 66.2989 88.8313 66.0927 88.8313 64.7523C88.8313 63.1025 86.8722 62.9994 61.61 62.9994C46.5558 62.9994 34.0793 63.3087 33.8731 63.7211Z" fill="url(#paint3_linear_805_194)"/>
<path d="M112.06 79.8849C111.76 80.3042 107.66 80.5411 102.89 80.2981C98.1431 80.1989 93.9598 80.3758 93.5998 80.879C92.8799 81.8854 94.6178 82.1143 103.847 82.5042C107.563 82.6267 111.039 83.0845 111.542 83.4445C112.129 83.8644 113.22 83.7573 114.011 83.1825C116.146 81.7935 116.122 81.6497 114.277 80.3299C113.354 79.67 112.36 79.4655 112.06 79.8849Z" fill="url(#paint4_linear_805_194)"/>
<path d="M84.3392 38.6666C84.7192 39.015 84.4586 43.1131 83.6404 47.8191C82.968 52.5189 82.6377 56.6929 83.0937 57.1111C84.0056 57.9474 84.443 56.25 85.9462 47.1356C86.517 43.4619 87.3919 40.0671 87.81 39.6111C88.2979 39.0791 88.3235 37.9834 87.8486 37.1282C86.728 34.8413 86.5823 34.8476 85.0491 36.5195C84.2825 37.3554 83.9592 38.3181 84.3392 38.6666Z" fill="url(#paint5_linear_805_194)"/>
<path d="M0.721778 64.753C0.309333 65.0623 0 73.6205 0 83.7254V102.079L9.89867 102.389C15.3636 102.595 20.0036 102.285 20.416 101.77C20.7253 101.254 20.416 101.151 19.7973 101.564C18.8693 102.079 18.56 97.4392 18.56 83.6223C18.56 67.6401 18.3538 64.9592 16.9102 64.3405C16.0853 64.0312 14.848 64.2374 14.1262 64.9592C12.6827 66.4027 5.46489 66.5058 4.64 65.0623C3.91822 63.9281 1.75289 63.7218 0.721778 64.753ZM15.1573 69.8054C15.9822 72.177 14.5387 73.0019 8.55823 73.6205C3.40267 74.2392 3.09333 74.1361 3.09333 71.8676C3.09333 68.5681 3.81511 68.1556 9.48623 68.1556C13.0951 68.1556 14.6418 68.5681 15.1573 69.8054ZM13.8169 77.0232C16.704 79.8072 15.2605 87.025 12.2702 85.0659C11.4453 84.5503 9.48623 84.1379 7.73334 84.1379C5.15556 84.1379 4.53689 83.6223 4.33067 81.457C3.712 76.3014 10.208 73.3112 13.8169 77.0232ZM10.5173 86.7156C12.5796 86.7156 13.1982 87.1281 12.7858 88.2623C12.3733 89.3965 12.8889 89.809 14.5387 89.809C16.4978 89.809 16.704 90.0152 15.4667 90.8401C14.6418 91.3556 12.7858 91.8712 11.3422 91.9743C9.17689 92.0774 9.07378 92.1805 10.8267 92.593C14.4356 93.4179 14.7449 94.7583 11.9609 96.5112C9.48623 98.161 9.07378 98.161 6.70222 96.6143C3.50578 94.5521 3.50578 94.1396 6.496 92.9023C8.76445 91.9743 8.76445 91.9743 6.18667 91.9743C4.02133 91.8712 3.60889 91.3556 3.50578 88.6747C3.40267 85.9939 3.712 85.5814 5.568 86.097C6.80534 86.4063 8.97067 86.7156 10.5173 86.7156Z" fill="url(#paint6_linear_805_194)"/>
<path d="M35.6253 65.9891C35.4191 66.1953 35.2129 73.5162 35.2129 82.2806V98.0566H60.9907H86.8716L86.5622 82.0744L86.2529 65.9891L61.1969 65.7829C47.38 65.6797 35.8316 65.7829 35.6253 65.9891ZM57.8973 69.2886C57.8973 69.8042 58.516 70.0104 59.2378 69.7011C59.8565 69.2886 59.1347 70.0104 57.588 71.3509C54.3916 73.8255 52.5356 77.6406 53.3605 79.9091C53.9791 81.5589 59.8565 84.6522 62.4342 84.6522C63.3622 84.6522 64.084 83.9304 64.084 83.1055C64.084 81.662 61.8156 81.0433 57.6911 81.4557C56.3507 81.662 55.8351 80.9402 55.8351 78.878C55.8351 75.6815 58.4129 72.2789 60.8876 72.2789C63.5685 72.2789 67.1773 75.2691 67.1773 77.5375C67.1773 80.6309 64.3933 85.4771 62.3311 85.9926C61.3 86.302 62.228 86.5082 64.3933 86.6113C69.3427 86.7144 68.5178 88.7766 63.4653 88.7766C60.9907 88.7766 59.9596 88.2611 59.9596 87.23C59.9596 84.8584 56.0413 85.374 52.2262 88.2611C49.8547 90.1171 49.0298 91.4575 49.3391 92.9011C49.8547 94.7571 49.3391 94.9633 44.6991 94.9633C39.5436 94.9633 39.4404 94.8602 38.8218 91.5606C37.6876 85.4771 38.8218 70.1135 40.4716 69.0824C42.5338 67.742 57.8973 67.8451 57.8973 69.2886ZM82.4378 69.3917C83.2627 70.1135 83.6751 73.7224 83.6751 80.4246C83.6751 94.3446 83.3658 94.9633 77.9009 94.9633C73.7765 94.9633 73.364 94.7571 73.364 92.4886C73.364 90.942 72.1267 89.086 69.652 87.23C66.3525 84.6522 66.1462 84.3429 67.5898 82.6931C69.9613 80.0122 69.652 75.9909 66.6618 72.4851C65.3213 70.8353 64.3933 69.1855 64.7027 68.8762C65.7338 67.9482 81.0974 68.3606 82.4378 69.3917ZM59.9596 92.4886C59.9596 93.5198 58.7222 93.9322 55.8351 93.9322C52.5356 93.9322 51.7107 93.5198 51.7107 92.0762C51.7107 90.6326 52.4325 90.3233 55.8351 90.6326C58.516 90.942 59.9596 91.5606 59.9596 92.4886ZM71.3018 91.87C71.3018 93.6229 70.58 93.9322 67.1773 93.9322C61.6093 93.9322 61.4031 91.1482 66.9711 90.5295C69.0333 90.3233 70.8894 90.1171 71.0956 90.014C71.1987 89.9109 71.3018 90.7357 71.3018 91.87Z" fill="url(#paint7_linear_805_194)"/>
<path d="M30.2918 3.79275C27.1984 6.47364 24.7238 7.91719 24.3113 7.29853C23.1771 5.44253 22.0429 6.1643 21.3211 9.05142C21.0118 10.7012 20.4962 12.9696 20.0838 14.1039C19.5682 16.2692 19.6713 16.2692 24.7238 15.2381C29.1575 14.4132 29.7762 14.0008 28.7451 12.7634C27.9202 11.7323 27.9202 11.0105 28.642 10.5981C29.2607 10.1856 31.7353 8.12342 34.1069 5.85497C37.8189 2.55541 38.2313 1.73052 37.0971 0.596301C35.8598 -0.641033 34.8287 -0.125477 30.2918 3.79275Z" fill="url(#paint8_linear_805_194)"/>
<path d="M2.65763 6.68013C-0.641925 9.97969 -0.641925 14.1041 2.55452 20.497C6.9883 29.1584 15.7527 36.1699 22.2488 36.1699C25.0328 36.1699 28.951 32.9735 28.951 30.6019C28.951 28.849 24.2079 24.8277 22.1456 24.8277C21.4239 24.8277 20.0834 25.8588 19.2585 27.0961L17.7119 29.2615L13.9999 26.4775C12.0407 24.9308 9.66919 22.2499 8.74119 20.6001C7.29763 17.6099 7.29763 17.3006 8.94741 15.4446C10.5972 13.5886 10.7003 12.9699 9.35986 9.1548C7.50386 3.89613 6.0603 3.27746 2.65763 6.68013ZM6.26652 12.4544C6.26652 13.5886 5.54474 14.5166 4.71985 14.5166C3.17319 14.5166 2.55452 12.3512 3.89497 11.1139C5.1323 9.77347 6.26652 10.3921 6.26652 12.4544Z" fill="url(#paint9_linear_805_194)"/>
<path d="M15.0562 49.0781C14.8056 44.0276 14.1516 40.0119 13.7392 40.0155C12.8112 40.0237 11.8447 59.1085 12.5873 61.4736C13.1173 63.1188 15.9862 61.0312 15.6606 59.178C15.552 58.5603 15.2028 54.0263 15.0562 49.0781Z" fill="url(#paint10_linear_805_194)"/>
<path d="M30.7799 99.7073C30.4705 100.017 30.4705 100.945 30.7799 101.769C31.1923 102.904 33.7701 103.213 43.3594 103.007L55.3203 102.801L43.6687 102.491C33.8732 102.182 32.0172 101.873 32.5327 100.635C33.0483 99.0886 32.0172 98.573 30.7799 99.7073Z" fill="url(#paint11_linear_805_194)"/>
<path d="M89.1405 99.7071C93.5743 101.048 90.0685 101.976 79.8605 102.079C73.7769 102.182 68.5183 102.491 68.3121 102.8C68.0027 103.11 73.1583 103.11 79.5512 103.007C89.2436 102.8 91.409 102.388 91.409 101.151C91.409 100.326 90.481 99.5009 89.3467 99.3978C87.697 99.2947 87.697 99.2947 89.1405 99.7071Z" fill="url(#paint12_linear_805_194)"/>
<path d="M58.7234 100.841C60.5794 101.048 63.3634 101.048 64.9101 100.841C66.4568 100.635 64.9101 100.429 61.5074 100.429C58.1048 100.429 56.8674 100.635 58.7234 100.841Z" fill="url(#paint13_linear_805_194)"/>
<path d="M34.5685 44.8249C31.5738 40.7505 28.8133 37.7616 28.4713 37.9921C27.7017 38.5107 37.4223 54.9629 39.3463 56.5261C40.6958 57.606 41.9374 54.2824 40.6436 52.9162C40.2123 52.4608 37.4202 48.8715 34.5685 44.8249Z" fill="url(#paint14_linear_805_194)"/>
</g>
<defs>
<linearGradient id="paint0_linear_805_194" x1="66.5398" y1="3.37568" x2="106.293" y2="27.4616" gradientUnits="userSpaceOnUse">
<stop stop-color="#5CD9BA"/>
<stop offset="1" stop-color="#81B5E9"/>
</linearGradient>
<linearGradient id="paint1_linear_805_194" x1="121.156" y1="81.5264" x2="139.267" y2="101.93" gradientUnits="userSpaceOnUse">
<stop stop-color="#5CD9BA"/>
<stop offset="1" stop-color="#81B5E9"/>
</linearGradient>
<linearGradient id="paint2_linear_805_194" x1="133.759" y1="88.4752" x2="143.741" y2="91.05" gradientUnits="userSpaceOnUse">
<stop stop-color="#5CD9BA"/>
<stop offset="1" stop-color="#81B5E9"/>
</linearGradient>
<linearGradient id="paint3_linear_805_194" x1="21.9675" y1="62.5318" x2="23.3218" y2="73.9452" gradientUnits="userSpaceOnUse">
<stop stop-color="#5CD9BA"/>
<stop offset="1" stop-color="#81B5E9"/>
</linearGradient>
<linearGradient id="paint4_linear_805_194" x1="98.8121" y1="66.7117" x2="109.132" y2="92.3829" gradientUnits="userSpaceOnUse">
<stop stop-color="#5CD9BA"/>
<stop offset="1" stop-color="#81B5E9"/>
</linearGradient>
<linearGradient id="paint5_linear_805_194" x1="69.6606" y1="50.2238" x2="96.3914" y2="43.0846" gradientUnits="userSpaceOnUse">
<stop stop-color="#5CD9BA"/>
<stop offset="1" stop-color="#81B5E9"/>
</linearGradient>
<linearGradient id="paint6_linear_805_194" x1="-4.44633" y1="57.9417" x2="30.0198" y2="66.203" gradientUnits="userSpaceOnUse">
<stop stop-color="#5CD9BA"/>
<stop offset="1" stop-color="#81B5E9"/>
</linearGradient>
<linearGradient id="paint7_linear_805_194" x1="24.0288" y1="60.5693" x2="84.6415" y2="103.96" gradientUnits="userSpaceOnUse">
<stop stop-color="#5CD9BA"/>
<stop offset="1" stop-color="#81B5E9"/>
</linearGradient>
<linearGradient id="paint8_linear_805_194" x1="16.0306" y1="-2.54665" x2="41.2587" y2="10.0763" gradientUnits="userSpaceOnUse">
<stop stop-color="#5CD9BA"/>
<stop offset="1" stop-color="#81B5E9"/>
</linearGradient>
<linearGradient id="paint9_linear_805_194" x1="-6.06116" y1="-0.494071" x2="37.7319" y2="17.3647" gradientUnits="userSpaceOnUse">
<stop stop-color="#5CD9BA"/>
<stop offset="1" stop-color="#81B5E9"/>
</linearGradient>
<linearGradient id="paint10_linear_805_194" x1="16.0087" y1="35.2215" x2="4.1522" y2="39.355" gradientUnits="userSpaceOnUse">
<stop stop-color="#5CD9BA"/>
<stop offset="1" stop-color="#81B5E9"/>
</linearGradient>
<linearGradient id="paint11_linear_805_194" x1="25.1846" y1="98.4586" x2="30.1801" y2="112.411" gradientUnits="userSpaceOnUse">
<stop stop-color="#5CD9BA"/>
<stop offset="1" stop-color="#81B5E9"/>
</linearGradient>
<linearGradient id="paint12_linear_805_194" x1="63.2955" y1="98.7437" x2="68.0059" y2="111.82" gradientUnits="userSpaceOnUse">
<stop stop-color="#5CD9BA"/>
<stop offset="1" stop-color="#81B5E9"/>
</linearGradient>
<linearGradient id="paint13_linear_805_194" x1="56.2052" y1="100.338" x2="56.5673" y2="102.526" gradientUnits="userSpaceOnUse">
<stop stop-color="#5CD9BA"/>
<stop offset="1" stop-color="#81B5E9"/>
</linearGradient>
<linearGradient id="paint14_linear_805_194" x1="36.1058" y1="46.1419" x2="33.3317" y2="48.0116" gradientUnits="userSpaceOnUse">
<stop stop-color="#5CD9BA"/>
<stop offset="1" stop-color="#81B5E9"/>
</linearGradient>
</defs>
</svg>
