<svg width="13" height="15" viewBox="0 0 13 15" fill="none" xmlns="http://www.w3.org/2000/svg">
<mask id="mask0_1141_213" style="mask-type:alpha" maskUnits="userSpaceOnUse" x="0" y="0" width="13" height="15">
<path d="M10.4972 0.0719466C10.4111 0.111093 10.2624 0.22592 10.1658 0.327698C10.0066 0.49472 9.9753 0.507768 9.83437 0.458184C9.23675 0.249407 8.61303 0.507768 7.85621 1.28546C7.03937 2.12579 6.90628 2.73385 7.35254 3.60549L7.55088 3.98651L7.22205 4.31794C6.8593 4.6833 6.84626 4.6833 6.67923 4.27097L6.60094 4.07785L6.37129 4.15875C6.09727 4.25009 6.1051 4.21355 6.28256 4.57891C6.52265 5.07215 7.28208 5.74023 7.60307 5.74023C7.67614 5.74023 7.85882 5.33573 7.7988 5.30441C7.79097 5.29919 7.67092 5.24178 7.53522 5.17915C7.22205 5.033 7.22466 5.02778 7.59785 4.64677L7.90841 4.32838L8.16416 4.48496C9.02536 5.01735 9.75347 4.88686 10.6199 4.04653C11.3689 3.32103 11.5698 2.87738 11.4576 2.19103L11.4054 1.86743L11.6429 1.61428C12.2823 0.930541 11.3558 -0.31168 10.4972 0.0719466ZM11.087 0.606937C11.2436 0.706106 11.4159 0.990564 11.3976 1.12105C11.3637 1.38202 10.8861 1.17063 10.7138 0.818324C10.5547 0.49211 10.7373 0.387722 11.087 0.606937ZM9.30721 1.19151C8.99144 1.52294 8.9288 1.66909 8.97056 1.98225C9.02797 2.39981 9.53165 2.89826 9.9231 2.92436C10.2598 2.94524 10.3276 2.91653 10.6225 2.63468C10.9826 2.29281 10.9931 2.2902 10.9931 2.55117C10.9931 3.35496 10.0614 3.84037 9.26024 3.45152C7.92146 2.8017 8.03889 0.907053 9.42204 0.888786L9.5995 0.886176L9.30721 1.19151ZM10.5886 1.44204C10.6904 1.53077 10.8052 1.61689 10.8443 1.62994C10.9461 1.66909 10.1658 2.452 10.0275 2.452C9.82654 2.452 9.51338 2.17015 9.45336 1.93528C9.42726 1.82828 9.48467 1.74477 9.82393 1.40029L10.2284 0.995784L10.3146 1.13671C10.3641 1.215 10.4842 1.3507 10.5886 1.44204ZM8.04672 2.92958C8.32857 3.48284 9.01492 3.99695 9.55774 4.05697C10.0405 4.11178 9.62299 4.30489 9.09583 4.26836C8.09892 4.20312 7.32122 3.06006 7.69963 2.21713L7.77009 2.06054L7.84056 2.36066C7.8797 2.52507 7.97365 2.78082 8.04672 2.92958Z" fill="black"/>
<path d="M3.69689 1.00363C3.62121 1.09497 0.5 10.5578 0.5 10.6909C0.5 10.8683 0.546975 10.884 4.86604 12.3115C9.05723 13.692 9.16162 13.7234 9.25818 13.6085C9.30255 13.5537 10.3621 10.3829 12.0793 5.17134C12.5647 3.70207 12.5673 3.76992 12.014 3.58463L11.6252 3.45415L11.5469 3.68119C11.4608 3.93173 11.4556 3.92651 11.7296 4.01263L11.9201 4.07526L11.7505 4.60764C11.0119 6.92506 8.93719 13.0996 8.89282 13.0996C8.73363 13.0996 1.07414 10.5291 1.07414 10.4743C1.07414 10.4142 3.98657 1.57516 4.02833 1.5047C4.04137 1.48382 4.63639 1.66389 5.35145 1.90398L6.65369 2.33719L6.73198 2.10493C6.79201 1.93008 6.79462 1.86745 6.74764 1.84918C5.25228 1.28809 3.79345 0.883587 3.69689 1.00363Z" fill="black"/>
<path d="M1.23768 5.22887C0.718351 6.78687 0.292969 8.09955 0.292969 8.14652C0.292969 8.23526 0.655718 8.37618 0.715742 8.31094C0.744448 8.27962 1.60826 5.68818 2.53732 2.85404L2.63649 2.55131L2.52166 2.50955C2.15369 2.37124 2.27635 2.11288 1.23768 5.22887Z" fill="black"/>
<path d="M4.36791 5.90463C4.28179 6.14994 4.29483 6.19431 4.4749 6.25694C4.70195 6.33523 4.72544 6.33001 4.77502 6.19692C4.89768 5.86548 4.89768 5.86548 4.68368 5.80024C4.41749 5.72195 4.43315 5.71673 4.36791 5.90463Z" fill="black"/>
<path d="M5.30889 6.17088C5.1784 6.52319 5.00616 6.43707 7.28966 7.18344L9.38264 7.86719L9.43223 7.73409C9.55749 7.41049 9.65927 7.46268 7.46973 6.73196C5.16535 5.96471 5.3663 6.0169 5.30889 6.17088Z" fill="black"/>
<path d="M3.5763 6.73204C3.49801 6.99301 3.14048 6.84165 6.24865 7.87248C9.29157 8.88244 9.07757 8.83286 9.15586 8.57449C9.23415 8.31613 9.48729 8.42574 6.44698 7.41578C3.36231 6.39278 3.65459 6.46324 3.5763 6.73204Z" fill="black"/>
<path d="M11.8664 10.5292L11.8533 14.0653H7.70388H3.55444L3.54139 13.2172L3.52573 12.369H3.29347H3.05859V13.3842C3.05859 14.235 3.07164 14.4098 3.13949 14.4803C3.26476 14.6055 12.143 14.6055 12.2683 14.4803C12.3413 14.4072 12.3492 13.9923 12.3492 10.6962V6.99301H12.1143H11.8794L11.8664 10.5292Z" fill="black"/>
<path d="M3.26475 7.67692C3.23343 7.79436 3.21517 7.89614 3.22561 7.89875C3.29085 7.93528 8.68512 9.70728 8.72948 9.70728C8.77906 9.70728 8.93304 9.30016 8.89389 9.26362C8.86258 9.23492 3.43699 7.46293 3.37958 7.46293C3.34826 7.46293 3.29868 7.55948 3.26475 7.67692Z" fill="black"/>
<path d="M3.00449 8.49615C2.87401 8.84063 2.69394 8.75712 5.67161 9.73837C8.86851 10.7953 8.45878 10.6961 8.53707 10.4326C8.61797 10.1664 8.98855 10.3229 5.80993 9.27123L3.05408 8.36044L3.00449 8.49615Z" fill="black"/>
<path d="M0.0357712 8.88515C-0.034691 9.11742 -0.016423 9.14612 0.231499 9.22963C0.385472 9.27922 0.40635 9.274 0.445495 9.16961C0.570761 8.83296 0.573371 8.83557 0.328059 8.75206L0.0984042 8.67377L0.0357712 8.88515Z" fill="black"/>
<path d="M2.69966 9.40179C2.55874 9.7802 2.34996 9.6732 4.87355 10.5109C6.13143 10.9311 7.17531 11.2729 7.19097 11.2729C7.22751 11.2729 7.33711 10.9754 7.33711 10.8789C7.33711 10.8371 6.48113 10.5266 5.10581 10.0699C3.87925 9.66015 2.84581 9.31567 2.80927 9.30262C2.77534 9.28957 2.72576 9.33394 2.69966 9.40179Z" fill="black"/>
</mask>
<g mask="url(#mask0_1141_213)">
<rect x="-1" y="-0.425781" width="14.6" height="15" fill="url(#paint0_linear_1141_213)"/>
</g>
<defs>
<linearGradient id="paint0_linear_1141_213" x1="-1" y1="-0.425781" x2="16.7382" y2="6.30967" gradientUnits="userSpaceOnUse">
<stop stop-color="#F3F520"/>
<stop offset="1" stop-color="#59D102"/>
</linearGradient>
</defs>
</svg>
