<svg width="14" height="14" viewBox="0 0 14 14" fill="none" xmlns="http://www.w3.org/2000/svg">
<mask id="mask0_1149_859" style="mask-type:alpha" maskUnits="userSpaceOnUse" x="0" y="-1" width="14" height="16">
<path d="M10.7631 0.227248C9.80905 0.626405 9.13729 1.27869 8.77708 2.15488C8.69919 2.35933 8.60184 2.52483 8.5629 2.52483C8.53369 2.52483 7.99824 2.43721 7.3849 2.33012C5.98298 2.08673 5.50594 2.08673 4.95102 2.33986C4.43503 2.57351 0.501877 6.44825 0.229283 6.99344C0.141663 7.17842 0.0345719 7.57757 0.0151008 7.88911C-0.072519 8.85293 0.151398 9.1742 2.58528 11.5886C4.95102 13.9349 5.17493 14.0906 6.15822 13.9836C6.45029 13.9543 6.82997 13.857 7.00521 13.7694C7.19019 13.672 8.2611 12.679 9.40015 11.5399C11.6004 9.34944 11.8632 8.98923 11.8632 8.17144C11.8632 7.58731 11.1233 3.10896 11.0065 2.99214C10.9578 2.94346 10.6171 2.85584 10.2471 2.79743C9.8772 2.73901 9.56566 2.6806 9.54619 2.66113C9.52672 2.65139 9.6046 2.46642 9.71169 2.26197C10.2277 1.23974 11.6296 0.597198 12.4376 1.00609C13.2846 1.44419 13.3528 2.55404 12.5934 3.54706C12.2235 4.02411 12.1748 4.28696 12.389 4.47194C12.7784 4.78348 13.4112 4.18961 13.8006 3.15764C14.1706 2.16462 14.0245 1.26895 13.3723 0.626405C12.7102 -0.0356112 11.7659 -0.181644 10.7631 0.227248ZM7.04415 3.15764C7.53093 3.23553 8.05665 3.32315 8.22215 3.35235C8.48501 3.40103 8.53369 3.45944 8.58237 3.75151C8.61158 3.94622 8.75761 4.28696 8.89391 4.53035C9.09835 4.88083 9.19571 4.95872 9.42936 4.95872C9.88693 4.95872 9.97455 4.65691 9.67275 4.15067C9.53645 3.91702 9.42936 3.6931 9.42936 3.64442C9.42936 3.56653 10.1887 3.63468 10.2764 3.7223C10.3056 3.75151 10.4808 4.7348 10.6658 5.9128C10.8994 7.36339 10.987 8.18118 10.9481 8.4343C10.88 8.75557 10.5879 9.09632 8.76734 10.9169C5.80774 13.8765 6.11928 13.8765 3.09153 10.8292C0.141663 7.86964 0.151398 8.17144 2.9747 5.32867C4.07482 4.21882 5.11652 3.24526 5.28202 3.16738C5.66171 2.97267 5.95378 2.97267 7.04415 3.15764Z" fill="black"/>
<path d="M5.7605 5.64027C5.21531 5.96154 4.97192 6.52621 5.09848 7.16875C5.13742 7.41214 5.33213 7.69447 5.70208 8.08389C6.30569 8.7167 6.39331 9.05744 6.02336 9.35925C5.70208 9.61237 5.57552 9.58316 5.0498 9.08665C4.47541 8.5512 4.39752 8.34675 4.6117 8.01574C4.69932 7.87945 4.75774 7.65553 4.73827 7.50949C4.71879 7.29531 4.65065 7.2369 4.40726 7.21743C4.16387 7.19796 4.05678 7.24664 3.90101 7.46082C3.57974 7.90865 3.54079 8.37596 3.77445 8.91141C3.95942 9.3203 3.96916 9.38845 3.83286 9.53449C3.4045 10.0018 3.99836 10.5957 4.46567 10.1673C4.6117 10.031 4.67985 10.0407 5.08874 10.2257C5.93574 10.5957 6.84114 10.177 7.08453 9.2911C7.2403 8.7167 7.07479 8.26887 6.46145 7.59711C5.89679 6.99351 5.81891 6.74039 6.10124 6.48726C6.41278 6.20493 6.72431 6.28282 7.22083 6.78907C7.71734 7.29531 7.76602 7.50949 7.51289 7.95733C7.34739 8.23966 7.34739 8.25913 7.53236 8.46358C8.1457 9.14506 8.90507 7.62632 8.37935 6.75986C8.20411 6.47753 8.20411 6.45806 8.39882 6.1952C8.54486 5.99075 8.57406 5.88366 8.49618 5.76683C8.29173 5.43583 8.09702 5.38715 7.80496 5.60133C7.5421 5.79604 7.52263 5.79604 7.2403 5.6208C6.85088 5.38715 6.15965 5.39688 5.7605 5.64027Z" fill="black"/>
</mask>
<g mask="url(#mask0_1149_859)">
<rect width="14.6" height="15" fill="url(#paint0_linear_1149_859)"/>
</g>
<defs>
<linearGradient id="paint0_linear_1149_859" x1="0" y1="0" x2="17.7382" y2="6.73545" gradientUnits="userSpaceOnUse">
<stop stop-color="#F3F520"/>
<stop offset="1" stop-color="#59D102"/>
</linearGradient>
</defs>
</svg>
