<svg width="191" height="119" viewBox="0 0 191 119" fill="none" xmlns="http://www.w3.org/2000/svg">
<g opacity="0.7">
<path d="M127.804 1.36367C127.51 1.75523 127.412 3.32146 127.706 5.08347C128.097 7.53071 128 7.82438 127.119 6.35604C126.238 4.98558 124.476 4.69192 116.057 4.69192C109.498 4.69192 105.583 5.08347 104.8 5.86659C103.919 6.7476 103.625 6.45393 103.625 4.39825C103.625 2.9299 103.234 1.75523 102.646 1.75523C102.157 1.75523 101.667 3.22357 101.667 5.08347C101.667 6.94337 101.276 8.70539 100.786 8.99905C100.297 9.29272 99.6116 13.2083 99.22 17.7112C98.4369 27.5002 99.6116 31.0242 104.898 35.7229C113.512 43.2604 126.531 40.1279 131.23 29.3601C132.698 26.1297 133.09 23.9762 132.502 20.9416C132.209 18.6901 131.915 15.6555 132.013 14.0893C132.013 12.5231 131.328 10.4674 130.447 9.4885C129.37 8.21594 128.978 6.7476 129.37 4.78981C129.957 1.95101 129.076 0.0911102 127.804 1.36367ZM125.454 6.64971C125.846 6.64971 126.14 9.68428 126.14 13.502V20.3542H115.959C104.506 20.3542 104.604 20.4521 104.604 12.5231C104.604 9.39061 105.093 7.43282 105.974 6.94337C107.051 6.35604 117.525 6.16026 125.454 6.64971ZM103.625 13.502C103.625 15.0682 103.234 16.4387 102.646 16.4387C102.157 16.4387 101.667 15.0682 101.667 13.502C101.667 11.8379 102.157 10.5653 102.646 10.5653C103.234 10.5653 103.625 11.8379 103.625 13.502ZM130.055 13.502C130.055 15.0682 129.664 16.4387 129.076 16.4387C128.587 16.4387 128.097 15.0682 128.097 13.502C128.097 11.8379 128.587 10.5653 129.076 10.5653C129.664 10.5653 130.055 11.8379 130.055 13.502ZM104.115 19.5711C104.8 21.2352 106.072 21.9205 108.813 22.1163C114.197 22.6057 113.218 24.074 107.345 24.4656C102.842 24.7593 102.157 25.0529 101.667 27.2065C101.08 29.5559 101.08 29.5559 100.395 26.4234C99.0243 19.8648 101.863 14.5788 104.115 19.5711ZM130.838 22.8015C131.034 25.4445 130.643 27.9896 130.055 28.577C129.174 29.3601 128.978 29.2622 129.076 28.1854C129.566 24.6614 129.076 24.2698 124.182 24.2698C118.504 24.2698 117.525 22.6057 123.007 22.1163C125.65 21.9205 126.923 21.2352 127.608 19.5711C129.076 16.2429 130.545 17.6133 130.838 22.8015ZM127.902 29.3601C127.706 32.3947 126.923 33.863 125.063 35.3313C119.875 39.149 111.848 39.149 106.66 35.2334C104.8 33.863 104.017 32.2968 103.821 29.3601L103.527 25.2487H115.861H128.195L127.902 29.3601Z" fill="url(#paint0_linear_805_310)"/>
<path d="M112.436 16.6337C112.436 17.9063 114.491 18.5915 116.938 18.0042C120.365 17.1232 119.777 15.9485 115.862 15.9485C114.002 15.9485 112.436 16.2422 112.436 16.6337Z" fill="url(#paint1_linear_805_310)"/>
<path d="M83.8576 16.458C82.1511 16.56 81.1795 16.9325 81.8225 17.1692C82.4317 17.4978 79.9328 19.1857 76.1625 20.9272C72.484 22.7025 66.9255 26.1849 63.9385 28.632C56.6306 34.5998 44.3413 50.4168 46.4542 51.1945C46.9135 51.3636 48.2667 49.6712 49.5471 47.3261C52.6975 41.6012 60.6185 32.8341 66.7666 28.317C74.4323 22.7938 82.4853 18.7692 82.5873 20.4757C82.5586 21.4039 83.4964 21.1233 85.3669 19.7256C89.5283 16.3548 89.3542 15.9777 83.8576 16.458Z" fill="url(#paint2_linear_805_310)"/>
<path d="M153.222 41.0718C153.222 41.9528 149.111 42.2465 137.56 42.2465H121.897V51.6439C121.897 65.74 120.233 64.7611 144.412 64.7611C159.781 64.7611 164.969 65.0547 165.36 65.9358C165.85 66.9146 166.046 66.9146 166.535 65.9358C166.927 65.1526 170.157 64.7611 177.694 64.7611C190.42 64.7611 190.42 64.7611 190.42 53.2101C190.42 44.2043 189.148 42.2465 183.274 42.2465C178.282 42.2465 178.673 44.0085 183.861 44.4001L187.973 44.6937L188.267 53.4059C188.462 59.7687 188.169 62.4117 187.288 62.9991C185.819 63.8801 127.771 64.0758 125.421 63.1948C124.149 62.7054 123.855 60.8455 123.855 53.4059V44.2043H146.761C161.053 44.2043 169.961 43.8127 170.353 43.2254C170.744 42.638 168.101 42.2465 163.305 42.2465C158.606 42.2465 155.082 41.757 154.397 41.0718C153.516 40.1908 153.222 40.1908 153.222 41.0718Z" fill="url(#paint3_linear_805_310)"/>
<path d="M127.476 47.7295C127.085 48.121 126.791 49.3936 126.889 50.4704C126.889 52.4282 126.987 52.4282 127.77 50.2746C128.553 48.4147 129.434 48.121 133.546 48.121C137.951 48.121 138.538 48.4147 139.125 50.4704C139.419 51.7429 139.517 54.0923 139.321 55.5606C139.027 58.3015 138.832 58.3994 133.643 58.3994C128.847 58.3994 128.26 58.2036 127.672 55.9522L126.987 53.5049L126.889 56.0501C126.791 59.7699 128.847 61.0424 134.818 60.6509L140.006 60.3572V53.9944V47.6316L134.133 47.3379C130.805 47.1421 127.868 47.3379 127.476 47.7295Z" fill="url(#paint4_linear_805_310)"/>
<path d="M143.922 50.0777C144.313 50.6651 152.438 51.0566 165.066 51.0566C178.085 51.0566 185.525 50.6651 185.525 50.0777C185.525 49.4904 177.791 49.0989 164.381 49.0989C150.578 49.0989 143.53 49.3925 143.922 50.0777Z" fill="url(#paint5_linear_805_310)"/>
<path d="M143.922 53.9938C144.313 54.5811 152.438 54.9727 165.066 54.9727C178.085 54.9727 185.525 54.5811 185.525 53.9938C185.525 53.4064 177.791 53.0149 164.381 53.0149C150.578 53.0149 143.53 53.3085 143.922 53.9938Z" fill="url(#paint6_linear_805_310)"/>
<path d="M143.922 57.9098C144.313 58.4971 149.11 58.8887 155.277 58.8887C161.738 58.8887 165.947 58.4971 165.947 57.9098C165.947 57.3224 161.542 56.9309 154.592 56.9309C147.348 56.9309 143.53 57.3224 143.922 57.9098Z" fill="url(#paint7_linear_805_310)"/>
<path d="M169.374 57.9098C169.668 58.3992 171.43 58.8887 173.29 58.8887C175.149 58.8887 176.911 58.3992 177.205 57.9098C177.597 57.3224 176.03 56.9309 173.29 56.9309C170.549 56.9309 168.982 57.3224 169.374 57.9098Z" fill="url(#paint8_linear_805_310)"/>
<path d="M139.884 76.8967C135.224 82.6594 125.522 90.5935 120.216 93.0706C112.236 96.7204 105.793 98.8434 105.885 97.5741C106.02 96.6552 105.012 96.9144 102.994 98.0895C101.327 99.222 100.01 100.312 100.096 100.575C100.443 101.627 106.746 101.955 106.662 100.816C106.62 100.247 107.63 99.5501 109.031 99.3798C112.842 98.7801 123.63 93.2574 129.775 88.6819C132.891 86.4162 137.634 82.011 140.447 78.8249C145.985 72.4086 146.425 71.7535 145.463 71.2686C145.114 71.0923 142.61 73.6666 139.884 76.8967Z" fill="url(#paint9_linear_805_310)"/>
<path d="M23.5914 61.7013C23.4935 62.3865 22.6125 62.9739 21.4378 62.9739C20.361 62.9739 19.7737 63.3654 20.0674 63.9528C20.4589 64.5401 29.1711 64.9317 43.0714 64.9317C62.5514 64.9317 65.4881 65.1274 65.9775 66.4979C66.2712 67.3789 66.5649 71.7839 66.5649 76.2868V84.5096H34.9466C11.6489 84.5096 3.03458 84.2159 2.15357 83.3349C0.978895 82.1602 0.489448 69.3367 1.56623 66.4979C1.95779 65.4211 3.42613 64.9317 6.46071 64.9317C8.81006 64.9317 10.7678 64.4422 10.7678 63.9528C10.7678 62.6802 4.30714 62.6802 1.8599 63.9528C0.195779 64.8338 0 66.1063 0 74.0354C0 79.8109 0.391558 83.5307 1.17467 84.3138C1.95779 85.0969 7.14594 85.4885 18.2075 85.4885H34.1634L36.6107 88.6209C37.9811 90.3829 39.3516 91.4597 39.7431 91.0682C40.1347 90.6766 39.4495 89.404 38.079 88.1315L35.7297 85.9779L51.6857 85.6842L67.5438 85.4885V75.2101C67.5438 66.1063 67.348 64.9317 65.6839 63.9528C64.5092 63.3654 55.797 62.9739 44.1482 62.9739C29.4647 62.9739 24.4724 62.6802 24.1787 61.7013C23.7872 60.7224 23.5914 60.7224 23.5914 61.7013Z" fill="url(#paint10_linear_805_310)"/>
<path d="M5.08963 69.042C3.71917 70.4125 3.52339 74.7196 4.79596 74.7196C5.28541 74.7196 5.87274 73.5449 6.06852 71.9787C6.36219 69.5315 6.65586 69.3357 11.2567 69.3357H16.1511L16.4448 74.426L16.7385 79.6141H11.3546C7.14531 79.6141 5.87274 79.3204 5.87274 78.1458C5.87274 77.3626 5.48119 76.6774 4.89385 76.6774C3.13184 76.6774 3.81706 79.5162 5.77485 80.593C8.41787 81.9634 15.9554 81.8656 17.4237 80.3972C18.1089 79.712 18.5984 77.1669 18.5984 74.7196C18.5984 72.2724 18.1089 69.7273 17.4237 69.042C16.7385 68.3568 13.9976 67.8674 11.2567 67.8674C8.51576 67.8674 5.77485 68.3568 5.08963 69.042Z" fill="url(#paint11_linear_805_310)"/>
<path d="M21.5352 70.8043C21.5352 71.3916 28.9748 71.7832 41.9941 71.7832C54.6218 71.7832 62.7466 71.3916 63.1382 70.8043C63.5298 70.1191 56.4817 69.8254 42.6793 69.8254C29.2684 69.8254 21.5352 70.217 21.5352 70.8043Z" fill="url(#paint12_linear_805_310)"/>
<path d="M9.49484 71.4898C8.0265 72.8603 8.9075 73.9371 10.3758 72.6645C11.8442 71.4898 11.9421 71.5877 11.2568 73.7413C10.5716 75.8949 10.6695 75.9928 12.04 74.916C12.921 74.1329 13.3125 72.9582 13.0189 72.1751C12.5294 70.7067 10.5716 70.3152 9.49484 71.4898Z" fill="url(#paint13_linear_805_310)"/>
<path d="M21.5352 74.426C21.5352 75.4049 54.426 75.4049 55.4049 74.426C55.7965 74.0344 48.3569 73.7408 38.8616 73.7408C29.2684 73.7408 21.5352 74.0344 21.5352 74.426Z" fill="url(#paint14_linear_805_310)"/>
<path d="M21.5352 78.3419C21.5352 78.8313 24.374 79.125 27.898 79.125C31.422 79.125 34.2608 78.8313 34.2608 78.3419C34.2608 77.9503 31.422 77.6567 27.898 77.6567C24.374 77.6567 21.5352 77.9503 21.5352 78.3419Z" fill="url(#paint15_linear_805_310)"/>
<path d="M39.1562 78.6363C39.1562 79.1258 40.4288 79.6152 41.995 79.6152C43.6592 79.6152 45.2254 79.1258 45.5191 78.6363C45.9106 78.049 44.736 77.6574 42.6803 77.6574C40.7225 77.6574 39.1562 78.049 39.1562 78.6363Z" fill="url(#paint16_linear_805_310)"/>
<path d="M71.2636 85.1626C69.6973 86.6309 68.5226 88.3929 68.5226 89.0782C68.5226 89.6655 67.6416 91.5254 66.467 92.9938C65.2923 94.56 64.2155 97.7903 63.9218 100.238C62.5514 112.278 72.9277 121.382 84.7723 118.445C96.3233 115.508 101.12 102.489 94.2676 92.4064C92.2119 89.3718 92.0161 88.4908 92.995 86.6309C94.9528 83.009 93.4845 82.3238 83.4019 82.3238C74.2981 82.4217 73.8087 82.5196 71.2636 85.1626ZM92.0161 85.3584C92.0161 85.8478 91.6246 86.1415 91.1351 85.8478C90.7436 85.5542 89.5689 86.1415 88.59 87.2183C87.6111 88.2951 86.0449 89.1761 84.9681 89.1761C83.9892 89.1761 83.2061 89.5676 83.2061 90.155C83.2061 91.8191 85.7512 91.2317 88.6879 88.9803C91.4288 86.9246 91.4288 86.9246 89.7647 88.8824C88.59 90.2528 88.2963 91.1339 88.9816 91.6233C90.5478 92.5043 90.2541 96.0283 88.6879 96.0283C87.9048 96.0283 87.5132 95.1473 87.6111 93.679C87.9048 91.5254 87.6111 91.4275 84.185 91.8191C81.8356 92.2106 78.5074 91.7212 75.4728 90.5465L70.4804 88.7845L72.634 86.533C74.4939 84.4774 75.6686 84.2816 83.4019 84.2816C88.7858 84.2816 92.0161 84.6731 92.0161 85.3584ZM75.1791 92.8959C74.2981 93.0916 73.4171 94.0705 73.1235 95.1473C72.7319 96.7136 72.9277 97.0072 74.4939 96.5178C76.8433 95.7347 79.3884 97.5946 78.6053 99.5524C78.3116 100.335 77.039 100.923 75.7665 100.923C73.1235 100.923 71.4593 97.8882 71.4593 93.0916C71.4593 90.3507 71.5572 90.2528 74.1024 91.4275C75.9623 92.2106 76.2559 92.7001 75.1791 92.8959ZM68.1311 96.322C67.6416 99.5524 67.8374 100.923 69.0121 101.902C69.7952 102.587 70.4804 103.762 70.4804 104.545C70.4804 105.328 71.8509 107.286 73.4171 108.754L76.4517 111.593L73.8087 113.257C71.2636 115.019 71.1657 115.019 68.9142 112.376C66.1733 109.243 64.2155 102.685 65.0965 99.6502C66.1733 95.9304 67.7395 92.1127 68.229 92.1127C68.5226 92.1127 68.4248 94.0705 68.1311 96.322ZM94.5613 95.5389C96.5191 100.335 96.2254 105.719 93.876 109.733C91.3309 113.844 90.2541 114.627 88.1984 113.942C84.4786 112.572 84.0871 111.495 86.6322 109.537C90.4499 106.503 93.0929 100.335 92.4077 95.8326C91.6246 91.2317 92.6035 91.036 94.5613 95.5389ZM85.6533 94.0705C87.6111 94.9515 87.6111 94.9515 85.6533 94.9515C84.4786 95.0494 83.1082 95.5389 82.5209 96.1262C81.7377 96.9093 80.4652 96.8114 77.8222 95.9304C74.9834 94.8537 74.5918 94.4621 76.0601 93.9727C78.5074 92.9938 83.304 93.0916 85.6533 94.0705ZM88.6879 98.4756C90.4499 101.216 89.8626 104.251 86.828 107.481C83.8913 110.712 77.1369 110.614 73.9066 107.286C71.1657 104.643 70.2847 99.7481 72.9277 101.902C74.8855 103.566 78.801 102.391 79.9757 99.7481L80.9546 97.5946L81.4441 99.7481C81.8356 101.216 81.6398 101.902 80.6609 101.902C79.8778 101.902 79.2905 102.293 79.2905 102.881C79.2905 104.153 80.9546 104.153 81.7377 102.881C82.1293 102.293 82.8145 102.097 83.304 102.489C84.5765 103.272 89.0794 102.097 89.0794 101.119C89.0794 100.629 87.8069 100.433 86.1428 100.727C82.9124 101.216 80.8567 98.4756 83.304 96.9093C85.5554 95.5389 87.0238 95.9304 88.6879 98.4756ZM83.0103 112.865C82.3251 114.823 78.3116 115.117 78.3116 113.257C78.3116 112.18 79.1926 111.691 80.8567 111.691C82.423 111.691 83.2061 112.18 83.0103 112.865Z" fill="url(#paint17_linear_805_310)"/>
<path d="M77.332 105.818C77.332 106.307 78.213 107.188 79.1919 107.775C80.6603 108.461 81.4434 108.363 82.6181 107.188C84.7716 105.035 84.6737 104.839 80.7582 104.839C78.8983 104.839 77.332 105.23 77.332 105.818Z" fill="url(#paint18_linear_805_310)"/>
</g>
<defs>
<linearGradient id="paint0_linear_805_310" x1="98.7387" y1="-1.80063" x2="136.427" y2="11.9252" gradientUnits="userSpaceOnUse">
<stop stop-color="#5CD9BA"/>
<stop offset="1" stop-color="#81B5E9"/>
</linearGradient>
<linearGradient id="paint1_linear_805_310" x1="112.383" y1="15.7878" x2="115.717" y2="19.953" gradientUnits="userSpaceOnUse">
<stop stop-color="#5CD9BA"/>
<stop offset="1" stop-color="#81B5E9"/>
</linearGradient>
<linearGradient id="paint2_linear_805_310" x1="63.1694" y1="3.75846" x2="91.441" y2="22.962" gradientUnits="userSpaceOnUse">
<stop stop-color="#5CD9BA"/>
<stop offset="1" stop-color="#81B5E9"/>
</linearGradient>
<linearGradient id="paint3_linear_805_310" x1="121.343" y1="38.5507" x2="160.734" y2="81.7028" gradientUnits="userSpaceOnUse">
<stop stop-color="#5CD9BA"/>
<stop offset="1" stop-color="#81B5E9"/>
</linearGradient>
<linearGradient id="paint4_linear_805_310" x1="126.768" y1="46.3077" x2="140.99" y2="52.1332" gradientUnits="userSpaceOnUse">
<stop stop-color="#5CD9BA"/>
<stop offset="1" stop-color="#81B5E9"/>
</linearGradient>
<linearGradient id="paint5_linear_805_310" x1="143.584" y1="48.9601" x2="144.237" y2="54.7853" gradientUnits="userSpaceOnUse">
<stop stop-color="#5CD9BA"/>
<stop offset="1" stop-color="#81B5E9"/>
</linearGradient>
<linearGradient id="paint6_linear_805_310" x1="143.584" y1="52.8762" x2="144.237" y2="58.7013" gradientUnits="userSpaceOnUse">
<stop stop-color="#5CD9BA"/>
<stop offset="1" stop-color="#81B5E9"/>
</linearGradient>
<linearGradient id="paint7_linear_805_310" x1="143.724" y1="56.7922" x2="144.918" y2="62.4378" gradientUnits="userSpaceOnUse">
<stop stop-color="#5CD9BA"/>
<stop offset="1" stop-color="#81B5E9"/>
</linearGradient>
<linearGradient id="paint8_linear_805_310" x1="169.253" y1="56.7922" x2="171.828" y2="61.1797" gradientUnits="userSpaceOnUse">
<stop stop-color="#5CD9BA"/>
<stop offset="1" stop-color="#81B5E9"/>
</linearGradient>
<linearGradient id="paint9_linear_805_310" x1="122.345" y1="55.9011" x2="148.322" y2="78.3896" gradientUnits="userSpaceOnUse">
<stop stop-color="#5CD9BA"/>
<stop offset="1" stop-color="#81B5E9"/>
</linearGradient>
<linearGradient id="paint10_linear_805_310" x1="-0.522712" y1="58.8289" x2="44.852" y2="101.442" gradientUnits="userSpaceOnUse">
<stop stop-color="#5CD9BA"/>
<stop offset="1" stop-color="#81B5E9"/>
</linearGradient>
<linearGradient id="paint11_linear_805_310" x1="3.76499" y1="66.8971" x2="19.2288" y2="73.8718" gradientUnits="userSpaceOnUse">
<stop stop-color="#5CD9BA"/>
<stop offset="1" stop-color="#81B5E9"/>
</linearGradient>
<linearGradient id="paint12_linear_805_310" x1="21.2131" y1="69.6867" x2="21.8661" y2="75.5118" gradientUnits="userSpaceOnUse">
<stop stop-color="#5CD9BA"/>
<stop offset="1" stop-color="#81B5E9"/>
</linearGradient>
<linearGradient id="paint13_linear_805_310" x1="8.70638" y1="70.4615" x2="13.5284" y2="72.3109" gradientUnits="userSpaceOnUse">
<stop stop-color="#5CD9BA"/>
<stop offset="1" stop-color="#81B5E9"/>
</linearGradient>
<linearGradient id="paint14_linear_805_310" x1="21.2729" y1="73.6402" x2="21.6956" y2="77.8743" gradientUnits="userSpaceOnUse">
<stop stop-color="#5CD9BA"/>
<stop offset="1" stop-color="#81B5E9"/>
</linearGradient>
<linearGradient id="paint15_linear_805_310" x1="21.4367" y1="77.5526" x2="22.5675" y2="81.6654" gradientUnits="userSpaceOnUse">
<stop stop-color="#5CD9BA"/>
<stop offset="1" stop-color="#81B5E9"/>
</linearGradient>
<linearGradient id="paint16_linear_805_310" x1="39.1064" y1="77.5187" x2="41.909" y2="81.386" gradientUnits="userSpaceOnUse">
<stop stop-color="#5CD9BA"/>
<stop offset="1" stop-color="#81B5E9"/>
</linearGradient>
<linearGradient id="paint17_linear_805_310" x1="63.5396" y1="79.7254" x2="100.573" y2="93.975" gradientUnits="userSpaceOnUse">
<stop stop-color="#5CD9BA"/>
<stop offset="1" stop-color="#81B5E9"/>
</linearGradient>
<linearGradient id="paint18_linear_805_310" x1="77.2802" y1="104.6" x2="82.2666" y2="108.763" gradientUnits="userSpaceOnUse">
<stop stop-color="#5CD9BA"/>
<stop offset="1" stop-color="#81B5E9"/>
</linearGradient>
</defs>
</svg>
