<svg width="159" height="103" viewBox="0 0 159 103" fill="none" xmlns="http://www.w3.org/2000/svg">
<g opacity="0.7">
<path d="M1.48206 5.07278C1.67532 5.65255 2.25509 6.03906 2.73823 6.03906C3.22137 6.03906 3.80114 5.65255 3.9944 5.07278C4.18765 4.49301 3.60788 4.00987 2.73823 4.00987C1.86858 4.00987 1.28881 4.49301 1.48206 5.07278Z" fill="url(#paint0_linear_805_334)"/>
<path d="M5.3473 5.07278C5.54055 5.65255 6.12032 6.03906 6.60346 6.03906C7.08661 6.03906 7.66638 5.65255 7.85963 5.07278C8.05289 4.49301 7.47312 4.00987 6.60346 4.00987C5.73381 4.00987 5.15404 4.49301 5.3473 5.07278Z" fill="url(#paint1_linear_805_334)"/>
<path d="M9.98535 5.55692C9.98535 7.1996 12.1112 6.90971 12.6909 5.17041C12.8842 4.49401 12.4011 4.01087 11.5314 4.01087C10.6617 4.01087 9.98535 4.68727 9.98535 5.55692Z" fill="url(#paint2_linear_805_334)"/>
<path d="M23.8035 7.58553C28.4417 7.77878 35.882 7.77878 40.2303 7.58553C44.5786 7.4889 40.8101 7.29564 31.727 7.29564C22.7406 7.29564 19.1654 7.4889 23.8035 7.58553Z" fill="url(#paint3_linear_805_334)"/>
<path d="M119.465 7.58553C121.398 7.77878 124.683 7.77878 126.712 7.58553C128.645 7.39227 127.002 7.19901 123.041 7.19901C119.079 7.19901 117.436 7.39227 119.465 7.58553Z" fill="url(#paint4_linear_805_334)"/>
<path d="M138.308 7.58553C142.656 7.77878 149.807 7.77878 154.252 7.58553C158.6 7.4889 155.025 7.29564 146.232 7.29564C137.438 7.29564 133.863 7.4889 138.308 7.58553Z" fill="url(#paint5_linear_805_334)"/>
<path d="M151.546 19.3744L157.343 19.9542L157.923 30.1001L158.406 40.2461L158.6 29.3271L158.793 18.5047L152.319 18.698L145.748 18.7946L151.546 19.3744Z" fill="url(#paint6_linear_805_334)"/>
<path d="M8.05322 22.5635C8.05322 24.2062 8.34311 24.3994 8.92288 23.4331C9.40602 22.7567 10.3723 21.7905 11.0487 21.3073C12.015 20.7275 11.8217 20.4377 10.2757 20.4377C8.63299 20.4377 8.05322 21.0174 8.05322 22.5635Z" fill="url(#paint7_linear_805_334)"/>
<path d="M132.413 22.081C130.577 23.9169 132.027 25.1731 136.375 25.463C140.24 25.7528 140.917 26.0427 141.207 27.8787C141.69 31.2606 143.332 30.4876 143.332 26.9124C143.332 23.9169 142.946 23.5304 139.564 22.5641C135.312 21.2113 133.283 21.1147 132.413 22.081Z" fill="url(#paint8_linear_805_334)"/>
<path d="M22.2575 25.8487C19.4553 28.6509 18.0059 33.8689 19.3587 36.3812C20.4216 38.2171 19.8418 42.662 18.5857 42.662C17.6194 42.662 14.9138 47.5901 13.8509 51.2619C13.4644 52.6147 12.788 54.5473 12.4015 55.4169C11.8217 56.8664 12.3048 57.1562 15.1071 57.1562C17.5228 57.1562 18.6823 56.6731 18.9722 55.4169C19.3587 53.8709 19.4553 53.8709 19.5519 55.4169C19.6486 56.963 20.8081 57.1562 30.2777 57.1562C36.172 57.1562 40.9068 56.7697 40.9068 56.2866C40.9068 54.4507 35.1091 42.662 34.2394 42.662C32.6934 42.662 32.017 38.9901 33.1765 36.8643C34.6259 34.1587 33.4664 27.4914 31.1473 25.1723C28.635 22.66 25.1564 22.8532 22.2575 25.8487ZM31.0507 29.1341C32.8866 29.1341 32.4035 36.0913 30.3743 38.507C28.0552 41.3092 24.7699 41.4059 23.9968 38.7003C23.2238 36.4778 24.0935 30.5835 25.6395 27.8779C26.5092 26.2352 26.7024 26.2352 28.2485 27.588C29.2148 28.4577 30.4709 29.1341 31.0507 29.1341ZM27.2822 43.7249C27.7653 43.0485 28.8283 42.662 29.7945 42.8553C31.9204 43.2418 36.4619 51.3586 35.3023 52.5181C33.8529 53.9675 25.9294 54.4507 21.7744 53.2911C17.1362 52.1316 16.7497 50.7788 19.8418 46.1406C21.7744 43.2418 22.2575 43.0485 24.2867 43.9182C26.026 44.6912 26.7024 44.6912 27.2822 43.7249Z" fill="url(#paint9_linear_805_334)"/>
<path d="M8.43994 36.3815C8.43994 42.7589 8.53657 45.2713 8.72983 41.8893C8.92308 38.6039 8.92308 33.386 8.72983 30.2939C8.53657 27.2984 8.43994 30.004 8.43994 36.3815Z" fill="url(#paint10_linear_805_334)"/>
<path d="M133.573 38.6046C132.703 38.9911 130.771 40.7304 129.321 42.4697L126.712 45.5618L129.225 47.591C131.157 49.137 131.544 50.1033 131.061 52.3258L130.578 55.2246H138.888C146.135 55.2246 147.198 55.0314 147.198 53.4853C147.198 52.6156 146.521 51.0696 145.845 50.1033C144.685 48.5573 144.492 48.5573 143.912 49.9101C143.622 50.7797 142.946 51.1662 142.366 50.8763C141.883 50.5865 141.4 50.6831 141.4 51.2629C141.4 52.3258 135.602 51.5527 133.96 50.1999C133.283 49.6202 132.703 48.1707 132.703 47.0112C132.703 42.3731 133.283 42.0832 141.013 42.2764C148.55 42.4697 150.096 43.1461 150.096 46.7213C150.096 49.3303 148.454 48.7505 147.294 45.755C146.328 43.436 146.328 43.5326 146.811 47.0112C147.681 53.0022 148.164 53.0988 154.735 48.8471C154.928 48.7505 154.155 46.9146 153.092 44.7888C150 38.7978 144.395 35.7057 142.946 39.281C142.656 40.054 141.4 40.7304 140.047 40.7304C138.791 40.7304 137.535 40.054 137.148 39.281C136.568 37.7349 135.989 37.6383 133.573 38.6046Z" fill="url(#paint11_linear_805_334)"/>
<path d="M1.28886 54.8375C0.225946 55.997 0.322574 56.5768 1.57874 57.9296C2.54502 58.7992 3.22142 58.9925 3.22142 58.4127C3.22142 57.7363 2.73828 56.9633 2.25514 56.6734C1.48211 56.1903 1.57874 55.6105 2.35177 54.6442C2.93154 53.8712 3.22142 53.2914 2.93154 53.2914C2.73828 53.2914 1.96525 53.9678 1.28886 54.8375Z" fill="url(#paint12_linear_805_334)"/>
<path d="M4.18791 59.574C2.54523 60.5403 2.25534 60.9268 3.31825 61.0234C4.18791 61.0234 5.44407 60.347 6.12047 59.574C7.56989 57.8347 7.28001 57.8347 4.18791 59.574Z" fill="url(#paint13_linear_805_334)"/>
<path d="M128.548 58.7044C127.775 59.4774 128.645 61.0234 129.901 61.0234C130.384 61.0234 130.771 60.347 130.771 59.574C130.771 58.1246 129.611 57.6414 128.548 58.7044Z" fill="url(#paint14_linear_805_334)"/>
<path d="M134.25 58.801C133.187 59.8639 133.67 61.0234 135.119 61.0234C135.892 61.0234 136.569 60.6369 136.569 60.1538C136.569 58.8976 135.023 58.028 134.25 58.801Z" fill="url(#paint15_linear_805_334)"/>
<path d="M139.081 58.8935C138.791 59.4733 138.984 60.2463 139.564 60.5362C141.014 61.5024 141.98 60.2463 140.724 58.9901C140.047 58.3137 139.467 58.3137 139.081 58.8935Z" fill="url(#paint16_linear_805_334)"/>
<path d="M144.878 58.801C143.816 59.8639 144.299 61.0234 145.748 61.0234C146.521 61.0234 147.198 60.6369 147.198 60.1538C147.198 58.8976 145.651 58.028 144.878 58.801Z" fill="url(#paint17_linear_805_334)"/>
<path d="M149.613 59.0882C148.84 60.3444 151.062 61.4073 152.222 60.2477C152.802 59.668 152.608 59.1848 151.642 58.7983C150.869 58.5084 149.903 58.6051 149.613 59.0882Z" fill="url(#paint18_linear_805_334)"/>
<path d="M21.1944 60.7307C20.1314 61.7936 20.6146 62.9531 22.064 62.9531C22.837 62.9531 23.5134 62.5666 23.5134 62.0835C23.5134 60.8273 21.9674 59.9577 21.1944 60.7307Z" fill="url(#paint19_linear_805_334)"/>
<path d="M31.8233 60.7307C30.7603 61.7936 31.2435 62.9531 32.6929 62.9531C33.4659 62.9531 34.1423 62.5666 34.1423 62.0835C34.1423 60.8273 32.5963 59.9577 31.8233 60.7307Z" fill="url(#paint20_linear_805_334)"/>
<path d="M37.042 62.4705C37.042 63.2435 37.5251 63.9199 38.0083 63.9199C38.588 63.9199 38.9746 63.2435 38.9746 62.4705C38.9746 61.6975 38.588 61.0211 38.0083 61.0211C37.5251 61.0211 37.042 61.6975 37.042 62.4705Z" fill="url(#paint21_linear_805_334)"/>
<path d="M127.679 67.4957C129.418 67.6889 132.027 67.6889 133.477 67.4957C134.926 67.3024 133.477 67.1092 130.288 67.1092C127.099 67.1092 125.94 67.3024 127.679 67.4957Z" fill="url(#paint22_linear_805_334)"/>
<path d="M15.1069 69.4254C16.5563 69.6186 18.8754 69.6186 20.4214 69.4254C21.8709 69.2321 20.6147 69.0389 17.7158 69.0389C14.817 69.0389 13.5608 69.2321 15.1069 69.4254Z" fill="url(#paint23_linear_805_334)"/>
<path d="M132.027 70.3941C136.665 70.5874 144.202 70.5874 148.937 70.3941C153.575 70.2975 149.71 70.1042 140.434 70.1042C131.158 70.1042 127.293 70.2975 132.027 70.3941Z" fill="url(#paint24_linear_805_334)"/>
<path d="M21.8708 72.3277C25.446 72.521 31.1471 72.521 34.4325 72.3277C37.7178 72.1345 34.819 72.0378 27.8617 72.0378C21.0011 72.0378 18.2956 72.1345 21.8708 72.3277Z" fill="url(#paint25_linear_805_334)"/>
<path d="M132.993 73.2926C137.632 73.4858 145.072 73.4858 149.42 73.2926C153.769 73.1959 150 73.0027 140.917 73.0027C131.931 73.0027 128.355 73.1959 132.993 73.2926Z" fill="url(#paint26_linear_805_334)"/>
<path d="M21.3876 75.2262C24.673 75.4194 30.0841 75.4194 33.4661 75.2262C36.7515 75.0329 34.0459 74.9363 27.3786 74.9363C20.7112 74.9363 18.0056 75.0329 21.3876 75.2262Z" fill="url(#paint27_linear_805_334)"/>
<path d="M132.027 76.1929C136.665 76.3862 144.202 76.3862 148.937 76.1929C153.575 76.0963 149.71 75.9031 140.434 75.9031C131.158 75.9031 127.293 76.0963 132.027 76.1929Z" fill="url(#paint28_linear_805_334)"/>
<path d="M21.8708 78.1226C25.446 78.3159 31.1471 78.3159 34.4325 78.1226C37.7178 77.9294 34.819 77.8328 27.8617 77.8328C21.0011 77.8328 18.2956 77.9294 21.8708 78.1226Z" fill="url(#paint29_linear_805_334)"/>
<path d="M134.926 79.0894C138.984 79.2827 145.748 79.2827 149.903 79.0894C153.962 78.9928 150.58 78.7995 142.366 78.7995C134.153 78.7995 130.771 78.9928 134.926 79.0894Z" fill="url(#paint30_linear_805_334)"/>
<path d="M18.9721 81.0211C23.6103 81.2143 31.1473 81.2143 35.8821 81.0211C40.5202 80.9244 36.6551 80.7312 27.3788 80.7312C18.1025 80.7312 14.2373 80.9244 18.9721 81.0211Z" fill="url(#paint31_linear_805_334)"/>
<path d="M135.892 81.9898C140.047 82.1831 146.521 82.1831 150.386 81.9898C154.251 81.8932 150.869 81.6999 142.849 81.6999C134.926 81.6999 131.737 81.8932 135.892 81.9898Z" fill="url(#paint32_linear_805_334)"/>
<path d="M18.9721 83.9215C23.6103 84.1147 31.1473 84.1147 35.8821 83.9215C40.5202 83.8248 36.6551 83.6316 27.3788 83.6316C18.1025 83.6316 14.2373 83.8248 18.9721 83.9215Z" fill="url(#paint33_linear_805_334)"/>
<path d="M72.6005 88.7535C79.0746 88.9468 89.7037 88.9468 96.2744 88.7535C102.749 88.6569 97.434 88.4636 84.3892 88.4636C71.3443 88.4636 66.0298 88.6569 72.6005 88.7535Z" fill="url(#paint34_linear_805_334)"/>
<path d="M72.6005 92.6187C79.0746 92.812 89.7037 92.812 96.2744 92.6187C102.749 92.5221 97.434 92.3288 84.3892 92.3288C71.3443 92.3288 66.0298 92.5221 72.6005 92.6187Z" fill="url(#paint35_linear_805_334)"/>
<path d="M74.5331 96.484C79.3645 96.6772 87.4813 96.6772 92.4094 96.484C97.2408 96.3873 93.279 96.1941 83.4229 96.1941C73.5669 96.1941 69.6051 96.3873 74.5331 96.484Z" fill="url(#paint36_linear_805_334)"/>
<path d="M83.4228 11.2576C82.07 11.934 80.0408 12.3205 78.8812 12.1272C75.5959 11.2576 72.4071 15.0261 73.0835 18.9878C73.4701 21.5002 73.0835 22.6597 71.3442 24.3024C69.6049 25.9451 69.1218 27.2012 69.5083 29.0372C69.8948 30.7765 69.5083 32.1293 68.542 32.9023C66.8027 34.3517 66.5128 36.9607 67.9622 38.4101C68.542 38.9899 67.769 42.2752 65.5465 47.9763C63.7106 52.6144 62.1646 57.0593 62.1646 57.7357C62.1646 58.6054 63.5173 58.8953 66.3196 58.7986C69.6049 58.6054 70.5712 58.1223 71.4409 56.1897L72.5038 53.774L73.2768 56.4796C73.7599 58.3155 74.4363 58.9919 75.4026 58.702C76.1756 58.4121 80.7172 58.1223 85.5486 58.1223C92.0227 58.1223 94.1485 57.8324 93.8586 56.8661C93.5687 56.2863 92.4092 55.5133 91.0564 55.32C87.8677 54.9335 87.3845 53.6774 88.8339 49.619C90.1867 45.7538 90.5732 38.6034 89.5103 37.4438C88.6407 36.5742 86.6115 43.5314 85.7418 50.1021C85.452 52.9043 84.7756 55.2234 84.389 55.2234C84.0025 55.2234 82.9396 53.1942 81.9733 50.5853C81.0071 48.0729 79.2677 43.9179 78.0116 41.3089L75.6925 36.5742L78.3015 34.3517C80.1374 32.8057 80.6205 31.6461 80.234 30.0034C79.9441 28.8439 80.1374 26.9113 80.7172 25.8484C81.3936 24.6889 81.7801 22.4664 81.5868 20.8238C81.2969 17.2485 82.6497 16.089 85.3553 17.5384C86.7081 18.3114 87.8677 18.3114 89.2204 17.5384C91.0564 16.5721 91.153 16.7654 91.153 22.7563C91.153 28.1675 90.8631 29.2304 88.8339 30.8731C86.0317 32.9989 86.6115 34.2551 91.6362 36.864C95.1148 38.6034 95.5013 38.7 97.144 37.1539C99.2698 35.318 99.463 32.4191 97.5305 31.7428C96.6608 31.3562 96.3709 30.39 96.6608 29.1338C97.0473 27.6844 96.3709 26.2349 94.535 24.3024C92.0227 21.6934 91.926 21.2103 92.7957 17.635C94.535 10.8711 89.8002 7.68233 83.4228 11.2576ZM77.2386 16.089C76.9487 16.862 77.1419 18.6979 77.7217 20.1474C78.5913 22.3698 78.3981 23.0462 76.7554 24.4956C75.306 25.5585 74.8228 27.008 74.9195 29.1338C75.1127 31.5495 74.6296 32.6124 72.7937 33.7719C70.3779 35.318 70.3779 35.318 72.1173 33.3854C72.9869 32.3225 73.7599 30.1001 73.7599 28.4574C73.7599 26.8147 74.4363 24.9788 75.2094 24.3024C76.2723 23.4327 76.5622 22.0799 76.079 19.8575C75.7891 18.1182 75.7891 16.2822 76.1756 15.7025C77.0453 14.1564 77.9149 14.4463 77.2386 16.089ZM94.7283 32.0326C94.535 35.8978 93.762 36.864 92.6024 34.9315C92.2159 34.3517 92.5058 33.2888 93.0856 32.5158C93.762 31.7428 94.0519 30.1967 93.762 29.1338C93.4721 28.0709 93.6653 27.3945 94.1485 27.6844C94.6316 27.9743 94.8249 30.0034 94.7283 32.0326ZM74.7262 39.6663C74.7262 42.7584 78.0116 50.8751 80.3307 53.4841C81.6834 55.1268 81.5868 55.2234 78.8812 55.2234C77.3352 55.2234 75.2094 54.6436 74.1464 53.8706C72.6004 52.6144 72.0206 52.6144 70.0881 53.8706C68.1555 55.1268 67.8656 55.1268 67.3825 53.8706C67.0926 53.001 67.4791 50.4886 68.3488 48.2662C69.2184 45.9471 69.9914 43.0483 70.1847 41.6955C70.7645 36.4775 74.7262 34.6416 74.7262 39.6663Z" fill="url(#paint37_linear_805_334)"/>
<path d="M81.8768 35.5104C82.1667 36.38 82.4566 37.3463 82.4566 37.6362C82.4566 38.5059 84.3892 35.607 84.3892 34.6407C84.3892 34.2542 83.7128 33.9643 82.8431 33.9643C81.7802 33.9643 81.4903 34.4475 81.8768 35.5104Z" fill="url(#paint38_linear_805_334)"/>
<path d="M94.0522 40.4393C94.0522 40.9224 95.1152 44.1112 96.468 47.3965C98.6904 53.1942 98.8837 55.2234 97.0477 55.2234C96.5646 55.2234 95.7916 53.774 95.2118 52.0347C94.0522 48.9426 94.0522 48.9426 94.4388 53.0976C94.7286 55.4167 95.0185 57.4458 95.2118 57.5425C95.8882 58.2189 103.715 58.8953 103.715 58.3155C103.522 56.1897 96.2747 40.3427 95.3084 39.9561C94.632 39.7629 94.0522 39.9561 94.0522 40.4393Z" fill="url(#paint39_linear_805_334)"/>
<path d="M67.673 63.6324C67.2865 63.9222 66.9966 64.7919 66.9966 65.5649C66.9966 67.0144 69.5089 67.3042 70.2819 65.9514C70.9583 64.8885 68.5426 62.7627 67.673 63.6324Z" fill="url(#paint40_linear_805_334)"/>
<path d="M75.3065 63.6311C74.0503 64.8873 74.7267 67.6895 76.1761 67.2063C77.7222 66.5299 78.1087 64.3075 76.7559 63.5345C76.3694 63.2446 75.693 63.2446 75.3065 63.6311Z" fill="url(#paint41_linear_805_334)"/>
<path d="M83.0364 63.6311C81.7803 64.8873 82.4567 67.6895 83.9061 67.2063C85.4521 66.5299 85.8387 64.3075 84.4859 63.5345C84.0994 63.2446 83.423 63.2446 83.0364 63.6311Z" fill="url(#paint42_linear_805_334)"/>
<path d="M90.2838 64.306C89.1242 65.6588 89.8006 66.8184 91.8298 66.8184C93.2792 66.8184 93.5691 64.306 92.2163 63.533C91.7332 63.2431 90.8635 63.533 90.2838 64.306Z" fill="url(#paint43_linear_805_334)"/>
<path d="M98.0137 63.9195C96.4676 64.7892 97.4339 66.8184 99.4631 66.8184C100.912 66.8184 101.396 64.4027 100.043 63.533C99.6563 63.3397 98.69 63.4364 98.0137 63.9195Z" fill="url(#paint44_linear_805_334)"/>
<path d="M71.3838 3.53125C76.8918 1.21241 89.1629 1.50251 95.8301 4.11133C98.6323 5.27087 101.532 6.04379 102.111 5.75391C102.787 5.46409 102.787 5.27053 102.015 5.27051C100.082 5.17388 100.565 3.24121 102.498 3.24121C105.011 3.33847 112.934 9.52322 116.315 14.1611C123.949 24.4035 126.655 35.4188 124.529 47.5938C123.08 55.5171 121.63 59.1893 116.992 65.7598L114.093 69.7217L122.693 80.2539C127.331 85.9549 133.515 93.5888 136.414 97.2607L140.066 101.947C138.74 102.156 137.384 102.27 136.003 102.285C134.586 101.452 133.697 101.309 133.032 101.899C132.162 102.575 128.974 99.0963 120.471 88.3711C110.615 75.9066 108.779 74.0703 107.522 75.2295C104.237 78.0317 95.6372 81.5103 89.3564 82.5732C69.3545 85.8586 48.3857 73.104 42.6846 54.165C37.1768 35.9989 42.3952 18.2187 56.5029 7.10645C60.8511 3.62802 66.0685 1.79237 64.5224 4.20801C63.6532 5.65725 67.2289 5.36712 71.3838 3.53125ZM97.5693 8.07324C80.0797 0.343098 60.4639 6.91333 51.3808 23.7266C48.1921 29.6209 48.0957 30.2009 48.0957 40.4434C48.0957 50.6858 48.1922 51.2661 51.3808 57.1602C56.792 67.2094 65.4888 73.3938 77.1807 75.7129C91.8681 78.6117 108.392 69.8186 115.06 55.6143C117.379 50.7829 117.668 48.85 117.668 40.4434C117.668 32.0368 117.379 30.1038 115.06 25.2725C111.678 18.0254 105.01 11.4552 97.5693 8.07324ZM111.678 70.1084C111.001 68.3691 110.711 68.2723 109.068 69.5283C107.329 70.7845 107.329 70.8813 109.552 71.751C110.807 72.2339 111.966 72.5238 112.16 72.3311C112.257 72.2344 112.064 71.2679 111.678 70.1084ZM135.687 0C139.552 6.48603e-05 143.234 0.782958 146.583 2.19922L134.385 1.98535C108.543 1.50857 100.487 1.12434 96.6582 0H135.687ZM69.2285 0C67.2855 0.688066 63.5829 1.09876 54.9902 1.42285C57.7673 0.500224 60.7373 0 63.8242 0H69.2285Z" fill="url(#paint45_linear_805_334)"/>
</g>
<defs>
<linearGradient id="paint0_linear_805_334" x1="-0.169135" y1="3.04437" x2="3.9205" y2="6.19799" gradientUnits="userSpaceOnUse">
<stop stop-color="#5CD9BA"/>
<stop offset="1" stop-color="#81B5E9"/>
</linearGradient>
<linearGradient id="paint1_linear_805_334" x1="3.6961" y1="3.04437" x2="7.78573" y2="6.19799" gradientUnits="userSpaceOnUse">
<stop stop-color="#5CD9BA"/>
<stop offset="1" stop-color="#81B5E9"/>
</linearGradient>
<linearGradient id="paint2_linear_805_334" x1="8.27089" y1="2.75775" x2="13.2251" y2="5.8845" gradientUnits="userSpaceOnUse">
<stop stop-color="#5CD9BA"/>
<stop offset="1" stop-color="#81B5E9"/>
</linearGradient>
<linearGradient id="paint3_linear_805_334" x1="9.12768" y1="7.08875" x2="9.19189" y2="8.8987" gradientUnits="userSpaceOnUse">
<stop stop-color="#5CD9BA"/>
<stop offset="1" stop-color="#81B5E9"/>
</linearGradient>
<linearGradient id="paint4_linear_805_334" x1="113.022" y1="6.94614" x2="113.238" y2="9.13986" gradientUnits="userSpaceOnUse">
<stop stop-color="#5CD9BA"/>
<stop offset="1" stop-color="#81B5E9"/>
</linearGradient>
<linearGradient id="paint5_linear_805_334" x1="124.101" y1="7.08875" x2="124.167" y2="8.89857" gradientUnits="userSpaceOnUse">
<stop stop-color="#5CD9BA"/>
<stop offset="1" stop-color="#81B5E9"/>
</linearGradient>
<linearGradient id="paint6_linear_805_334" x1="137.609" y1="8.16007" x2="166.668" y2="18.7067" gradientUnits="userSpaceOnUse">
<stop stop-color="#5CD9BA"/>
<stop offset="1" stop-color="#81B5E9"/>
</linearGradient>
<linearGradient id="paint7_linear_805_334" x1="5.81579" y1="18.7343" x2="12.4285" y2="22.7413" gradientUnits="userSpaceOnUse">
<stop stop-color="#5CD9BA"/>
<stop offset="1" stop-color="#81B5E9"/>
</linearGradient>
<linearGradient id="paint8_linear_805_334" x1="124.337" y1="17.3446" x2="141.932" y2="31.811" gradientUnits="userSpaceOnUse">
<stop stop-color="#5CD9BA"/>
<stop offset="1" stop-color="#81B5E9"/>
</linearGradient>
<linearGradient id="paint9_linear_805_334" x1="-5.73495" y1="7.38608" x2="51.4869" y2="36.8653" gradientUnits="userSpaceOnUse">
<stop stop-color="#5CD9BA"/>
<stop offset="1" stop-color="#81B5E9"/>
</linearGradient>
<linearGradient id="paint10_linear_805_334" x1="8.16864" y1="22.259" x2="9.26449" y2="22.2791" gradientUnits="userSpaceOnUse">
<stop stop-color="#5CD9BA"/>
<stop offset="1" stop-color="#81B5E9"/>
</linearGradient>
<linearGradient id="paint11_linear_805_334" x1="109.21" y1="29.4512" x2="145.588" y2="64.7966" gradientUnits="userSpaceOnUse">
<stop stop-color="#5CD9BA"/>
<stop offset="1" stop-color="#81B5E9"/>
</linearGradient>
<linearGradient id="paint12_linear_805_334" x1="-1.10359" y1="50.697" x2="5.07169" y2="52.5215" gradientUnits="userSpaceOnUse">
<stop stop-color="#5CD9BA"/>
<stop offset="1" stop-color="#81B5E9"/>
</linearGradient>
<linearGradient id="paint13_linear_805_334" x1="0.0281613" y1="56.9592" x2="5.75507" y2="62.3298" gradientUnits="userSpaceOnUse">
<stop stop-color="#5CD9BA"/>
<stop offset="1" stop-color="#81B5E9"/>
</linearGradient>
<linearGradient id="paint14_linear_805_334" x1="126.688" y1="56.7535" x2="131.654" y2="59.3642" gradientUnits="userSpaceOnUse">
<stop stop-color="#5CD9BA"/>
<stop offset="1" stop-color="#81B5E9"/>
</linearGradient>
<linearGradient id="paint15_linear_805_334" x1="131.87" y1="57.3127" x2="136.784" y2="60.7329" gradientUnits="userSpaceOnUse">
<stop stop-color="#5CD9BA"/>
<stop offset="1" stop-color="#81B5E9"/>
</linearGradient>
<linearGradient id="paint16_linear_805_334" x1="137.478" y1="57.3239" x2="141.877" y2="59.927" gradientUnits="userSpaceOnUse">
<stop stop-color="#5CD9BA"/>
<stop offset="1" stop-color="#81B5E9"/>
</linearGradient>
<linearGradient id="paint17_linear_805_334" x1="142.499" y1="57.3127" x2="147.413" y2="60.7329" gradientUnits="userSpaceOnUse">
<stop stop-color="#5CD9BA"/>
<stop offset="1" stop-color="#81B5E9"/>
</linearGradient>
<linearGradient id="paint18_linear_805_334" x1="147.522" y1="57.6309" x2="151.889" y2="61.5041" gradientUnits="userSpaceOnUse">
<stop stop-color="#5CD9BA"/>
<stop offset="1" stop-color="#81B5E9"/>
</linearGradient>
<linearGradient id="paint19_linear_805_334" x1="18.8149" y1="59.2424" x2="23.7285" y2="62.6626" gradientUnits="userSpaceOnUse">
<stop stop-color="#5CD9BA"/>
<stop offset="1" stop-color="#81B5E9"/>
</linearGradient>
<linearGradient id="paint20_linear_805_334" x1="29.4438" y1="59.2424" x2="34.3574" y2="62.6626" gradientUnits="userSpaceOnUse">
<stop stop-color="#5CD9BA"/>
<stop offset="1" stop-color="#81B5E9"/>
</linearGradient>
<linearGradient id="paint21_linear_805_334" x1="35.8362" y1="59.6418" x2="40.0268" y2="61.3317" gradientUnits="userSpaceOnUse">
<stop stop-color="#5CD9BA"/>
<stop offset="1" stop-color="#81B5E9"/>
</linearGradient>
<linearGradient id="paint22_linear_805_334" x1="122.398" y1="66.8563" x2="122.666" y2="69.0385" gradientUnits="userSpaceOnUse">
<stop stop-color="#5CD9BA"/>
<stop offset="1" stop-color="#81B5E9"/>
</linearGradient>
<linearGradient id="paint23_linear_805_334" x1="10.3316" y1="68.786" x2="10.6219" y2="70.9622" gradientUnits="userSpaceOnUse">
<stop stop-color="#5CD9BA"/>
<stop offset="1" stop-color="#81B5E9"/>
</linearGradient>
<linearGradient id="paint24_linear_805_334" x1="116.959" y1="69.8973" x2="117.021" y2="71.7074" gradientUnits="userSpaceOnUse">
<stop stop-color="#5CD9BA"/>
<stop offset="1" stop-color="#81B5E9"/>
</linearGradient>
<linearGradient id="paint25_linear_805_334" x1="10.6253" y1="71.8309" x2="10.7092" y2="73.6393" gradientUnits="userSpaceOnUse">
<stop stop-color="#5CD9BA"/>
<stop offset="1" stop-color="#81B5E9"/>
</linearGradient>
<linearGradient id="paint26_linear_805_334" x1="118.318" y1="72.7958" x2="118.382" y2="74.6057" gradientUnits="userSpaceOnUse">
<stop stop-color="#5CD9BA"/>
<stop offset="1" stop-color="#81B5E9"/>
</linearGradient>
<linearGradient id="paint27_linear_805_334" x1="10.6121" y1="74.7294" x2="10.6991" y2="76.5374" gradientUnits="userSpaceOnUse">
<stop stop-color="#5CD9BA"/>
<stop offset="1" stop-color="#81B5E9"/>
</linearGradient>
<linearGradient id="paint28_linear_805_334" x1="116.959" y1="75.6962" x2="117.021" y2="77.5063" gradientUnits="userSpaceOnUse">
<stop stop-color="#5CD9BA"/>
<stop offset="1" stop-color="#81B5E9"/>
</linearGradient>
<linearGradient id="paint29_linear_805_334" x1="10.6253" y1="77.6259" x2="10.7092" y2="79.4342" gradientUnits="userSpaceOnUse">
<stop stop-color="#5CD9BA"/>
<stop offset="1" stop-color="#81B5E9"/>
</linearGradient>
<linearGradient id="paint30_linear_805_334" x1="121.62" y1="78.5927" x2="121.691" y2="80.4021" gradientUnits="userSpaceOnUse">
<stop stop-color="#5CD9BA"/>
<stop offset="1" stop-color="#81B5E9"/>
</linearGradient>
<linearGradient id="paint31_linear_805_334" x1="3.90333" y1="80.5243" x2="3.96558" y2="82.3344" gradientUnits="userSpaceOnUse">
<stop stop-color="#5CD9BA"/>
<stop offset="1" stop-color="#81B5E9"/>
</linearGradient>
<linearGradient id="paint32_linear_805_334" x1="122.884" y1="81.493" x2="122.956" y2="83.3024" gradientUnits="userSpaceOnUse">
<stop stop-color="#5CD9BA"/>
<stop offset="1" stop-color="#81B5E9"/>
</linearGradient>
<linearGradient id="paint33_linear_805_334" x1="3.90333" y1="83.4247" x2="3.96558" y2="85.2348" gradientUnits="userSpaceOnUse">
<stop stop-color="#5CD9BA"/>
<stop offset="1" stop-color="#81B5E9"/>
</linearGradient>
<linearGradient id="paint34_linear_805_334" x1="51.5314" y1="88.2567" x2="51.5759" y2="90.0679" gradientUnits="userSpaceOnUse">
<stop stop-color="#5CD9BA"/>
<stop offset="1" stop-color="#81B5E9"/>
</linearGradient>
<linearGradient id="paint35_linear_805_334" x1="51.5314" y1="92.122" x2="51.5759" y2="93.9331" gradientUnits="userSpaceOnUse">
<stop stop-color="#5CD9BA"/>
<stop offset="1" stop-color="#81B5E9"/>
</linearGradient>
<linearGradient id="paint36_linear_805_334" x1="58.6585" y1="95.9872" x2="58.7175" y2="97.7975" gradientUnits="userSpaceOnUse">
<stop stop-color="#5CD9BA"/>
<stop offset="1" stop-color="#81B5E9"/>
</linearGradient>
<linearGradient id="paint37_linear_805_334" x1="39.2653" y1="-13.5591" x2="116.056" y2="21.2044" gradientUnits="userSpaceOnUse">
<stop stop-color="#5CD9BA"/>
<stop offset="1" stop-color="#81B5E9"/>
</linearGradient>
<linearGradient id="paint38_linear_805_334" x1="80.0439" y1="32.1408" x2="85.7686" y2="34.5585" gradientUnits="userSpaceOnUse">
<stop stop-color="#5CD9BA"/>
<stop offset="1" stop-color="#81B5E9"/>
</linearGradient>
<linearGradient id="paint39_linear_805_334" x1="88.0234" y1="31.0068" x2="110.206" y2="37.9578" gradientUnits="userSpaceOnUse">
<stop stop-color="#5CD9BA"/>
<stop offset="1" stop-color="#81B5E9"/>
</linearGradient>
<linearGradient id="paint40_linear_805_334" x1="64.8732" y1="61.8125" x2="71.1474" y2="65.616" gradientUnits="userSpaceOnUse">
<stop stop-color="#5CD9BA"/>
<stop offset="1" stop-color="#81B5E9"/>
</linearGradient>
<linearGradient id="paint41_linear_805_334" x1="72.8152" y1="61.4561" x2="78.9637" y2="64.2318" gradientUnits="userSpaceOnUse">
<stop stop-color="#5CD9BA"/>
<stop offset="1" stop-color="#81B5E9"/>
</linearGradient>
<linearGradient id="paint42_linear_805_334" x1="80.5452" y1="61.4561" x2="86.6937" y2="64.2318" gradientUnits="userSpaceOnUse">
<stop stop-color="#5CD9BA"/>
<stop offset="1" stop-color="#81B5E9"/>
</linearGradient>
<linearGradient id="paint43_linear_805_334" x1="87.6151" y1="61.8071" x2="93.861" y2="65.5576" gradientUnits="userSpaceOnUse">
<stop stop-color="#5CD9BA"/>
<stop offset="1" stop-color="#81B5E9"/>
</linearGradient>
<linearGradient id="paint44_linear_805_334" x1="95.0112" y1="61.8321" x2="101.416" y2="65.9485" gradientUnits="userSpaceOnUse">
<stop stop-color="#5CD9BA"/>
<stop offset="1" stop-color="#81B5E9"/>
</linearGradient>
<linearGradient id="paint45_linear_805_334" x1="54.7611" y1="-1.86165e-06" x2="128.943" y2="104.702" gradientUnits="userSpaceOnUse">
<stop stop-color="#5CD9BA"/>
<stop offset="1" stop-color="#81B5E9"/>
</linearGradient>
</defs>
</svg>
