<svg width="10" height="10" viewBox="0 0 10 10" fill="none" xmlns="http://www.w3.org/2000/svg">
<path d="M2.508 9.528C2.508 9.424 2.488 9.372 2.448 9.372L2.172 9.504C2.172 9.448 2.14 9.408 2.076 9.384L1.98 9.372C1.916 9.372 1.836 9.4 1.74 9.456C1.724 9.416 1.704 9.376 1.68 9.336C1.656 9.296 1.636 9.26 1.62 9.228C1.516 9.028 1.412 8.808 1.308 8.568C1.212 8.32 1.12 8.084 1.032 7.86C0.952 7.636 0.888 7.46 0.84 7.332C0.808 7.228 0.772 7.072 0.732 6.864C0.692 6.656 0.652 6.392 0.612 6.072C0.7 6.128 0.768 6.156 0.816 6.156C0.872 6.156 0.924 6.072 0.972 5.904C0.996 5.936 1.04 5.952 1.104 5.952C1.152 5.952 1.188 5.936 1.212 5.904L1.404 5.616L1.62 5.688H1.632C1.648 5.688 1.664 5.68 1.68 5.664C1.696 5.648 1.72 5.632 1.752 5.616C1.816 5.576 1.864 5.556 1.896 5.556L1.932 5.568C2.132 5.664 2.26 5.84 2.316 6.096C2.46 6.704 2.604 7.008 2.748 7.008C2.892 7.008 3.06 6.856 3.252 6.552C3.348 6.4 3.444 6.224 3.54 6.024C3.644 5.824 3.748 5.6 3.852 5.352C3.868 5.448 3.884 5.496 3.9 5.496C3.94 5.496 4.008 5.396 4.104 5.196C4.208 4.996 4.372 4.72 4.596 4.368C4.724 4.152 4.884 3.908 5.076 3.636C5.276 3.364 5.488 3.084 5.712 2.796C5.936 2.508 6.152 2.236 6.36 1.98C6.576 1.724 6.768 1.504 6.936 1.32C7.104 1.136 7.228 1.016 7.308 0.96C7.612 0.752 7.852 0.552 8.028 0.36C8.02 0.415999 8.008 0.467999 7.992 0.516C7.984 0.556 7.98 0.584 7.98 0.599999C7.98 0.631999 7.996 0.648 8.028 0.648L8.364 0.48V0.528C8.364 0.592 8.38 0.624 8.412 0.624C8.436 0.624 8.484 0.588 8.556 0.516C8.628 0.444 8.668 0.392 8.676 0.36L8.652 0.528L9.06 0.288L8.964 0.504C9.092 0.416 9.184 0.372 9.24 0.372C9.272 0.372 9.296 0.391999 9.312 0.431999C9.328 0.464 9.336 0.496 9.336 0.528C9.336 0.575999 9.316 0.631999 9.276 0.696C9.236 0.76 9.184 0.836 9.12 0.924C9.072 0.988 8.992 1.084 8.88 1.212C8.776 1.332 8.616 1.512 8.4 1.752C8.184 1.984 7.896 2.308 7.536 2.724C7.44 2.828 7.292 3.012 7.092 3.276C6.892 3.532 6.664 3.832 6.408 4.176C6.16 4.512 5.912 4.852 5.664 5.196C5.416 5.54 5.196 5.852 5.004 6.132C4.812 6.404 4.676 6.608 4.596 6.744L3.852 8.004C3.692 8.276 3.56 8.5 3.456 8.676C3.352 8.844 3.272 8.96 3.216 9.024C3.096 9.168 2.964 9.296 2.82 9.408L2.712 9.348L2.616 9.408L2.508 9.528Z" fill="#5CD9BA"/>
</svg>
