<svg width="907" height="186" viewBox="0 0 907 186" fill="none" xmlns="http://www.w3.org/2000/svg">
<g opacity="0.37">
<path d="M3.97942 121.552C6.32025 121.552 12.1723 127.436 17.5563 134.301C26.4514 146.396 27.8559 147.05 44.944 148.358C58.2868 149.665 63.2025 149.011 63.2025 146.069C63.2025 143.127 58.2868 142.473 46.1144 143.454C29.4945 144.762 29.2604 144.762 20.3653 132.993C15.6836 126.782 11.7042 121.225 11.7042 120.571C11.7042 120.244 26.6855 120.244 44.944 120.898L78.4179 121.879L97.6128 148.684C108.381 163.395 117.042 177.125 117.042 179.413C117.042 185.297 121.723 188.239 124.766 183.989C126.405 181.701 124.298 177.125 117.276 168.298L107.21 155.876L145.6 156.857C178.137 157.511 184.692 156.857 187.267 152.607C188.905 149.992 191.48 147.704 193.119 147.704C196.396 147.704 199.439 139.531 197.332 136.589C194.289 132.666 190.544 134.955 188.437 141.82C186.096 149.011 185.16 149.338 145.132 150.319L104.167 150.973L91.2925 132.993L78.652 115.014H32.0694L37.6874 106.515C43.3054 98.3421 43.5395 98.0152 73.7363 98.9959C91.2925 99.6497 104.167 98.669 104.167 97.0345C104.167 95.4 90.8243 94.4193 72.5658 95.0731C41.1987 96.0538 40.9646 96.0538 33.9421 105.534C27.6218 113.706 24.8128 115.014 13.3428 115.014C6.08617 115.014 0 116.322 0 118.283C0 119.917 1.87267 121.552 3.97942 121.552Z" fill="#0B132B"/>
<path d="M99.3142 140.128C113.125 140.781 113.827 140.454 122.723 127.705L131.852 114.63H157.133C183.35 114.63 194.118 110.38 194.118 99.5922C194.118 91.7466 187.095 94.6887 184.755 103.188C182.648 110.707 181.243 111.361 169.071 111.361H155.728L173.05 86.8431C190.139 62.9796 190.841 62.3258 202.077 62.3258C213.079 62.3258 214.717 63.6334 225.719 78.3438L237.423 94.6887L262.002 95.3425C281.665 95.9963 286.581 95.3425 286.581 91.7466C286.581 88.1507 281.665 87.4969 262.002 88.1507L237.423 88.8045L228.06 75.7286L218.931 62.3258H284.474L307.414 95.0156H387.237L466.825 95.3425L473.145 103.188C476.891 107.438 479.7 112.668 479.7 114.63C479.7 116.264 481.338 117.898 483.211 117.898C485.084 117.898 486.722 115.61 486.722 112.995C486.722 110.38 485.786 108.092 484.615 108.092C483.445 108.092 479.231 103.515 475.252 97.9577L467.995 87.8238L408.304 89.1314L348.613 90.1121L364.297 67.883L379.98 45.9808H455.121L530.028 45.6539L545.945 24.4055C554.606 12.9641 561.161 1.84955 560.458 0.215057C559.756 -1.41943 552.734 6.42613 544.775 18.1945L530.73 39.4429H379.98L345.336 88.4776H307.414L286.815 59.0568H188.266L169.539 85.2087C151.749 110.38 150.578 111.361 140.279 111.361C130.915 111.361 128.341 112.995 120.382 124.436C112.423 135.878 102.997 131.686 91.2925 132.993L92.6287 139.685L99.3142 140.128Z" fill="#0B132B"/>
<path d="M445.506 40.3944C458.146 40.3944 459.55 43.8665 468.211 55.5923L477.34 67.9352H502.387C521.581 67.9352 527.901 68.8609 530.242 72.5637C531.88 75.0323 534.689 77.1923 536.328 77.1923C538.201 77.1923 539.605 79.0438 539.605 81.5123C539.605 89.8438 535.158 89.8438 531.178 81.8209C527.901 75.3409 525.56 74.1066 515.027 74.1066H502.621L519.474 95.7066C536.094 116.69 536.796 117.307 548.5 117.307C559.502 117.307 561.14 116.381 570.503 103.73L580.569 89.8438L606.786 88.9181C623.873 88.3009 633.237 88.9181 633.237 91.0781C633.237 93.2381 624.342 93.8552 607.956 93.2381L582.91 92.0038L573.546 104.655L564.417 117.307H630.896L640.493 103.421L650.324 89.5352H812.541L818.861 80.8952C822.372 76.2666 825.181 70.7123 825.181 68.5523C825.181 64.8494 830.331 63.3066 832.906 66.7009C835.012 69.478 831.969 77.1923 828.926 77.1923C827.288 77.1923 823.542 80.5866 820.499 84.9066L815.116 92.6209H693.161L725.464 135.821H878.317L886.978 148.164C891.659 154.952 898.214 162.667 901.257 165.444C907.811 170.998 908.981 179.021 903.597 179.021C901.725 179.021 900.086 177.17 900.086 175.01C900.086 172.85 893.766 163.901 886.275 154.952L872.231 138.907H723.123L688.479 92.6209H670.923C653.367 92.6209 653.367 92.6209 643.302 105.581L633.237 118.541L641.897 130.267C646.579 136.747 651.963 141.992 653.601 141.992C655.24 141.992 655.942 144.152 655.24 146.621C653.601 152.175 647.281 152.792 647.281 147.238C647.281 145.078 643.77 138.907 639.557 133.661L632.066 123.787L596.954 123.478C577.526 123.17 556.927 123.17 551.075 123.17L540.307 123.478L548.266 134.587L556.225 146.004L573.781 144.461C586.187 143.227 591.102 143.844 591.102 146.621C591.102 149.398 586.187 150.015 572.844 148.781L554.82 147.547L526.731 110.827C499.109 74.7238 498.407 74.1066 487.874 74.1066C478.745 74.1066 476.17 72.5637 468.211 61.7637C459.55 50.038 456.497 44.8355 443.856 44.8355C436.366 44.8355 424.823 42.2458 424.823 40.3944C424.823 38.543 438.015 40.3944 445.506 40.3944Z" fill="#0B132B"/>
</g>
</svg>
