<svg width="265" height="69" viewBox="0 0 265 69" fill="none" xmlns="http://www.w3.org/2000/svg">
<path opacity="0.37" d="M16.2964 52.1298C31.3393 51.3942 33.8465 52.1298 43.8751 59.7315L54.8439 67.8236L96.5252 68.8045C131.625 69.2949 137.893 69.0497 137.893 65.8619C137.893 62.6741 131.625 62.1837 96.2118 62.9193C55.4706 63.6549 54.5305 63.6549 47.3224 57.5246L40.1144 51.3942L70.5135 52.8655L100.599 54.3368L119.09 40.1143L137.893 25.6466L191.797 26.137C246.014 26.6275 246.014 26.6275 252.595 32.7578C258.236 38.3978 259.49 38.643 262.937 35.4552C266.384 32.2674 265.758 31.2866 259.176 29.3248C254.789 28.0988 250.401 25.6466 249.148 24.4205C247.894 22.704 228.464 21.7232 195.244 21.7232H142.907L151.996 14.3667C156.697 10.4433 162.338 7.50069 163.905 7.74591C165.785 7.99112 167.979 6.27462 168.606 3.82247C170.799 -4.51484 162.965 0.144241 132.879 24.1753L102.48 48.6968L58.6046 48.6968H14.4161L25.3849 39.8691L36.0402 31.0413L60.1715 32.0222C81.4823 33.0031 84.6162 32.7578 84.6162 29.0796C84.6162 25.4014 81.4823 25.1562 60.1715 26.137C36.667 27.1179 35.7269 27.3631 21.9375 37.9074C14.1027 43.7925 5.95447 48.6968 3.76071 48.6968C1.56696 48.6968 0 49.6777 0 50.6585C0 51.6394 7.52142 52.375 16.2964 52.1298Z" fill="#0B132B"/>
</svg>
