<svg width="1512" height="427" viewBox="0 0 1512 427" fill="none" xmlns="http://www.w3.org/2000/svg">
<path opacity="0.4" d="M1204.85 4.82831C1202.49 15.0553 1198.35 55.554 1195.98 94.8255C1193.61 134.097 1190.65 160.687 1190.06 154.142C1188.88 147.188 1186.51 137.37 1184.14 131.643C1180.59 122.234 1180 123.052 1175.86 137.779C1173.49 146.778 1171.12 163.142 1170.53 174.596C1169.94 194.232 1169.94 194.641 1161.66 184.823L1153.37 174.596L1148.05 184.823C1143.31 193.822 1142.13 193.004 1137.98 173.369C1133.84 150.46 1123.19 144.324 1123.19 164.778C1123.19 171.732 1120.82 176.232 1117.27 174.596C1114.31 173.369 1111.36 163.551 1111.36 152.915C1111.36 119.37 1100.7 118.961 1095.97 152.506L1091.83 182.777L1084.73 162.323C1079.4 144.324 1077.62 143.097 1074.07 152.096C1071.71 157.824 1069.93 169.278 1069.93 177.459C1069.93 186.05 1067.56 193.004 1064.01 193.004C1061.06 193.004 1058.1 190.959 1058.1 188.914C1058.1 180.323 1046.26 185.232 1042.71 195.05C1039.75 202.822 1036.79 204.458 1032.06 201.595C1026.73 198.731 1022.59 198.731 1017.86 202.004C1012.53 205.686 1010.76 204.049 1010.16 194.641C1010.16 188.095 1007.8 179.096 1004.84 174.596C1000.1 166.005 995.961 169.278 991.227 186.868C990.043 191.368 987.085 180.732 984.718 163.142C979.983 131.643 969.332 119.37 969.332 145.96C969.332 153.733 966.965 160.278 963.414 160.278C959.863 160.278 956.905 147.188 956.905 130.415C956.313 114.461 954.538 95.2346 952.17 88.6894C948.62 78.4624 947.436 80.5078 943.886 102.598C941.519 116.916 939.152 139.006 939.152 151.687L937.968 174.596L932.642 148.415C925.541 118.552 916.073 121.416 916.073 153.324C916.073 165.596 913.706 172.141 910.155 170.505C907.196 169.278 904.237 162.732 904.237 156.187C904.237 132.461 892.994 140.642 888.852 167.232C886.484 182.777 883.526 192.186 882.342 188.914C874.649 170.914 874.057 170.505 865.773 180.732L857.488 190.959L856.896 176.232C856.896 168.051 855.121 152.915 853.346 142.279C848.611 118.961 839.143 124.688 839.143 150.869C839.143 160.278 836.776 169.278 833.225 170.505C829.675 172.141 827.308 168.051 827.308 160.687C827.308 136.961 816.656 144.324 811.922 170.914C808.963 190.959 806.596 196.277 802.454 191.368C795.944 183.186 785.884 186.459 785.884 197.504C785.884 201.595 783.517 205.277 779.966 205.277C777.008 205.277 774.049 203.231 774.049 200.777C774.049 197.504 771.682 197.504 765.764 200.777C758.663 204.868 756.888 202.822 753.337 188.914C749.195 171.323 738.543 162.323 738.543 176.232C738.543 194.232 726.708 183.595 726.116 165.187C725.524 154.551 723.749 141.46 721.382 135.733C717.239 127.143 716.056 128.779 711.322 148.006L705.404 170.505L700.67 123.87C695.936 74.3716 685.876 68.2354 684.692 113.234C684.1 126.734 681.733 143.097 679.366 150.051L674.632 162.323L674.04 148.006C673.449 140.233 671.082 131.233 668.123 128.37C662.797 122.234 656.287 148.415 655.104 178.277L654.512 195.05L647.411 183.186L639.718 171.323L633.209 183.186L627.291 195.05L623.148 181.959C618.414 167.232 608.354 167.641 608.354 181.959C608.354 189.323 607.171 189.732 602.437 184.823C599.478 181.55 596.519 172.141 596.519 164.369C596.519 142.279 587.051 136.142 582.908 154.96C580.541 163.551 578.766 175.823 578.766 182.777L578.174 195.05L570.481 182.777L562.788 170.505L556.871 184.414C553.32 194.641 547.994 198.731 538.526 199.14C527.874 199.55 524.915 197.095 521.957 185.232C514.855 155.778 512.488 152.915 505.979 168.46C499.469 185.232 498.286 183.186 492.96 146.778C490.593 131.233 487.634 119.37 486.451 120.188C485.267 121.416 482.308 132.052 479.349 144.324L474.023 166.414L469.289 128.37C464.555 88.6893 454.495 76.8261 454.495 110.78C454.495 122.234 452.128 132.461 448.578 133.688C445.027 135.324 442.66 122.234 442.068 98.0981C442.068 77.2351 440.293 52.6905 437.334 43.6908C433.783 29.373 432.6 32.6456 429.049 65.781C426.682 87.053 424.907 116.507 424.907 131.233C424.907 150.051 423.132 156.596 418.989 152.096C416.03 148.824 413.072 140.233 413.072 133.688C413.072 113.643 401.828 130.415 400.644 152.096C400.053 170.914 391.176 197.504 389.993 183.595C388.809 172.141 378.749 175.823 374.607 188.914C371.648 198.322 368.689 200.368 363.363 197.504C358.037 194.641 353.895 194.641 349.753 197.504C345.61 200.368 342.06 197.095 339.693 186.459C335.55 171.323 327.857 171.732 323.123 186.868C321.348 191.368 318.389 184.414 316.022 171.323C313.063 158.642 308.921 147.188 306.554 145.96C303.595 144.733 299.452 156.187 297.085 170.914C293.535 196.686 292.351 197.504 285.25 188.504L277.557 178.687L273.415 192.186C270.456 201.595 267.497 204.458 262.171 201.186C258.029 198.731 253.295 198.731 249.152 201.595C244.418 204.868 241.459 201.186 238.501 189.323C233.766 169.687 226.665 165.187 220.748 177.868C217.789 184.414 214.83 179.505 211.871 159.051C208.912 143.506 205.362 130.006 203.586 128.779C202.403 127.552 199.444 135.733 197.077 146.778C191.159 176.232 189.384 177.05 188.2 150.051C187.609 136.551 185.242 114.461 182.875 100.962C178.732 78.0533 178.14 77.2351 174.59 90.7347C172.815 98.5072 168.672 119.779 165.713 137.779C161.571 162.733 159.796 166.005 159.204 152.096C158.02 123.87 149.144 119.37 145.002 144.733C142.634 156.596 140.859 172.959 140.859 180.732C140.267 194.641 140.267 194.641 133.166 185.641C124.29 175.005 117.189 177.868 117.189 191.777C117.189 201.595 108.312 204.458 103.578 195.868C101.211 192.186 98.8438 192.186 94.1097 196.686C89.3755 201.595 87.6002 200.368 84.0496 190.55C78.132 172.141 74.5814 170.096 68.072 181.141C62.7461 190.141 61.5625 188.504 56.8284 168.869C50.319 141.051 47.9519 139.006 43.2178 158.642C35.5248 191.777 33.7495 195.05 27.8319 188.504C23.0977 183.596 21.9142 183.595 16.5883 188.914C13.6295 192.186 10.6706 197.504 10.6706 200.777C10.6706 204.868 8.89534 205.277 2.97768 201.595C-7.6741 195.868 -13 199.959 -13 213.458C-13 226.958 -7.67411 231.049 2.38592 225.321C8.30358 222.049 11.2624 223.276 14.2212 231.458C17.7718 241.685 28.4236 246.594 28.4236 237.594C28.4236 235.548 31.3825 234.73 34.3413 235.958C37.8919 237.185 40.2589 245.366 40.8507 253.548C40.8507 261.729 43.2178 272.365 45.5848 276.865C49.7272 283.411 51.5025 280.547 55.0531 264.593C60.379 236.367 61.5625 234.73 68.072 245.775C74.5814 256.82 78.132 254.366 84.0496 236.367C87.6002 226.549 89.3755 225.321 94.1097 230.23C98.8438 234.73 101.211 234.73 103.578 230.639C108.312 222.458 117.189 225.321 117.189 235.139C117.189 249.048 124.29 251.912 133.166 241.276C140.267 232.276 140.267 232.276 140.859 246.184C140.859 253.957 142.634 270.32 145.002 282.183C149.144 307.546 158.02 303.046 159.204 274.82C159.796 260.911 161.571 264.184 165.713 289.138C168.672 307.137 172.815 328.409 174.59 336.182C178.14 349.681 178.732 348.863 182.875 325.955C185.242 312.455 187.609 290.365 188.2 276.865C189.384 249.866 191.159 250.684 197.077 280.138C199.444 291.183 202.403 299.365 203.586 298.137C205.362 296.91 208.912 283.411 211.871 267.866C214.83 247.412 217.789 242.503 220.748 249.048C226.665 261.729 233.766 257.639 238.501 238.821C241.459 226.14 244.418 223.685 256.254 223.685C266.314 223.685 271.048 226.14 271.048 230.639C271.048 240.457 281.108 243.321 287.617 235.548C291.76 230.639 294.127 235.548 297.085 253.957C299.452 267.457 303.595 278.911 305.962 278.911C308.921 278.911 313.063 268.275 316.022 255.184C318.389 242.503 321.348 235.548 323.123 240.048C327.857 255.184 335.55 255.593 339.101 240.457C342.651 228.594 345.018 226.549 350.936 229.821C356.854 233.094 360.404 232.685 364.547 227.367C369.281 221.64 371.056 223.276 374.015 235.548C378.157 250.684 388.809 256.002 389.993 242.912C391.176 229.412 400.053 256.002 400.644 274.82C401.828 296.501 413.072 313.273 413.072 293.228C413.072 286.274 416.03 278.093 418.989 274.82C423.132 270.32 424.907 276.865 424.907 295.683C424.907 310.41 426.682 339.863 429.049 361.135C432.6 394.271 433.783 397.543 437.334 383.226C440.293 374.226 442.068 349.681 442.068 328.818C442.66 304.683 445.027 291.592 448.578 293.228C452.128 294.456 454.495 304.683 454.495 316.137C454.495 350.09 464.555 338.227 469.289 298.137L474.023 260.502L478.758 282.183C481.125 294.047 484.083 305.092 485.859 305.91C487.634 307.137 490.593 295.683 492.96 280.138C498.286 243.73 499.469 241.685 505.979 258.457C512.488 274.002 514.855 271.138 522.548 240.866C524.915 231.458 528.466 226.549 532.608 228.185C535.567 229.821 540.893 228.594 543.26 225.731C546.811 222.049 550.361 226.14 555.687 238.412L562.788 256.411L570.481 244.139L578.174 231.867L578.766 244.139C578.766 250.684 580.541 263.366 582.908 271.956C587.051 290.774 596.519 284.638 596.519 262.548C596.519 254.775 599.478 245.366 602.437 242.094C607.171 237.185 608.354 237.594 608.354 244.957C608.354 258.048 617.823 256.82 623.148 242.912L627.291 231.867L634.392 244.139L641.493 256.411L646.227 246.184C652.145 233.912 653.329 238.003 658.654 276.456C662.797 305.91 672.265 307.137 674.04 278.911L674.632 264.593L679.366 276.865C681.733 283.411 684.1 300.183 684.692 313.682C685.876 358.681 695.936 352.545 700.67 303.046L705.404 256.411L711.322 278.911C716.056 298.137 717.239 299.774 721.382 291.183C723.749 285.456 725.524 272.365 726.116 261.32C726.708 243.321 738.543 232.685 738.543 250.684C738.543 264.184 749.195 255.593 753.337 238.821C756.296 226.549 759.255 223.685 771.09 223.276C781.742 222.867 785.884 224.503 785.884 229.821C785.884 240.457 795.944 243.73 802.454 235.548C806.596 230.639 808.963 235.957 811.922 256.002C816.656 282.592 827.308 289.956 827.308 266.229C827.308 258.866 829.675 254.775 833.225 256.411C836.776 257.639 839.143 266.638 839.143 276.047C839.143 302.228 848.611 307.955 853.346 284.638C855.121 274.002 856.896 258.866 856.896 250.684L857.488 235.958L865.773 246.184C874.057 256.411 874.649 256.002 882.342 238.003C883.526 234.73 886.484 244.139 888.852 259.684C892.994 286.274 904.237 294.456 904.237 270.729C904.237 264.184 907.196 257.639 910.155 256.411C913.706 254.775 916.073 261.32 916.073 273.593C916.073 305.501 925.541 308.364 932.642 278.502L937.968 252.321L939.152 275.229C939.152 287.91 941.519 310.001 943.886 324.318C947.436 346.409 948.62 348.454 952.17 338.227C954.538 331.273 956.313 312.455 956.905 296.092C956.905 279.729 959.863 266.638 963.414 266.638C966.965 266.638 969.332 273.184 969.332 280.956C969.332 307.546 979.983 295.274 984.718 263.366C987.085 246.184 990.043 235.548 991.227 240.048C995.961 257.639 1000.1 260.911 1004.84 252.321C1007.8 247.821 1010.16 238.821 1010.16 232.276C1010.76 223.276 1012.53 221.64 1018.45 225.321C1023.77 228.185 1028.51 228.185 1032.65 225.321C1036.79 222.458 1039.75 224.094 1042.71 231.458C1046.26 241.685 1058.1 246.594 1058.1 237.594C1058.1 235.548 1061.06 234.73 1064.01 235.958C1067.56 237.185 1069.93 244.548 1069.93 251.502C1069.93 258.866 1071.71 269.093 1074.07 274.82C1077.62 283.82 1079.4 282.592 1084.73 264.593L1091.83 244.139L1095.97 274.411C1100.7 307.955 1111.36 307.546 1111.36 274.002C1111.36 263.366 1114.31 253.548 1117.27 252.321C1120.82 250.684 1123.19 255.184 1123.19 262.139C1123.19 282.592 1133.84 276.456 1137.98 253.139C1142.13 233.912 1143.31 233.094 1148.05 242.094L1153.37 252.321L1161.66 242.094C1169.94 232.276 1169.94 232.685 1170.53 252.321C1171.12 263.366 1173.49 280.138 1175.86 289.138C1180 303.864 1180.59 304.274 1184.14 295.274C1186.51 289.547 1188.88 280.547 1190.06 274.82C1191.24 269.093 1194.2 297.728 1196.57 338.227C1203.67 445.815 1209 454.405 1214.91 366.863C1217.87 326.364 1220.83 296.91 1221.42 301.41C1222.61 305.91 1224.97 325.955 1227.34 346.409L1232.08 383.226L1236.22 360.726C1238.59 348.454 1240.36 323.5 1240.95 305.91C1241.54 267.866 1246.28 267.457 1252.79 303.864C1256.93 327.591 1257.52 328.818 1261.07 315.728C1262.85 307.955 1266.4 290.365 1268.77 276.865L1273.5 252.321L1277.05 269.502C1282.38 295.683 1287.11 294.456 1291.84 265.82L1296.58 240.048L1303.09 256.411C1309.6 271.956 1310.19 271.956 1314.33 262.548C1316.7 256.82 1318.47 248.23 1318.47 242.912C1318.47 238.003 1321.43 233.912 1324.39 233.912C1327.94 233.912 1330.31 236.776 1330.31 240.048C1330.31 243.321 1333.27 246.184 1336.23 246.184C1339.78 246.184 1342.14 243.321 1342.14 240.048C1342.14 236.776 1345.1 233.912 1348.06 233.912C1351.61 233.912 1353.98 237.594 1353.98 241.685C1353.98 257.639 1365.81 254.366 1369.37 237.594C1372.92 224.503 1374.69 222.049 1378.83 227.367C1382.98 232.685 1386.53 233.094 1392.44 229.821C1398.36 226.14 1401.32 228.185 1404.28 238.003C1408.42 251.093 1418.48 254.775 1419.67 242.912C1420.85 229.821 1429.73 255.593 1430.91 274.82C1431.5 285.047 1433.87 296.91 1436.83 301.41C1440.97 308.364 1442.15 307.137 1442.74 295.274C1443.34 287.501 1445.7 277.274 1448.66 272.775C1452.21 267.457 1453.99 276.047 1453.99 299.365C1454.58 318.591 1456.36 349.681 1458.72 368.908C1462.86 403.27 1462.86 403.27 1467.01 383.226C1469.37 371.771 1471.74 346 1472.33 325.955C1473.52 286.683 1482.39 253.957 1483.58 284.229C1484.76 309.592 1494.23 297.728 1498.96 265.82C1501.33 249.457 1504.88 238.821 1506.06 242.094C1513.76 260.093 1514.94 260.911 1519.67 252.321C1522.63 247.821 1525 230.23 1525 213.458C1525 196.686 1522.63 179.096 1519.67 174.596C1514.94 166.005 1513.76 166.823 1506.06 184.823C1504.88 188.095 1501.33 177.459 1498.96 161.096C1494.23 129.188 1484.76 117.325 1483.58 142.688C1482.39 174.187 1473.52 139.415 1472.33 98.9163C1471.74 77.6443 1469.37 51.8723 1467.01 41.6454L1462.27 23.2368L1460.5 39.6C1459.91 48.5997 1457.54 79.6896 1455.17 109.143C1451.62 158.642 1450.44 160.687 1445.7 139.824C1440.38 114.461 1432.68 120.597 1430.91 152.096C1429.73 171.323 1420.85 197.095 1419.67 183.595C1418.48 172.141 1408.42 175.823 1404.28 188.914C1401.32 198.731 1398.36 200.777 1392.44 197.095C1386.53 193.822 1382.98 194.232 1378.83 199.55C1374.69 204.868 1372.92 202.413 1369.37 189.323C1365.81 172.55 1353.98 169.278 1353.98 185.232C1353.98 189.323 1351.61 193.004 1348.06 193.004C1345.1 193.004 1342.14 190.141 1342.14 186.868C1342.14 183.595 1339.78 180.732 1336.23 180.732C1333.27 180.732 1330.31 183.595 1330.31 186.868C1330.31 190.141 1327.94 193.004 1324.39 193.004C1321.43 193.004 1318.47 188.913 1318.47 183.595C1318.47 178.687 1316.7 170.096 1314.33 164.369C1310.19 154.96 1309.6 154.96 1303.09 170.505L1296.58 186.868L1291.84 161.096C1287.11 132.461 1282.38 131.233 1277.05 157.414L1273.5 174.596L1268.77 150.051C1266.4 136.551 1262.85 118.961 1261.07 111.189C1257.52 97.6891 1256.93 98.5072 1252.2 121.416C1245.09 158.233 1242.73 157.824 1241.54 119.37C1240.95 100.144 1238.59 75.1898 1236.22 64.1447C1232.08 44.0998 1232.08 44.5089 1227.34 80.5078C1224.97 100.553 1222.61 120.188 1221.42 123.461C1220.83 126.734 1217.28 97.28 1214.32 58.0085C1210.18 5.2374 1207.81 -8.67126 1204.85 4.82831Z" fill="white"/>
</svg>
