<svg width="1512" height="427" viewBox="0 0 1512 427" fill="none" xmlns="http://www.w3.org/2000/svg">
<path opacity="0.4" d="M1204.85 5.44354C1202.49 15.6705 1198.35 56.1693 1195.98 95.4408C1193.61 134.712 1190.65 161.302 1190.06 154.757C1188.88 147.803 1186.51 137.985 1184.14 132.258C1180.59 122.849 1180 123.667 1175.86 138.394C1173.49 147.394 1171.12 163.757 1170.53 175.211C1169.94 194.847 1169.94 195.256 1161.66 185.438L1153.37 175.211L1148.05 185.438C1143.31 194.438 1142.13 193.62 1137.98 173.984C1133.84 151.075 1123.19 144.939 1123.19 165.393C1123.19 172.347 1120.82 176.847 1117.27 175.211C1114.31 173.984 1111.36 164.166 1111.36 153.53C1111.36 119.985 1100.7 119.576 1095.97 153.121L1091.83 183.393L1084.73 162.939C1079.4 144.939 1077.62 143.712 1074.07 152.712C1071.71 158.439 1069.93 169.893 1069.93 178.075C1069.93 186.665 1067.56 193.62 1064.01 193.62C1061.06 193.62 1058.1 191.574 1058.1 189.529C1058.1 180.938 1046.26 185.847 1042.71 195.665C1039.75 203.437 1036.79 205.074 1032.06 202.21C1026.73 199.347 1022.59 199.347 1017.86 202.619C1012.53 206.301 1010.76 204.665 1010.16 195.256C1010.16 188.711 1007.8 179.711 1004.84 175.211C1000.1 166.62 995.961 169.893 991.227 187.483C990.043 191.983 987.085 181.347 984.718 163.757C979.983 132.258 969.332 119.985 969.332 146.576C969.332 154.348 966.965 160.893 963.414 160.893C959.863 160.893 956.905 147.803 956.905 131.031C956.313 115.077 954.538 95.8498 952.17 89.3046C948.62 79.0776 947.436 81.123 943.886 103.213C941.519 117.531 939.152 139.621 939.152 152.303L937.968 175.211L932.642 149.03C925.541 119.167 916.073 122.031 916.073 153.939C916.073 166.211 913.706 172.757 910.155 171.12C907.196 169.893 904.237 163.348 904.237 156.802C904.237 133.076 892.994 141.258 888.852 167.848C886.484 183.393 883.526 192.801 882.342 189.529C874.649 171.529 874.057 171.12 865.773 181.347L857.488 191.574L856.896 176.847C856.896 168.666 855.121 153.53 853.346 142.894C848.611 119.576 839.143 125.303 839.143 151.484C839.143 160.893 836.776 169.893 833.225 171.12C829.675 172.757 827.308 168.666 827.308 161.302C827.308 137.576 816.656 144.939 811.922 171.529C808.963 191.574 806.596 196.892 802.454 191.983C795.944 183.802 785.884 187.074 785.884 198.119C785.884 202.21 783.517 205.892 779.966 205.892C777.008 205.892 774.049 203.846 774.049 201.392C774.049 198.119 771.682 198.119 765.764 201.392C758.663 205.483 756.888 203.437 753.337 189.529C749.195 171.938 738.543 162.939 738.543 176.847C738.543 194.847 726.708 184.211 726.116 165.802C725.524 155.166 723.749 142.076 721.382 136.349C717.239 127.758 716.056 129.394 711.322 148.621L705.404 171.12L700.67 124.485C695.936 74.9868 685.876 68.8506 684.692 113.849C684.1 127.349 681.733 143.712 679.366 150.666L674.632 162.939L674.04 148.621C673.449 140.848 671.082 131.849 668.123 128.985C662.797 122.849 656.287 149.03 655.104 178.893L654.512 195.665L647.411 183.802L639.718 171.938L633.209 183.802L627.291 195.665L623.148 182.574C618.414 167.848 608.354 168.257 608.354 182.574C608.354 189.938 607.171 190.347 602.437 185.438C599.478 182.165 596.519 172.757 596.519 164.984C596.519 142.894 587.051 136.758 582.908 155.575C580.541 164.166 578.766 176.438 578.766 183.393L578.174 195.665L570.481 183.393L562.788 171.12L556.871 185.029C553.32 195.256 547.994 199.347 538.526 199.756C527.874 200.165 524.915 197.71 521.957 185.847C514.855 156.393 512.488 153.53 505.979 169.075C499.469 185.847 498.286 183.802 492.96 147.394C490.593 131.849 487.634 119.985 486.451 120.804C485.267 122.031 482.308 132.667 479.349 144.939L474.023 167.029L469.289 128.985C464.555 89.3046 454.495 77.4413 454.495 111.395C454.495 122.849 452.128 133.076 448.578 134.303C445.027 135.939 442.66 122.849 442.068 98.7134C442.068 77.8504 440.293 53.3057 437.334 44.306C433.783 29.9883 432.6 33.2609 429.049 66.3962C426.682 87.6683 424.907 117.122 424.907 131.849C424.907 150.666 423.132 157.212 418.989 152.712C416.03 149.439 413.072 140.848 413.072 134.303C413.072 114.258 401.828 131.031 400.644 152.712C400.053 171.529 391.176 198.119 389.993 184.211C388.809 172.757 378.749 176.438 374.607 189.529C371.648 198.938 368.689 200.983 363.363 198.119C358.037 195.256 353.895 195.256 349.753 198.119C345.61 200.983 342.06 197.71 339.693 187.074C335.55 171.938 327.857 172.347 323.123 187.483C321.348 191.983 318.389 185.029 316.022 171.938C313.063 159.257 308.921 147.803 306.554 146.576C303.595 145.348 299.452 156.802 297.085 171.529C293.535 197.301 292.351 198.119 285.25 189.12L277.557 179.302L273.415 192.801C270.456 202.21 267.497 205.074 262.171 201.801C258.029 199.347 253.295 199.347 249.152 202.21C244.418 205.483 241.459 201.801 238.501 189.938C233.766 170.302 226.665 165.802 220.748 178.484C217.789 185.029 214.83 180.12 211.871 159.666C208.912 144.121 205.362 130.621 203.586 129.394C202.403 128.167 199.444 136.349 197.077 147.394C191.159 176.847 189.384 177.665 188.2 150.666C187.609 137.167 185.242 115.077 182.875 101.577C178.732 78.6685 178.14 77.8504 174.59 91.35C172.815 99.1224 168.672 120.395 165.713 138.394C161.571 163.348 159.796 166.62 159.204 152.712C158.02 124.485 149.144 119.985 145.002 145.348C142.634 157.212 140.859 173.575 140.859 181.347C140.267 195.256 140.267 195.256 133.166 186.256C124.29 175.62 117.189 178.484 117.189 192.392C117.189 202.21 108.312 205.074 103.578 196.483C101.211 192.801 98.8438 192.801 94.1097 197.301C89.3755 202.21 87.6002 200.983 84.0496 191.165C78.132 172.757 74.5814 170.711 68.072 181.756C62.7461 190.756 61.5625 189.12 56.8284 169.484C50.319 141.667 47.9519 139.621 43.2178 159.257C35.5248 192.392 33.7495 195.665 27.8319 189.12C23.0977 184.211 21.9142 184.211 16.5883 189.529C13.6295 192.801 10.6706 198.119 10.6706 201.392C10.6706 205.483 8.89534 205.892 2.97768 202.21C-7.6741 196.483 -13 200.574 -13 214.073C-13 227.573 -7.67411 231.664 2.38592 225.937C8.30358 222.664 11.2624 223.891 14.2212 232.073C17.7718 242.3 28.4236 247.209 28.4236 238.209C28.4236 236.164 31.3825 235.346 34.3413 236.573C37.8919 237.8 40.2589 245.982 40.8507 254.163C40.8507 262.345 43.2178 272.981 45.5848 277.481C49.7272 284.026 51.5025 281.162 55.0531 265.208C60.379 236.982 61.5625 235.345 68.072 246.391C74.5814 257.436 78.132 254.981 84.0496 236.982C87.6002 227.164 89.3755 225.937 94.1097 230.846C98.8438 235.346 101.211 235.345 103.578 231.255C108.312 223.073 117.189 225.937 117.189 235.755C117.189 249.663 124.29 252.527 133.166 241.891C140.267 232.891 140.267 232.891 140.859 246.8C140.859 254.572 142.634 270.935 145.002 282.799C149.144 308.161 158.02 303.662 159.204 275.435C159.796 261.527 161.571 264.799 165.713 289.753C168.672 307.752 172.815 329.024 174.59 336.797C178.14 350.296 178.732 349.478 182.875 326.57C185.242 313.07 187.609 290.98 188.2 277.481C189.384 250.481 191.159 251.3 197.077 280.753C199.444 291.798 202.403 299.98 203.586 298.753C205.362 297.525 208.912 284.026 211.871 268.481C214.83 248.027 217.789 243.118 220.748 249.663C226.665 262.345 233.766 258.254 238.501 239.436C241.459 226.755 244.418 224.3 256.254 224.3C266.314 224.3 271.048 226.755 271.048 231.255C271.048 241.073 281.108 243.936 287.617 236.164C291.76 231.255 294.127 236.164 297.085 254.572C299.452 268.072 303.595 279.526 305.962 279.526C308.921 279.526 313.063 268.89 316.022 255.799C318.389 243.118 321.348 236.164 323.123 240.664C327.857 255.799 335.55 256.208 339.101 241.073C342.651 229.209 345.018 227.164 350.936 230.437C356.854 233.709 360.404 233.3 364.547 227.982C369.281 222.255 371.056 223.891 374.015 236.164C378.157 251.3 388.809 256.618 389.993 243.527C391.176 230.027 400.053 256.618 400.644 275.435C401.828 297.116 413.072 313.889 413.072 293.844C413.072 286.889 416.03 278.708 418.989 275.435C423.132 270.935 424.907 277.481 424.907 296.298C424.907 311.025 426.682 340.479 429.049 361.751C432.6 394.886 433.783 398.159 437.334 383.841C440.293 374.841 442.068 350.296 442.068 329.433C442.66 305.298 445.027 292.207 448.578 293.844C452.128 295.071 454.495 305.298 454.495 316.752C454.495 350.706 464.555 338.842 469.289 298.753L474.023 261.117L478.758 282.799C481.125 294.662 484.083 305.707 485.859 306.525C487.634 307.752 490.593 296.298 492.96 280.753C498.286 244.345 499.469 242.3 505.979 259.072C512.488 274.617 514.855 271.753 522.548 241.482C524.915 232.073 528.466 227.164 532.608 228.8C535.567 230.437 540.893 229.209 543.26 226.346C546.811 222.664 550.361 226.755 555.687 239.027L562.788 257.027L570.481 244.754L578.174 232.482L578.766 244.754C578.766 251.3 580.541 263.981 582.908 272.572C587.051 291.389 596.519 285.253 596.519 263.163C596.519 255.39 599.478 245.982 602.437 242.709C607.171 237.8 608.354 238.209 608.354 245.572C608.354 258.663 617.823 257.436 623.148 243.527L627.291 232.482L634.392 244.754L641.493 257.027L646.227 246.8C652.145 234.527 653.329 238.618 658.654 277.071C662.797 306.525 672.265 307.752 674.04 279.526L674.632 265.208L679.366 277.481C681.733 284.026 684.1 300.798 684.692 314.298C685.876 359.296 695.936 353.16 700.67 303.662L705.404 257.027L711.322 279.526C716.056 298.753 717.239 300.389 721.382 291.798C723.749 286.071 725.524 272.981 726.116 261.936C726.708 243.936 738.543 233.3 738.543 251.3C738.543 264.799 749.195 256.208 753.337 239.436C756.296 227.164 759.255 224.3 771.09 223.891C781.742 223.482 785.884 225.119 785.884 230.437C785.884 241.073 795.944 244.345 802.454 236.164C806.596 231.255 808.963 236.573 811.922 256.618C816.656 283.208 827.308 290.571 827.308 266.845C827.308 259.481 829.675 255.39 833.225 257.027C836.776 258.254 839.143 267.254 839.143 276.662C839.143 302.843 848.611 308.57 853.346 285.253C855.121 274.617 856.896 259.481 856.896 251.3L857.488 236.573L865.773 246.8C874.057 257.027 874.649 256.618 882.342 238.618C883.526 235.345 886.484 244.754 888.852 260.299C892.994 286.889 904.237 295.071 904.237 271.344C904.237 264.799 907.196 258.254 910.155 257.027C913.706 255.39 916.073 261.936 916.073 274.208C916.073 306.116 925.541 308.98 932.642 279.117L937.968 252.936L939.152 275.844C939.152 288.526 941.519 310.616 943.886 324.934C947.436 347.024 948.62 349.069 952.17 338.842C954.538 331.888 956.313 313.07 956.905 296.707C956.905 280.344 959.863 267.254 963.414 267.254C966.965 267.254 969.332 273.799 969.332 281.571C969.332 308.161 979.983 295.889 984.718 263.981C987.085 246.8 990.043 236.164 991.227 240.664C995.961 258.254 1000.1 261.527 1004.84 252.936C1007.8 248.436 1010.16 239.436 1010.16 232.891C1010.76 223.891 1012.53 222.255 1018.45 225.937C1023.77 228.8 1028.51 228.8 1032.65 225.937C1036.79 223.073 1039.75 224.709 1042.71 232.073C1046.26 242.3 1058.1 247.209 1058.1 238.209C1058.1 236.164 1061.06 235.346 1064.01 236.573C1067.56 237.8 1069.93 245.163 1069.93 252.118C1069.93 259.481 1071.71 269.708 1074.07 275.435C1077.62 284.435 1079.4 283.208 1084.73 265.208L1091.83 244.754L1095.97 275.026C1100.7 308.57 1111.36 308.161 1111.36 274.617C1111.36 263.981 1114.31 254.163 1117.27 252.936C1120.82 251.3 1123.19 255.799 1123.19 262.754C1123.19 283.208 1133.84 277.071 1137.98 253.754C1142.13 234.527 1143.31 233.709 1148.05 242.709L1153.37 252.936L1161.66 242.709C1169.94 232.891 1169.94 233.3 1170.53 252.936C1171.12 263.981 1173.49 280.753 1175.86 289.753C1180 304.48 1180.59 304.889 1184.14 295.889C1186.51 290.162 1188.88 281.162 1190.06 275.435C1191.24 269.708 1194.2 298.344 1196.57 338.842C1203.67 446.43 1209 455.02 1214.91 367.478C1217.87 326.979 1220.83 297.525 1221.42 302.025C1222.61 306.525 1224.97 326.57 1227.34 347.024L1232.08 383.841L1236.22 361.342C1238.59 349.069 1240.36 324.115 1240.95 306.525C1241.54 268.481 1246.28 268.072 1252.79 304.48C1256.93 328.206 1257.52 329.433 1261.07 316.343C1262.85 308.57 1266.4 290.98 1268.77 277.481L1273.5 252.936L1277.05 270.117C1282.38 296.298 1287.11 295.071 1291.84 266.435L1296.58 240.664L1303.09 257.027C1309.6 272.572 1310.19 272.572 1314.33 263.163C1316.7 257.436 1318.47 248.845 1318.47 243.527C1318.47 238.618 1321.43 234.527 1324.39 234.527C1327.94 234.527 1330.31 237.391 1330.31 240.664C1330.31 243.936 1333.27 246.8 1336.23 246.8C1339.78 246.8 1342.14 243.936 1342.14 240.664C1342.14 237.391 1345.1 234.527 1348.06 234.527C1351.61 234.527 1353.98 238.209 1353.98 242.3C1353.98 258.254 1365.81 254.981 1369.37 238.209C1372.92 225.119 1374.69 222.664 1378.83 227.982C1382.98 233.3 1386.53 233.709 1392.44 230.437C1398.36 226.755 1401.32 228.8 1404.28 238.618C1408.42 251.709 1418.48 255.39 1419.67 243.527C1420.85 230.437 1429.73 256.208 1430.91 275.435C1431.5 285.662 1433.87 297.525 1436.83 302.025C1440.97 308.98 1442.15 307.752 1442.74 295.889C1443.34 288.117 1445.7 277.89 1448.66 273.39C1452.21 268.072 1453.99 276.662 1453.99 299.98C1454.58 319.207 1456.36 350.296 1458.72 369.523C1462.86 403.886 1462.86 403.886 1467.01 383.841C1469.37 372.387 1471.74 346.615 1472.33 326.57C1473.52 287.298 1482.39 254.572 1483.58 284.844C1484.76 310.207 1494.23 298.344 1498.96 266.435C1501.33 250.072 1504.88 239.436 1506.06 242.709C1513.76 260.708 1514.94 261.527 1519.67 252.936C1522.63 248.436 1525 230.846 1525 214.073C1525 197.301 1522.63 179.711 1519.67 175.211C1514.94 166.62 1513.76 167.439 1506.06 185.438C1504.88 188.711 1501.33 178.075 1498.96 161.711C1494.23 129.803 1484.76 117.94 1483.58 143.303C1482.39 174.802 1473.52 140.03 1472.33 99.5316C1471.74 78.2595 1469.37 52.4875 1467.01 42.2606L1462.27 23.8521L1460.5 40.2152C1459.91 49.2149 1457.54 80.3049 1455.17 109.759C1451.62 159.257 1450.44 161.302 1445.7 140.439C1440.38 115.077 1432.68 121.213 1430.91 152.712C1429.73 171.938 1420.85 197.71 1419.67 184.211C1418.48 172.757 1408.42 176.438 1404.28 189.529C1401.32 199.347 1398.36 201.392 1392.44 197.71C1386.53 194.438 1382.98 194.847 1378.83 200.165C1374.69 205.483 1372.92 203.028 1369.37 189.938C1365.81 173.166 1353.98 169.893 1353.98 185.847C1353.98 189.938 1351.61 193.62 1348.06 193.62C1345.1 193.62 1342.14 190.756 1342.14 187.483C1342.14 184.211 1339.78 181.347 1336.23 181.347C1333.27 181.347 1330.31 184.211 1330.31 187.483C1330.31 190.756 1327.94 193.62 1324.39 193.62C1321.43 193.62 1318.47 189.529 1318.47 184.211C1318.47 179.302 1316.7 170.711 1314.33 164.984C1310.19 155.575 1309.6 155.575 1303.09 171.12L1296.58 187.483L1291.84 161.711C1287.11 133.076 1282.38 131.849 1277.05 158.03L1273.5 175.211L1268.77 150.666C1266.4 137.167 1262.85 119.576 1261.07 111.804C1257.52 98.3043 1256.93 99.1225 1252.2 122.031C1245.09 158.848 1242.73 158.439 1241.54 119.985C1240.95 100.759 1238.59 75.805 1236.22 64.7599C1232.08 44.7151 1232.08 45.1241 1227.34 81.123C1224.97 101.168 1222.61 120.804 1221.42 124.076C1220.83 127.349 1217.28 97.8952 1214.32 58.6237C1210.18 5.85263 1207.81 -8.05603 1204.85 5.44354Z" fill="white"/>
</svg>
