<svg width="1175" height="156" viewBox="0 0 1175 156" fill="none" xmlns="http://www.w3.org/2000/svg">
<g opacity="0.24">
<path d="M1169.84 54.0532C1166.81 54.0532 1159.23 49.1181 1152.26 43.3605C1140.73 33.2161 1138.91 32.6678 1116.78 31.5711C1099.49 30.4744 1093.12 31.0227 1093.12 33.4903C1093.12 35.9578 1099.49 36.5062 1115.26 35.6837C1136.79 34.587 1137.09 34.587 1148.62 44.4572C1154.68 49.6665 1159.84 54.3274 1159.84 54.8758C1159.84 55.1499 1140.43 55.1499 1116.78 54.6016L1073.41 53.7791L1048.54 31.2969C1034.6 18.9591 1023.37 7.44386 1023.37 5.52465C1023.37 0.589538 1017.31 -1.87802 1013.37 1.68623C1011.24 3.60544 1013.97 7.44386 1023.07 14.8465L1036.11 25.2651L986.378 24.4426C944.227 23.8942 935.736 24.4426 932.4 28.0068C930.277 30.2002 926.941 32.1194 924.819 32.1194C920.573 32.1194 916.631 38.9737 919.36 41.4413C923.302 44.7314 928.154 42.8122 930.884 37.0545C933.916 31.0227 935.129 30.7486 986.985 29.926L1040.05 29.3777L1056.73 44.4572L1073.11 59.5367L1133.45 59.5367L1126.18 66.6652C1118.9 73.5195 1118.6 73.7937 1079.48 72.9712C1056.73 72.4228 1040.05 73.2453 1040.05 74.6162C1040.05 75.9871 1057.34 76.8096 1080.99 76.2612C1121.63 75.4387 1121.93 75.4387 1131.03 67.4877C1139.22 60.6334 1142.86 59.5367 1157.71 59.5367C1167.12 59.5367 1175 58.44 1175 56.795C1175 55.4241 1172.57 54.0532 1169.84 54.0532Z" fill="#0B132B" fill-opacity="0.19"/>
<path d="M1046.34 38.4736C1028.45 37.9253 1027.54 38.1995 1016.02 48.8922L1004.19 59.8591L971.438 59.8591C937.474 59.8591 923.524 63.4234 923.524 72.4711C923.524 79.0512 932.622 76.5837 935.654 69.4552C938.383 63.1492 940.203 62.6009 955.972 62.6009H973.257L950.817 83.1638C928.679 103.178 927.77 103.727 913.214 103.727C898.961 103.727 896.838 102.63 882.585 90.2923L867.423 76.5837L835.582 76.0353C810.109 75.487 803.74 76.0353 803.74 79.0512C803.74 82.0671 810.109 82.6155 835.582 82.0671L867.423 81.5188L879.553 92.4857L891.38 103.727H806.47L776.751 76.3095H673.343L570.238 76.0353L562.05 69.4552C557.198 65.8909 553.559 61.5042 553.559 59.8591C553.559 58.4883 551.436 57.1174 549.01 57.1174C546.584 57.1174 544.462 59.0366 544.462 61.23C544.462 63.4234 545.674 65.3426 547.191 65.3426C548.707 65.3426 554.166 69.181 559.321 73.8419L568.722 82.3413L646.05 81.2446L723.379 80.4221L703.061 99.0658L682.744 117.435L585.4 117.435L488.36 117.71L467.739 135.531C456.519 145.127 448.028 154.449 448.938 155.82C449.847 157.191 458.945 150.61 469.255 140.74L487.451 122.919L682.744 122.919L727.625 81.793H776.751L803.437 106.469L931.105 106.469L955.365 84.5347C978.412 63.4234 979.929 62.6009 993.272 62.6009C1005.4 62.6009 1008.74 61.23 1019.05 51.6339C1029.36 42.0379 1041.57 45.5539 1056.73 44.4572L1055 38.8445L1046.34 38.4736Z" fill="#0B132B" fill-opacity="0.19"/>
<path d="M597.857 122.121C581.482 122.121 579.662 119.209 568.442 109.374L556.616 99.0221H524.168C499.302 99.0221 491.115 98.2457 488.082 95.1401C485.96 93.0697 482.321 91.2581 480.198 91.2581C477.772 91.2581 475.953 89.7052 475.953 87.6348C475.953 80.6472 481.714 80.6472 486.869 87.376C491.115 92.8109 494.147 93.8461 507.793 93.8461H523.865L502.032 75.7299C480.501 58.1314 479.592 57.6138 464.429 57.6138C450.177 57.6138 448.054 58.3902 435.924 69.0011L422.885 80.6472L388.922 81.4236C366.785 81.9412 354.655 81.4236 354.655 79.6119C354.655 77.8003 366.178 77.2827 387.405 77.8003L419.852 78.8355L431.982 68.2246L443.809 57.6138L357.688 57.6138L345.254 69.2599L332.518 80.906L122.37 80.906L114.182 88.1524C109.634 92.0345 105.995 96.6929 105.995 98.5045C105.995 101.61 99.3236 102.904 95.9879 100.057C93.2588 97.7281 97.2009 91.2581 101.143 91.2581C103.266 91.2581 108.118 88.4112 112.06 84.788L119.034 78.3179L277.025 78.3179L235.177 42.0856L37.1586 42.0856L25.9385 31.7335C19.8737 26.0399 11.3828 19.5698 7.44067 17.2406C-1.05017 12.5821 -2.56641 5.85328 4.4082 5.85328C6.83411 5.85328 8.95679 7.4061 8.95679 9.21771C8.95679 11.0293 17.1444 18.5346 26.8483 26.0399L45.0428 39.4976L238.209 39.4976L283.089 78.3179H305.833C328.576 78.3179 328.576 78.3179 341.616 67.4482L354.655 56.5785L343.435 46.7441C337.37 41.3092 330.396 36.9096 328.273 36.9096C326.15 36.9096 325.24 35.0979 326.15 33.0275C328.273 28.3691 336.46 27.8515 336.46 32.5099C336.46 34.3215 341.009 39.4976 346.467 43.8972L356.171 52.1789L401.658 52.4377C426.827 52.6965 453.513 52.6965 461.094 52.6965L475.043 52.4377L464.733 43.1208L454.422 33.5451L431.679 34.8391C415.607 35.8744 409.239 35.3568 409.239 33.0275C409.239 30.6983 415.607 30.1807 432.892 31.2159L456.242 32.2511L492.631 63.0486C528.414 93.3285 529.324 93.8461 542.97 93.8461C554.796 93.8461 558.132 95.1401 568.442 104.198C579.662 114.033 583.618 118.396 599.993 118.396C609.697 118.396 624.65 120.568 624.65 122.121C624.65 123.674 607.561 122.121 597.857 122.121Z" fill="#0B132B" fill-opacity="0.19"/>
</g>
</svg>
