<svg width="1175" height="156" viewBox="0 0 1175 156" fill="none" xmlns="http://www.w3.org/2000/svg">
<g opacity="0.24">
<path d="M5.15525 101.947C8.18775 101.947 15.769 106.882 22.7438 112.639C34.2673 122.784 36.0868 123.332 58.224 124.429C75.5093 125.526 81.8775 124.977 81.8775 122.51C81.8775 120.042 75.5093 119.494 59.7403 120.316C38.2095 121.413 37.9063 121.413 26.3828 111.543C20.3178 106.334 15.1625 101.673 15.1625 101.124C15.1625 100.85 34.5705 100.85 58.224 101.398L101.589 102.221L126.455 124.703C140.405 137.041 151.625 148.556 151.625 150.475C151.625 155.41 157.69 157.878 161.632 154.314C163.755 152.395 161.026 148.556 151.928 141.153L138.889 130.735L188.622 131.557C230.773 132.106 239.264 131.557 242.6 127.993C244.723 125.8 248.059 123.881 250.181 123.881C254.427 123.881 258.369 117.026 255.64 114.559C251.698 111.269 246.846 113.188 244.116 118.945C241.084 124.977 239.871 125.251 188.015 126.074L134.946 126.622L118.268 111.543L101.892 96.4633H41.5453L48.8233 89.3348C56.1013 82.4805 56.4045 82.2063 95.5238 83.0288C118.268 83.5772 134.946 82.7547 134.946 81.3838C134.946 80.0129 117.661 79.1904 94.0076 79.7388C53.372 80.5613 53.0688 80.5613 43.9713 88.5123C35.7835 95.3666 32.1445 96.4633 17.2853 96.4633C7.88451 96.4633 0 97.56 0 99.205C0 100.576 2.426 101.947 5.15525 101.947Z" fill="#0B132B" fill-opacity="0.19"/>
<path d="M128.659 117.526C146.551 118.075 147.461 117.801 158.984 107.108L170.811 96.1409H203.562C237.526 96.1409 251.476 92.5766 251.476 83.5289C251.476 76.9488 242.378 79.4163 239.346 86.5448C236.617 92.8508 234.797 93.3991 219.028 93.3991H201.743L224.183 72.8362C246.321 52.8216 247.23 52.2732 261.786 52.2732C276.039 52.2732 278.162 53.3699 292.415 65.7077L307.577 79.4163L339.418 79.9647C364.891 80.513 371.26 79.9647 371.26 76.9488C371.26 73.9329 364.891 73.3845 339.418 73.9329L307.577 74.4812L295.447 63.5143L283.62 52.2732H368.53L398.249 79.6905L501.657 79.6905L604.762 79.9647L612.95 86.5448C617.802 90.1091 621.441 94.4958 621.441 96.1409C621.441 97.5117 623.564 98.8826 625.99 98.8826C628.416 98.8826 630.538 96.9634 630.538 94.77C630.538 92.5766 629.326 90.6574 627.809 90.6574C626.293 90.6574 620.834 86.819 615.679 82.1581L606.278 73.6587L528.95 74.7554L451.621 75.5779L471.939 56.9342L492.256 38.5646H589.6L686.64 38.2904L707.261 20.4692C718.481 10.8731 726.972 1.55122 726.062 0.180359C725.153 -1.19051 716.055 5.38965 705.745 15.2599L687.549 33.0811H492.256L447.375 74.207H398.249L371.563 49.5315H243.895L219.635 71.4653C196.588 92.5766 195.071 93.3991 181.728 93.3991C169.598 93.3991 166.262 94.77 155.952 104.366C145.641 113.962 133.43 110.446 118.268 111.543L119.999 117.155L128.659 117.526Z" fill="#0B132B" fill-opacity="0.19"/>
<path d="M577.143 33.8792C593.518 33.8792 595.338 36.7913 606.558 46.6258L618.384 56.9779H650.832C675.698 56.9779 683.885 57.7543 686.918 60.8599C689.04 62.9303 692.679 64.7419 694.802 64.7419C697.228 64.7419 699.047 66.2948 699.047 68.3652C699.047 75.3528 693.286 75.3528 688.131 68.624C683.885 63.1891 680.853 62.1539 667.207 62.1539H651.135L672.968 80.2701C694.499 97.8686 695.408 98.3862 710.571 98.3862C724.823 98.3862 726.946 97.6098 739.076 86.9989L752.115 75.3528L786.078 74.5764C808.215 74.0588 820.345 74.5764 820.345 76.3881C820.345 78.1997 808.822 78.7173 787.595 78.1997L755.148 77.1645L743.018 87.7754L731.191 98.3862H817.312L829.746 86.7401L842.482 75.094H1052.63L1060.82 67.8476C1065.37 63.9655 1069.01 59.3071 1069.01 57.4955C1069.01 54.3899 1075.68 53.0958 1079.01 55.9427C1081.74 58.2719 1077.8 64.7419 1073.86 64.7419C1071.73 64.7419 1066.88 67.5888 1062.94 71.212L1055.97 77.6821H897.975L939.823 113.914H1137.84L1149.06 124.266C1155.13 129.96 1163.62 136.43 1167.56 138.759C1176.05 143.418 1177.57 150.147 1170.59 150.147C1168.17 150.147 1166.04 148.594 1166.04 146.782C1166.04 144.971 1157.86 137.465 1148.15 129.96L1129.96 116.502H936.791L891.911 77.6821H869.167C846.424 77.6821 846.424 77.6821 833.384 88.5518L820.345 99.4215L831.565 109.256C837.63 114.691 844.604 119.09 846.727 119.09C848.85 119.09 849.76 120.902 848.85 122.972C846.727 127.631 838.54 128.149 838.54 123.49C838.54 121.678 833.991 116.502 828.533 112.103L818.829 103.821L773.342 103.562C748.173 103.303 721.487 103.303 713.906 103.303L699.957 103.562L710.267 112.879L720.578 122.455L743.321 121.161C759.393 120.126 765.761 120.643 765.761 122.972C765.761 125.302 759.393 125.819 742.108 124.784L718.758 123.749L682.369 92.9514C646.586 62.6715 645.676 62.1539 632.03 62.1539C620.204 62.1539 616.868 60.8599 606.558 51.8018C595.338 41.9673 591.382 37.604 575.007 37.604C565.303 37.604 550.35 35.432 550.35 33.8792C550.35 32.3263 567.439 33.8792 577.143 33.8792Z" fill="#0B132B" fill-opacity="0.19"/>
</g>
</svg>
