<svg width="224" height="103" viewBox="0 0 224 103" fill="none" xmlns="http://www.w3.org/2000/svg">
<g opacity="0.7">
<path d="M80.7296 1.09981C80.5511 1.64349 80.4619 7.85697 80.5511 14.8471L80.8188 27.6624L106.069 27.8954L131.229 28.0508V14.0704V0.0901146H106.247C86.6182 0.0901146 81.0864 0.32312 80.7296 1.09981ZM127.482 3.42986C128.285 3.97354 128.552 7.00261 128.463 14.5365C128.374 23.546 128.196 24.944 126.857 25.3324C125.073 25.7984 87.6889 25.7207 85.5475 25.177C84.12 24.8664 83.9415 23.7013 83.9415 14.5365C83.9415 7.39095 84.2984 3.97354 85.0122 3.35219C86.4397 2.1095 125.697 2.18716 127.482 3.42986Z" fill="url(#paint0_linear_662_1338)"/>
<path d="M74.4841 13.2932C74.038 13.6816 66.365 14.1476 57.1751 14.2252L40.6691 14.4582L40.4014 28.3609C40.223 37.3705 40.4907 42.5742 41.1152 43.1179C41.7398 43.6616 42.0074 39.6228 41.829 29.6036L41.5613 15.2349L57.8889 15.4679C71.8967 15.6233 74.2165 15.5456 74.6626 14.4582C74.9302 13.8369 75.644 13.5262 76.1793 13.8369C76.7147 14.0699 76.8039 13.9146 76.447 13.4486C75.644 12.3612 75.644 12.2835 74.4841 13.2932Z" fill="url(#paint1_linear_662_1338)"/>
<path d="M137.475 14.8444C137.475 15.2328 138.099 15.6211 138.813 15.6211C139.527 15.6211 140.151 15.2328 140.151 14.8444C140.151 14.3784 139.527 14.0677 138.813 14.0677C138.099 14.0677 137.475 14.3784 137.475 14.8444Z" fill="url(#paint2_linear_662_1338)"/>
<path d="M142.649 15.0011C143.452 15.7001 143.987 15.7001 144.79 15.0011C145.593 14.3021 145.415 14.0691 143.72 14.0691C142.025 14.0691 141.846 14.3021 142.649 15.0011Z" fill="url(#paint3_linear_662_1338)"/>
<path d="M146.843 14.8444C147.11 15.2328 148.002 15.6211 148.716 15.6211C149.43 15.6211 149.965 15.2328 149.965 14.8444C149.965 14.3784 149.162 14.0677 148.092 14.0677C147.11 14.0677 146.575 14.3784 146.843 14.8444Z" fill="url(#paint4_linear_662_1338)"/>
<path d="M151.75 14.8444C151.75 15.2328 152.286 15.6211 153 15.6211C153.713 15.6211 154.606 15.2328 154.873 14.8444C155.141 14.3784 154.606 14.0677 153.624 14.0677C152.553 14.0677 151.75 14.3784 151.75 14.8444Z" fill="url(#paint5_linear_662_1338)"/>
<path d="M156.657 14.8444C156.925 15.2328 157.817 15.6211 158.531 15.6211C159.244 15.6211 159.78 15.2328 159.78 14.8444C159.78 14.3784 158.977 14.0677 157.906 14.0677C156.925 14.0677 156.389 14.3784 156.657 14.8444Z" fill="url(#paint6_linear_662_1338)"/>
<path d="M161.564 14.8444C161.564 15.2328 162.1 15.6211 162.814 15.6211C163.527 15.6211 164.42 15.2328 164.687 14.8444C164.955 14.3784 164.42 14.0677 163.438 14.0677C162.367 14.0677 161.564 14.3784 161.564 14.8444Z" fill="url(#paint7_linear_662_1338)"/>
<path d="M167.453 15.5454C168.345 16.322 169.505 16.7881 170.04 16.555C170.486 16.322 170.397 16.0114 169.772 15.7784C169.148 15.623 168.88 15.157 169.237 14.7687C169.505 14.3803 168.791 14.0697 167.72 14.0697C165.757 14.0697 165.757 14.0697 167.453 15.5454Z" fill="url(#paint8_linear_662_1338)"/>
<path d="M168.88 26.6516C167.542 27.8166 167.542 29.37 168.702 29.9913C169.237 30.302 169.326 29.9137 168.969 29.2147C168.702 28.438 168.969 27.5836 169.683 27.2729C170.308 26.8846 170.665 26.4186 170.397 26.1856C170.129 25.9526 169.416 26.1856 168.88 26.6516Z" fill="url(#paint9_linear_662_1338)"/>
<path d="M155.944 33.3307C154.784 33.5637 154.427 34.418 154.427 36.9811C154.427 38.8451 154.784 40.5538 155.141 40.7869C155.587 41.0199 162.278 41.2529 170.13 41.3305L184.316 41.4082L184.584 37.4471C184.762 34.5734 184.494 33.486 183.691 33.4083C177.178 33.253 157.103 33.1753 155.944 33.3307ZM181.818 37.1364C182.71 39.1558 180.123 39.6995 170.041 39.5442C159.691 39.3888 156.836 38.8451 157.639 36.9811C158.62 34.884 180.926 34.9617 181.818 37.1364Z" fill="url(#paint10_linear_662_1338)"/>
<path d="M106.158 33.64C105.533 34.7274 105.622 41.3292 106.247 41.6399C106.782 41.9506 107.139 40.3195 107.139 37.8341C107.139 34.2614 106.782 32.6303 106.158 33.64Z" fill="url(#paint11_linear_662_1338)"/>
<path d="M213.313 44.3609C210.904 46.4579 210.993 49.8754 213.581 51.9724C216.168 54.1471 218.666 54.1471 221.7 52.0501C226.161 48.9433 223.574 42.8075 217.774 42.8075C216.257 42.8075 214.294 43.5065 213.313 44.3609ZM219.202 48.8657C217.06 50.8074 216.793 50.8074 215.365 49.5647C213.581 48.089 214.473 46.8463 216.347 48.1666C217.417 48.9433 217.863 48.788 218.666 47.4676C219.202 46.6133 220.094 46.0696 220.629 46.3803C221.165 46.6909 220.629 47.7006 219.202 48.8657Z" fill="url(#paint12_linear_662_1338)"/>
<path d="M154.784 45.4475C154.516 46.0688 154.427 47.6998 154.606 49.1755L154.873 51.7386L169.862 51.9716L184.762 52.127V48.2435V44.3601H170.041C158.174 44.3601 155.141 44.5931 154.784 45.4475ZM181.818 47.7775C183.424 49.1755 179.142 49.7969 169.238 49.6416C162.1 49.4862 158.442 49.0979 158.264 48.4765C158.085 48.0105 158.621 47.3892 159.513 47.1562C161.922 46.6125 181.015 47.0785 181.818 47.7775Z" fill="url(#paint13_linear_662_1338)"/>
<path d="M1.14359 46.0684C-0.0162892 47.0781 -0.462398 77.9902 0.608263 80.3979C1.05437 81.4853 4.35558 81.6406 28.5347 81.6406C48.6095 81.6406 56.1934 81.4076 56.9964 80.7086C58.5132 79.3882 58.5132 47.3888 56.9964 46.0684C55.4796 44.7481 2.66036 44.7481 1.14359 46.0684ZM54.3197 63.5439L54.4982 78.3785L44.0592 78.6892C38.2598 78.7669 26.8394 78.7669 18.6311 78.6892L3.6418 78.3785V63.3885V48.3208L28.8915 48.4762L54.0521 48.6315L54.3197 63.5439Z" fill="url(#paint14_linear_662_1338)"/>
<path d="M98.7517 52.1252C94.5583 55.698 91.0786 58.96 91.0786 59.426C91.0786 60.5134 105.533 73.0957 106.692 73.0957C107.228 73.0957 111.064 70.1443 115.168 66.4939L122.752 59.8921L114.544 52.7465L106.336 45.601L98.7517 52.1252ZM112.759 54.2999C115.525 56.7853 117.845 59.0377 117.845 59.426C117.845 60.6687 114.098 64.5522 110.172 67.3482L106.157 70.222L100.804 65.6395C97.9487 63.1541 95.5397 60.4357 95.5397 59.659C95.5397 58.1833 104.997 49.7951 106.692 49.7951C107.228 49.7951 109.904 51.8145 112.759 54.2999Z" fill="url(#paint15_linear_662_1338)"/>
<path d="M196.361 47.466C190.562 47.7767 188.599 48.0874 190.116 48.4757C193.774 49.4854 207.336 48.3981 205.194 47.233C205.016 47.1554 201.001 47.233 196.361 47.466Z" fill="url(#paint16_linear_662_1338)"/>
<path d="M154.784 56.3225C154.516 56.9438 154.427 58.5748 154.606 60.0505L154.873 62.6136L169.862 62.8466L184.762 63.002V59.1185V55.2351H170.041C158.174 55.2351 155.141 55.4681 154.784 56.3225ZM181.907 58.8855C181.64 60.1282 180.212 60.2836 169.773 60.5166C158.442 60.6719 157.996 60.6719 157.996 59.1185C157.996 57.6428 158.531 57.5652 170.13 57.5652C181.194 57.5652 182.175 57.7205 181.907 58.8855Z" fill="url(#paint17_linear_662_1338)"/>
<path d="M140.151 58.3393L130.783 58.8053L139.705 58.9607C144.613 59.0383 149.252 58.7277 149.966 58.3393C150.68 57.951 150.947 57.6403 150.412 57.718C149.966 57.7956 145.326 58.1063 140.151 58.3393Z" fill="url(#paint18_linear_662_1338)"/>
<path d="M73.9491 60.4362C75.5551 60.5916 77.9641 60.5916 79.3024 60.4362C80.6407 60.2809 79.3024 60.1256 76.3581 60.1256C73.4138 60.1256 72.3431 60.2809 73.9491 60.4362Z" fill="url(#paint19_linear_662_1338)"/>
<path d="M169.505 68.9801C169.327 76.514 169.505 84.1255 169.952 84.5138C170.219 84.8245 170.487 80.9411 170.487 75.9703C170.487 70.9995 170.308 66.8831 170.041 66.8831C169.773 66.8831 169.595 67.8151 169.505 68.9801Z" fill="url(#paint20_linear_662_1338)"/>
<path d="M80.7298 88.8643C80.4621 89.4857 80.3729 92.9031 80.5513 96.4758L80.819 103H106.069H131.408L131.318 96.1652C131.318 92.4371 131.318 89.0197 131.229 88.6313C131.229 88.1653 122.307 87.8546 106.247 87.8546C86.1723 87.8546 81.0867 88.0876 80.7298 88.8643ZM128.374 95.8545L128.642 101.058L106.069 100.903L83.4956 100.67L83.228 97.2525C83.0495 95.3108 83.1388 92.9808 83.4956 91.9711L83.9418 90.1847L106.069 90.34L128.106 90.573L128.374 95.8545Z" fill="url(#paint21_linear_662_1338)"/>
<path d="M40.2227 90.5713C40.2227 91.1926 40.6688 91.7363 41.1149 91.7363C41.6502 91.7363 42.0071 91.1926 42.0071 90.5713C42.0071 89.95 41.6502 89.4063 41.1149 89.4063C40.6688 89.4063 40.2227 89.95 40.2227 90.5713Z" fill="url(#paint22_linear_662_1338)"/>
<path d="M154.784 92.8264C154.516 93.4477 154.427 95.0788 154.606 96.5545L154.873 99.1175L169.862 99.3505L184.762 99.5059V95.6224V91.739H170.041C158.174 91.739 155.141 91.972 154.784 92.8264ZM180.747 95.6224C180.747 96.5545 179.052 96.7875 171.379 96.9428C161.922 97.0205 157.371 96.3214 158.442 94.8457C158.799 94.3021 163.082 94.0691 169.862 94.2244C178.874 94.4574 180.747 94.6904 180.747 95.6224Z" fill="url(#paint23_linear_662_1338)"/>
<path d="M40.2227 93.1356C40.2227 94.3783 42.0071 95.9317 43.7915 96.2424C44.9514 96.4754 44.9514 96.3977 43.7915 95.4657C43.0778 94.922 42.0071 93.9123 41.3825 93.291C40.5795 92.4366 40.3119 92.3589 40.2227 93.1356Z" fill="url(#paint24_linear_662_1338)"/>
<path d="M141.044 94.8444L133.46 95.3104L141.222 95.4658C145.594 95.5434 149.163 95.3104 149.52 94.8444C149.788 94.3784 149.788 94.1454 149.341 94.2231C148.985 94.3007 145.237 94.6114 141.044 94.8444Z" fill="url(#paint25_linear_662_1338)"/>
<path d="M45.5757 95.4646C45.5757 95.7753 46.3787 96.0859 47.3601 96.0859C48.3416 96.0859 49.1446 95.7753 49.1446 95.4646C49.1446 95.1539 48.3416 94.8432 47.3601 94.8432C46.3787 94.8432 45.5757 95.1539 45.5757 95.4646Z" fill="url(#paint26_linear_662_1338)"/>
</g>
<defs>
<linearGradient id="paint0_linear_662_1338" x1="89.4113" y1="3.08025" x2="123.996" y2="28.1159" gradientUnits="userSpaceOnUse">
<stop stop-color="#40BD9E"/>
<stop offset="1" stop-color="#6599CD"/>
</linearGradient>
<linearGradient id="paint1_linear_662_1338" x1="46.7168" y1="15.8527" x2="77.5378" y2="30.4585" gradientUnits="userSpaceOnUse">
<stop stop-color="#40BD9E"/>
<stop offset="1" stop-color="#6599CD"/>
</linearGradient>
<linearGradient id="paint2_linear_662_1338" x1="137.944" y1="14.2338" x2="139.833" y2="15.5327" gradientUnits="userSpaceOnUse">
<stop stop-color="#40BD9E"/>
<stop offset="1" stop-color="#6599CD"/>
</linearGradient>
<linearGradient id="paint3_linear_662_1338" x1="142.725" y1="14.2248" x2="144.593" y2="15.7929" gradientUnits="userSpaceOnUse">
<stop stop-color="#40BD9E"/>
<stop offset="1" stop-color="#6599CD"/>
</linearGradient>
<linearGradient id="paint4_linear_662_1338" x1="147.334" y1="14.2338" x2="149.317" y2="15.8602" gradientUnits="userSpaceOnUse">
<stop stop-color="#40BD9E"/>
<stop offset="1" stop-color="#6599CD"/>
</linearGradient>
<linearGradient id="paint5_linear_662_1338" x1="152.31" y1="14.2338" x2="154.294" y2="15.8602" gradientUnits="userSpaceOnUse">
<stop stop-color="#40BD9E"/>
<stop offset="1" stop-color="#6599CD"/>
</linearGradient>
<linearGradient id="paint6_linear_662_1338" x1="157.148" y1="14.2338" x2="159.132" y2="15.8602" gradientUnits="userSpaceOnUse">
<stop stop-color="#40BD9E"/>
<stop offset="1" stop-color="#6599CD"/>
</linearGradient>
<linearGradient id="paint7_linear_662_1338" x1="162.124" y1="14.2338" x2="164.108" y2="15.8602" gradientUnits="userSpaceOnUse">
<stop stop-color="#40BD9E"/>
<stop offset="1" stop-color="#6599CD"/>
</linearGradient>
<linearGradient id="paint8_linear_662_1338" x1="166.933" y1="14.3419" x2="169.95" y2="16.2842" gradientUnits="userSpaceOnUse">
<stop stop-color="#40BD9E"/>
<stop offset="1" stop-color="#6599CD"/>
</linearGradient>
<linearGradient id="paint9_linear_662_1338" x1="168.315" y1="26.5225" x2="170.876" y2="27.1947" gradientUnits="userSpaceOnUse">
<stop stop-color="#40BD9E"/>
<stop offset="1" stop-color="#6599CD"/>
</linearGradient>
<linearGradient id="paint10_linear_662_1338" x1="159.726" y1="34.1189" x2="169.593" y2="48.6945" gradientUnits="userSpaceOnUse">
<stop stop-color="#40BD9E"/>
<stop offset="1" stop-color="#6599CD"/>
</linearGradient>
<linearGradient id="paint11_linear_662_1338" x1="105.978" y1="34.2365" x2="107.435" y2="34.3347" gradientUnits="userSpaceOnUse">
<stop stop-color="#40BD9E"/>
<stop offset="1" stop-color="#6599CD"/>
</linearGradient>
<linearGradient id="paint12_linear_662_1338" x1="213.744" y1="43.9631" x2="224.39" y2="48.834" gradientUnits="userSpaceOnUse">
<stop stop-color="#40BD9E"/>
<stop offset="1" stop-color="#6599CD"/>
</linearGradient>
<linearGradient id="paint13_linear_662_1338" x1="159.819" y1="45.1907" x2="169.021" y2="59.4961" gradientUnits="userSpaceOnUse">
<stop stop-color="#40BD9E"/>
<stop offset="1" stop-color="#6599CD"/>
</linearGradient>
<linearGradient id="paint14_linear_662_1338" x1="10.1969" y1="48.9882" x2="53.2715" y2="76.3229" gradientUnits="userSpaceOnUse">
<stop stop-color="#40BD9E"/>
<stop offset="1" stop-color="#6599CD"/>
</linearGradient>
<linearGradient id="paint15_linear_662_1338" x1="96.6343" y1="48.5413" x2="123.809" y2="61.0358" gradientUnits="userSpaceOnUse">
<stop stop-color="#40BD9E"/>
<stop offset="1" stop-color="#6599CD"/>
</linearGradient>
<linearGradient id="paint16_linear_662_1338" x1="192.395" y1="47.3826" x2="193.472" y2="51.4487" gradientUnits="userSpaceOnUse">
<stop stop-color="#40BD9E"/>
<stop offset="1" stop-color="#6599CD"/>
</linearGradient>
<linearGradient id="paint17_linear_662_1338" x1="159.819" y1="56.0657" x2="169.021" y2="70.3711" gradientUnits="userSpaceOnUse">
<stop stop-color="#40BD9E"/>
<stop offset="1" stop-color="#6599CD"/>
</linearGradient>
<linearGradient id="paint18_linear_662_1338" x1="134.276" y1="57.8415" x2="134.788" y2="61.0583" gradientUnits="userSpaceOnUse">
<stop stop-color="#40BD9E"/>
<stop offset="1" stop-color="#6599CD"/>
</linearGradient>
<linearGradient id="paint19_linear_662_1338" x1="74.3642" y1="60.1712" x2="74.5395" y2="61.2553" gradientUnits="userSpaceOnUse">
<stop stop-color="#40BD9E"/>
<stop offset="1" stop-color="#6599CD"/>
</linearGradient>
<linearGradient id="paint20_linear_662_1338" x1="169.621" y1="68.7704" x2="170.712" y2="68.7963" gradientUnits="userSpaceOnUse">
<stop stop-color="#40BD9E"/>
<stop offset="1" stop-color="#6599CD"/>
</linearGradient>
<linearGradient id="paint21_linear_662_1338" x1="89.3952" y1="89.4743" x2="108.289" y2="114.842" gradientUnits="userSpaceOnUse">
<stop stop-color="#40BD9E"/>
<stop offset="1" stop-color="#6599CD"/>
</linearGradient>
<linearGradient id="paint22_linear_662_1338" x1="40.5357" y1="89.6555" x2="42.2318" y2="90.1739" gradientUnits="userSpaceOnUse">
<stop stop-color="#40BD9E"/>
<stop offset="1" stop-color="#6599CD"/>
</linearGradient>
<linearGradient id="paint23_linear_662_1338" x1="159.819" y1="92.5696" x2="169.021" y2="106.875" gradientUnits="userSpaceOnUse">
<stop stop-color="#40BD9E"/>
<stop offset="1" stop-color="#6599CD"/>
</linearGradient>
<linearGradient id="paint24_linear_662_1338" x1="41.0012" y1="93.0001" x2="44.7747" y2="94.7804" gradientUnits="userSpaceOnUse">
<stop stop-color="#40BD9E"/>
<stop offset="1" stop-color="#6599CD"/>
</linearGradient>
<linearGradient id="paint25_linear_662_1338" x1="136.309" y1="94.3444" x2="136.935" y2="97.5343" gradientUnits="userSpaceOnUse">
<stop stop-color="#40BD9E"/>
<stop offset="1" stop-color="#6599CD"/>
</linearGradient>
<linearGradient id="paint26_linear_662_1338" x1="46.2017" y1="94.9761" x2="47.8048" y2="96.8136" gradientUnits="userSpaceOnUse">
<stop stop-color="#40BD9E"/>
<stop offset="1" stop-color="#6599CD"/>
</linearGradient>
</defs>
</svg>
