<svg width="326" height="118" viewBox="0 0 326 118" fill="none" xmlns="http://www.w3.org/2000/svg">
<path d="M258.141 1.33604C257.639 4.16631 256.761 15.3742 256.259 26.2424C255.758 37.1106 255.13 44.4693 255.005 42.6579C254.754 40.7334 254.252 38.0163 253.751 36.4314C252.998 33.8275 252.873 34.0539 251.995 38.1295C251.493 40.6201 250.991 45.1486 250.866 48.3185C250.74 53.7526 250.74 53.8658 248.984 51.1487L247.228 48.3185L246.099 51.1487C245.096 53.6394 244.845 53.4129 243.967 47.9788C243.089 41.639 240.831 39.9409 240.831 45.6014C240.831 47.526 240.329 48.7713 239.577 48.3185C238.95 47.9788 238.322 45.2618 238.322 42.3183C238.322 33.035 236.065 32.9218 235.061 42.2051L234.183 50.5827L232.678 44.9221C231.549 39.9409 231.173 39.6012 230.42 42.0919C229.918 43.6768 229.542 46.8467 229.542 49.1109C229.542 51.4884 229.04 53.4129 228.288 53.4129C227.661 53.4129 227.033 52.8469 227.033 52.2808C227.033 49.9034 224.525 51.2619 223.772 53.979C223.145 56.13 222.518 56.5828 221.514 55.7904C220.386 54.9979 219.508 54.9979 218.504 55.9036C217.375 56.9225 216.999 56.4696 216.873 53.8658C216.873 52.0544 216.372 49.5638 215.745 48.3185C214.741 45.941 213.863 46.8467 212.86 51.7148C212.609 52.9601 211.982 50.0166 211.48 45.1486C210.476 36.4314 208.219 33.035 208.219 40.3937C208.219 42.5447 207.717 44.3561 206.964 44.3561C206.212 44.3561 205.584 40.7334 205.584 36.0917C205.459 31.6765 205.083 26.3556 204.581 24.5442C203.828 21.714 203.578 22.28 202.825 28.3934C202.323 32.3558 201.821 38.4691 201.821 41.9787L201.571 48.3185L200.442 41.073C198.937 32.8086 196.93 33.6011 196.93 42.4315C196.93 45.8278 196.428 47.6392 195.675 47.1864C195.048 46.8467 194.421 45.0354 194.421 43.224C194.421 36.6578 192.038 38.922 191.16 46.2807C190.658 50.5827 190.031 53.1865 189.78 52.2808C188.149 47.2996 188.024 47.1864 186.268 50.0166L184.512 52.8469L184.386 48.7713C184.386 46.5071 184.01 42.3183 183.634 39.3748C182.63 32.9218 180.623 34.5068 180.623 41.7523C180.623 44.3561 180.122 46.8467 179.369 47.1864C178.616 47.6392 178.115 46.5071 178.115 44.4693C178.115 37.9031 175.857 39.9409 174.853 47.2996C174.226 52.8469 173.725 54.3186 172.846 52.9601C171.467 50.6959 169.334 51.6016 169.334 54.6583C169.334 55.7904 168.833 56.8093 168.08 56.8093C167.453 56.8093 166.826 56.2432 166.826 55.5639C166.826 54.6583 166.324 54.6583 165.07 55.5639C163.564 56.6961 163.188 56.13 162.436 52.2808C161.558 47.4128 159.3 44.9221 159.3 48.7713C159.3 53.7526 156.791 50.8091 156.666 45.7146C156.54 42.7711 156.164 39.1484 155.662 37.5635C154.784 35.186 154.533 35.6389 153.53 40.9598L152.275 47.1864L151.272 34.2803C150.269 20.5819 148.136 18.8837 147.885 31.3369C147.76 35.0728 147.258 39.6012 146.756 41.5258L145.753 44.9221L145.628 40.9598C145.502 38.8088 145 36.3181 144.373 35.5257C143.244 33.8275 141.865 41.073 141.614 49.3374L141.488 53.979L139.983 50.6959L138.352 47.4128L136.973 50.6959L135.718 53.979L134.84 50.3563C133.837 46.2807 131.705 46.3939 131.705 50.3563C131.705 52.3941 131.454 52.5073 130.45 51.1487C129.823 50.243 129.196 47.6392 129.196 45.4882C129.196 39.3748 127.189 37.6767 126.311 42.8844C125.809 45.2618 125.433 48.6581 125.433 50.5827L125.307 53.979L123.677 50.5827L122.046 47.1864L120.792 51.0355C120.039 53.8658 118.91 54.9979 116.903 55.1111C114.646 55.2243 114.018 54.5451 113.391 51.2619C111.886 43.1108 111.384 42.3183 110.005 46.6203C108.625 51.2619 108.374 50.6959 107.245 40.6201C106.743 36.3181 106.116 33.035 105.865 33.2615C105.614 33.6011 104.987 36.5446 104.36 39.9409L103.231 46.0543L102.228 35.5257C101.224 24.5442 99.092 21.2611 99.092 30.6576C99.092 33.8275 98.5902 36.6578 97.8376 36.9974C97.085 37.4502 96.5833 33.8275 96.4579 27.1481C96.4579 21.3743 96.0816 14.5817 95.4544 12.0911C94.7018 8.12868 94.4509 9.03437 93.6983 18.2044C93.1966 24.0914 92.8203 32.2426 92.8203 36.3181C92.8203 41.5258 92.444 43.3372 91.566 42.0919C90.9388 41.1862 90.3117 38.8088 90.3117 36.9974C90.3117 31.4501 87.9284 36.0917 87.6776 42.0919C87.5521 47.2996 85.6706 54.6583 85.4198 50.8091C85.1689 47.6392 83.0366 48.6581 82.1585 52.2808C81.5314 54.8847 80.9042 55.4507 79.7753 54.6583C78.6464 53.8658 77.7684 53.8658 76.8903 54.6583C76.0123 55.4507 75.2597 54.5451 74.758 51.6016C73.88 47.4128 72.2493 47.526 71.2459 51.7148C70.8696 52.9601 70.2424 51.0355 69.7407 47.4128C69.1135 43.9033 68.2355 40.7334 67.7337 40.3937C67.1066 40.0541 66.2286 43.224 65.7268 47.2996C64.9742 54.4318 64.7234 54.6583 63.2182 52.1676L61.5875 49.4506L60.7095 53.1865C60.0823 55.7904 59.4552 56.5828 58.3263 55.6772C57.4482 54.9979 56.4448 54.9979 55.5668 55.7904C54.5633 56.6961 53.9361 55.6772 53.309 52.3941C52.3055 46.9599 50.8003 45.7146 49.546 49.2242C48.9188 51.0355 48.2917 49.677 47.6645 44.0165C47.0373 39.7145 46.2847 35.9785 45.9084 35.6389C45.6576 35.2992 45.0304 37.5635 44.5287 40.6201C43.2743 48.7713 42.898 48.9977 42.6472 41.5258C42.5217 37.7899 42.02 31.6765 41.5183 27.9406C40.6402 21.6008 40.5148 21.3743 39.7622 25.1103C39.3859 27.2613 38.5079 33.1482 37.8807 38.1295C37.0027 45.0354 36.6264 45.941 36.501 42.0919C36.2501 34.2803 34.3686 33.035 33.4906 40.0541C32.9888 43.3372 32.6125 47.8656 32.6125 50.0166C32.4871 53.8658 32.4871 53.8658 30.9819 51.3752C29.1004 48.4317 27.5952 49.2242 27.5952 53.0733C27.5952 55.7904 25.7137 56.5828 24.7103 54.2054C24.2085 53.1865 23.7068 53.1865 22.7033 54.4318C21.6999 55.7904 21.3236 55.4507 20.571 52.7337C19.3167 47.6392 18.5641 47.0732 17.1843 50.1298C16.0554 52.6205 15.8045 52.1676 14.8011 46.7335C13.4213 39.0352 12.9196 38.4691 11.9161 43.9033C10.2855 53.0733 9.9092 53.979 8.65487 52.1676C7.6514 50.8091 7.40054 50.8091 6.27164 52.2808C5.64448 53.1865 5.01731 54.6583 5.01731 55.5639C5.01731 56.6961 4.64102 56.8093 3.38669 55.7904C1.1289 54.2054 0 55.3375 0 59.0735C0 62.8094 1.1289 63.9415 3.26125 62.3566C4.51558 61.4509 5.14275 61.7905 5.76991 64.0547C6.52251 66.885 8.7803 68.2435 8.7803 65.7529C8.7803 65.1869 9.40746 64.9604 10.0346 65.3001C10.7872 65.6397 11.289 67.9039 11.4144 70.1681C11.4144 72.4323 11.9161 75.3758 12.4179 76.6211C13.2959 78.4325 13.6722 77.64 14.4248 73.2248C15.5537 65.4133 15.8045 64.9604 17.1843 68.0171C18.5641 71.0738 19.3167 70.3945 20.571 65.4133C21.3236 62.6962 21.6999 62.3566 22.7033 63.7151C23.7068 64.9604 24.2085 64.9604 24.7103 63.8283C25.7137 61.5641 27.5952 62.3566 27.5952 65.0736C27.5952 68.9228 29.1004 69.7153 30.9819 66.7718C32.4871 64.2812 32.4871 64.2812 32.6125 68.1303C32.6125 70.2813 32.9888 74.8098 33.4906 78.0929C34.3686 85.1119 36.2501 83.8666 36.501 76.0551C36.6264 72.2059 37.0027 73.1116 37.8807 80.0174C38.5079 84.9987 39.3859 90.8857 39.7622 93.0367C40.5148 96.7726 40.6402 96.5462 41.5183 90.2064C42.02 86.4705 42.5217 80.3571 42.6472 76.6211C42.898 69.1492 43.2743 69.3756 44.5287 77.5268C45.0304 80.5835 45.6576 82.8477 45.9084 82.5081C46.2847 82.1684 47.0373 78.4325 47.6645 74.1305C48.2917 68.47 48.9188 67.1114 49.546 68.9228C50.8003 72.4323 52.3055 71.3002 53.309 66.0925C53.9361 62.583 54.5633 61.9037 57.072 61.9037C59.2043 61.9037 60.2078 62.583 60.2078 63.8283C60.2078 66.5454 62.3401 67.3379 63.7199 65.1869C64.5979 63.8283 65.0997 65.1869 65.7268 70.2813C66.2286 74.0173 67.1066 77.1872 67.6083 77.1872C68.2355 77.1872 69.1135 74.2437 69.7407 70.621C70.2424 67.1114 70.8696 65.1869 71.2459 66.4322C72.2493 70.621 73.88 70.7342 74.6326 66.5454C75.3852 63.2623 75.8869 62.6962 77.1412 63.6019C78.3955 64.5076 79.1481 64.3944 80.0262 62.9226C81.0296 61.3377 81.4059 61.7905 82.0331 65.1869C82.9111 69.3756 85.1689 70.8474 85.4198 67.2246C85.6706 63.4887 87.5521 70.8474 87.6776 76.0551C87.9284 82.0552 90.3117 86.6969 90.3117 81.1496C90.3117 79.225 90.9388 76.9608 91.566 76.0551C92.444 74.8098 92.8203 76.6211 92.8203 81.8288C92.8203 85.9044 93.1966 94.0556 93.6983 99.9425C94.4509 109.113 94.7018 110.018 95.4544 106.056C96.0816 103.565 96.4579 96.7726 96.4579 90.9989C96.5833 84.3195 97.085 80.6967 97.8376 81.1496C98.5902 81.4892 99.092 84.3195 99.092 87.4894C99.092 96.8858 101.224 93.6027 102.228 82.5081L103.231 72.0927L104.235 78.0929C104.736 81.376 105.364 84.4327 105.74 84.6591C106.116 84.9987 106.743 81.8288 107.245 77.5268C108.374 67.4511 108.625 66.885 110.005 71.5266C111.384 75.8287 111.886 75.0362 113.517 66.6586C114.018 64.0547 114.771 62.6962 115.649 63.1491C116.276 63.6019 117.405 63.2623 117.907 62.4698C118.659 61.4509 119.412 62.583 120.541 65.9793L122.046 70.9606L123.677 67.5643L125.307 64.168L125.433 67.5643C125.433 69.3756 125.809 72.8852 126.311 75.2626C127.189 80.4703 129.196 78.7721 129.196 72.6588C129.196 70.5078 129.823 67.9039 130.45 66.9982C131.454 65.6397 131.705 65.7529 131.705 67.7907C131.705 71.4134 133.711 71.0738 134.84 67.2246L135.718 64.168L137.224 67.5643L138.729 70.9606L139.732 68.1303C140.987 64.734 141.237 65.8661 142.366 76.5079C143.244 84.6591 145.251 84.9987 145.628 77.1872L145.753 73.2248L146.756 76.6211C147.258 78.4325 147.76 83.0741 147.885 86.8101C148.136 99.2633 150.269 97.5651 151.272 83.8666L152.275 70.9606L153.53 77.1872C154.533 82.5081 154.784 82.9609 155.662 80.5835C156.164 78.9986 156.54 75.3758 156.666 72.3191C156.791 67.3379 159.3 64.3944 159.3 69.3756C159.3 73.1116 161.558 70.7342 162.436 66.0925C163.063 62.6962 163.69 61.9037 166.199 61.7905C168.456 61.6773 169.334 62.1302 169.334 63.6019C169.334 66.5454 171.467 67.4511 172.846 65.1869C173.725 63.8283 174.226 65.3001 174.853 70.8474C175.857 78.2061 178.115 80.2439 178.115 73.6777C178.115 71.6399 178.616 70.5078 179.369 70.9606C180.122 71.3002 180.623 73.7909 180.623 76.3947C180.623 83.6402 182.63 85.2251 183.634 78.7721C184.01 75.8287 184.386 71.6399 184.386 69.3756L184.512 65.3001L186.268 68.1303C188.024 70.9606 188.149 70.8474 189.78 65.8661C190.031 64.9604 190.658 67.5643 191.16 71.8663C192.038 79.225 194.421 81.4892 194.421 74.923C194.421 73.1116 195.048 71.3002 195.675 70.9606C196.428 70.5078 196.93 72.3191 196.93 75.7154C196.93 84.5459 198.937 85.3383 200.442 77.074L201.571 69.8285L201.821 76.1683C201.821 79.6778 202.323 85.7912 202.825 89.7536C203.578 95.8669 203.828 96.433 204.581 93.6027C205.083 91.6781 205.459 86.4705 205.584 81.942C205.584 77.4136 206.212 73.7909 206.964 73.7909C207.717 73.7909 208.219 75.6022 208.219 77.7532C208.219 85.1119 210.476 81.7156 211.48 72.8852C211.982 68.1303 212.609 65.1869 212.86 66.4322C213.863 71.3002 214.741 72.2059 215.745 69.8285C216.372 68.5832 216.873 66.0925 216.873 64.2812C216.999 61.7905 217.375 61.3377 218.629 62.3566C219.758 63.1491 220.762 63.1491 221.64 62.3566C222.518 61.5641 223.145 62.017 223.772 64.0547C224.525 66.885 227.033 68.2435 227.033 65.7529C227.033 65.1869 227.661 64.9604 228.288 65.3001C229.04 65.6397 229.542 67.6775 229.542 69.6021C229.542 71.6399 229.918 74.4701 230.42 76.0551C231.173 78.5457 231.549 78.2061 232.678 73.2248L234.183 67.5643L235.061 75.9419C236.065 85.2251 238.322 85.1119 238.322 75.8287C238.322 72.8852 238.95 70.1681 239.577 69.8285C240.329 69.3756 240.831 70.621 240.831 72.5455C240.831 78.2061 243.089 76.5079 243.967 70.0549C244.845 64.734 245.096 64.5076 246.099 66.9982L247.228 69.8285L248.984 66.9982C250.74 64.2812 250.74 64.3944 250.866 69.8285C250.991 72.8852 251.493 77.5268 251.995 80.0174C252.873 84.093 252.998 84.2062 253.751 81.7156C254.252 80.1307 254.754 77.64 255.005 76.0551C255.256 74.4701 255.883 82.3949 256.385 93.6027C257.89 123.377 259.019 125.755 260.273 101.527C260.9 90.3196 261.528 82.1684 261.653 83.4138C261.904 84.6591 262.406 90.2064 262.907 95.8669L263.911 106.056L264.789 99.8293C265.29 96.433 265.667 89.5271 265.792 84.6591C265.918 74.1305 266.921 74.0173 268.301 84.093C269.179 90.6593 269.304 90.9989 270.057 87.3761C270.433 85.2251 271.186 80.3571 271.688 76.6211L272.691 69.8285L273.444 74.5833C274.573 81.8288 275.576 81.4892 276.579 73.5644L277.583 66.4322L278.963 70.9606C280.342 75.2626 280.468 75.2626 281.346 72.6588C281.848 71.0738 282.224 68.6964 282.224 67.2246C282.224 65.8661 282.851 64.734 283.478 64.734C284.231 64.734 284.733 65.5265 284.733 66.4322C284.733 67.3379 285.36 68.1303 285.987 68.1303C286.74 68.1303 287.241 67.3379 287.241 66.4322C287.241 65.5265 287.868 64.734 288.496 64.734C289.248 64.734 289.75 65.7529 289.75 66.885C289.75 71.3002 292.259 70.3945 293.011 65.7529C293.764 62.1302 294.14 61.4509 295.018 62.9226C295.896 64.3944 296.649 64.5076 297.903 63.6019C299.157 62.583 299.785 63.1491 300.412 65.8661C301.29 69.4889 303.422 70.5078 303.673 67.2246C303.924 63.6019 305.805 70.7342 306.056 76.0551C306.182 78.8853 306.683 82.1684 307.311 83.4138C308.189 85.3383 308.439 84.9987 308.565 81.7156C308.69 79.5646 309.192 76.7343 309.819 75.489C310.572 74.0173 310.948 76.3947 310.948 82.8477C311.074 88.1686 311.45 96.7726 311.952 102.094C312.83 111.603 312.83 111.603 313.708 106.056C314.209 102.886 314.711 95.7537 314.836 90.2064C315.087 79.3382 316.969 70.2813 317.22 78.6589C317.471 85.678 319.478 82.3949 320.481 73.5644C320.983 69.036 321.735 66.0925 321.986 66.9982C323.617 71.9795 323.868 72.2059 324.871 69.8285C325.498 68.5832 326 63.7151 326 59.0735C326 54.4318 325.498 49.5638 324.871 48.3185C323.868 45.941 323.617 46.1675 321.986 51.1487C321.735 52.0544 320.983 49.1109 320.481 44.5825C319.478 35.7521 317.471 32.469 317.22 39.488C316.969 48.2053 315.087 38.5824 314.836 27.3745C314.711 21.4875 314.209 14.3553 313.708 11.525L312.704 6.43053L312.328 10.959C312.202 13.4496 311.701 22.0536 311.199 30.2048C310.446 43.9033 310.195 44.4693 309.192 38.6956C308.063 31.6765 306.432 33.3747 306.056 42.0919C305.805 47.4128 303.924 54.5451 303.673 50.8091C303.422 47.6392 301.29 48.6581 300.412 52.2808C299.785 54.9979 299.157 55.5639 297.903 54.5451C296.649 53.6394 295.896 53.7526 295.018 55.2243C294.14 56.6961 293.764 56.0168 293.011 52.3941C292.259 47.7524 289.75 46.8467 289.75 51.2619C289.75 52.3941 289.248 53.4129 288.496 53.4129C287.868 53.4129 287.241 52.6205 287.241 51.7148C287.241 50.8091 286.74 50.0166 285.987 50.0166C285.36 50.0166 284.733 50.8091 284.733 51.7148C284.733 52.6205 284.231 53.4129 283.478 53.4129C282.851 53.4129 282.224 52.2808 282.224 50.8091C282.224 49.4506 281.848 47.0732 281.346 45.4882C280.468 42.8844 280.342 42.8844 278.963 47.1864L277.583 51.7148L276.579 44.5825C275.576 36.6578 274.573 36.3181 273.444 43.5636L272.691 48.3185L271.688 41.5258C271.186 37.7899 270.433 32.9218 270.057 30.7708C269.304 27.0349 269.179 27.2613 268.175 33.6011C266.67 43.79 266.169 43.6768 265.918 33.035C265.792 27.7141 265.29 20.8083 264.789 17.7516C263.911 12.2043 263.911 12.3175 262.907 22.28C262.406 27.8273 261.904 33.2615 261.653 34.1671C261.528 35.0728 260.775 26.9217 260.148 16.0534C259.27 1.44926 258.768 -2.3999 258.141 1.33604Z" fill="white"/>
</svg>
